Veleka-BoldItalic.ufo
<glyph name="quotedbl" format="1">
  <advance width="375"/>
  <unicode hex="0022"/>
  <outline>
    <contour>
      <point x="421" y="669" type="curve" smooth="yes"/>
      <point x="421" y="650"/>
      <point x="348" y="459"/>
      <point x="333" y="417" type="curve"/>
      <point x="296" y="417" type="line"/>
      <point x="304" y="651" type="line" smooth="yes"/>
      <point x="305" y="687"/>
      <point x="339" y="714"/>
      <point x="373" y="714" type="curve" smooth="yes"/>
      <point x="402" y="714"/>
      <point x="421" y="700"/>
    </contour>
    <contour>
      <point x="225" y="669" type="curve" smooth="yes"/>
      <point x="225" y="650"/>
      <point x="152" y="459"/>
      <point x="137" y="417" type="curve"/>
      <point x="100" y="417" type="line"/>
      <point x="107" y="651" type="line" smooth="yes"/>
      <point x="109" y="687"/>
      <point x="143" y="714"/>
      <point x="177" y="714" type="curve" smooth="yes"/>
      <point x="206" y="714"/>
      <point x="225" y="700"/>
    </contour>
  </outline>
</glyph>
<glyph name="numbersign" format="1">
  <advance width="741"/>
  <unicode hex="0023"/>
  <outline>
    <contour>
      <point x="679" y="414" type="line"/>
      <point x="527" y="414" type="line"/>
      <point x="484" y="282" type="line"/>
      <point x="639" y="282" type="line"/>
      <point x="639" y="219" type="line"/>
      <point x="462" y="219" type="line"/>
      <point x="386" y="-24" type="line"/>
      <point x="317" y="-7" type="line"/>
      <point x="391" y="219" type="line"/>
      <point x="266" y="219" type="line"/>
      <point x="188" y="-24" type="line"/>
      <point x="121" y="-6" type="line"/>
      <point x="196" y="219" type="line"/>
      <point x="62" y="219" type="line"/>
      <point x="62" y="282" type="line"/>
      <point x="216" y="282" type="line"/>
      <point x="259" y="414" type="line"/>
      <point x="111" y="414" type="line"/>
      <point x="111" y="480" type="line"/>
      <point x="280" y="480" type="line"/>
      <point x="357" y="710" type="line"/>
      <point x="424" y="692" type="line"/>
      <point x="350" y="480" type="line"/>
      <point x="480" y="480" type="line"/>
      <point x="554" y="710" type="line"/>
      <point x="623" y="691" type="line"/>
      <point x="548" y="480" type="line"/>
      <point x="679" y="480" type="line"/>
    </contour>
    <contour>
      <point x="457" y="414" type="line"/>
      <point x="331" y="414" type="line"/>
      <point x="287" y="282" type="line"/>
      <point x="411" y="282" type="line"/>
    </contour>
  </outline>
</glyph>
<glyph name="parenleft" format="1">
  <advance width="423"/>
  <unicode hex="0028"/>
  <outline>
    <contour>
      <point x="472" y="717" type="curve"/>
      <point x="461" y="663" type="line"/>
      <point x="259" y="637"/>
      <point x="192" y="273"/>
      <point x="192" y="97" type="curve" smooth="yes"/>
      <point x="192" y="10"/>
      <point x="214" y="-75"/>
      <point x="313" y="-88" type="curve"/>
      <point x="302" y="-142" type="line"/>
      <point x="134" y="-138"/>
      <point x="71" y="-17"/>
      <point x="71" y="136" type="curve" smooth="yes"/>
      <point x="71" y="374"/>
      <point x="190" y="709"/>
    </contour>
  </outline>
</glyph>
<glyph name="two" format="1">
  <advance width="598"/>
  <unicode hex="0032"/>
  <outline>
    <contour>
      <point x="577" y="535" type="curve" smooth="yes"/>
      <point x="577" y="444"/>
      <point x="509" y="356"/>
      <point x="423" y="280" type="curve" smooth="yes"/>
      <point x="351" y="217"/>
      <point x="257" y="155"/>
      <point x="167" y="93" type="curve"/>
      <point x="422" y="93" type="line"/>
      <point x="456" y="176" type="line"/>
      <point x="533" y="176" type="line"/>
      <point x="500" y="0" type="line"/>
      <point x="-21" y="0" type="line"/>
      <point x="-8" y="71" type="line"/>
      <point x="282" y="274"/>
      <point x="420" y="380"/>
      <point x="420" y="523" type="curve" smooth="yes"/>
      <point x="420" y="601"/>
      <point x="370" y="623"/>
      <point x="339" y="623" type="curve" smooth="yes"/>
      <point x="310" y="623"/>
      <point x="280" y="610"/>
      <point x="267" y="604" type="curve"/>
      <point x="247" y="500" type="line"/>
      <point x="234" y="492"/>
      <point x="224" y="473"/>
      <point x="179" y="473" type="curve" smooth="yes"/>
      <point x="133" y="473"/>
      <point x="103" y="502"/>
      <point x="103" y="536" type="curve" smooth="yes"/>
      <point x="103" y="628"/>
      <point x="213" y="687"/>
      <point x="371" y="687" type="curve" smooth="yes"/>
      <point x="500" y="687"/>
      <point x="577" y="638"/>
    </contour>
  </outline>
</glyph>
<glyph name="asciicircum" format="1">
  <advance width="339"/>
  <unicode hex="005E"/>
  <outline>
    <contour>
      <point x="397" y="551" type="line"/>
      <point x="313" y="551" type="line"/>
      <point x="246" y="646" type="line"/>
      <point x="140" y="551" type="line"/>
      <point x="57" y="551" type="line"/>
      <point x="202" y="722" type="line"/>
      <point x="320" y="722" type="line"/>
    </contour>
  </outline>
</glyph>
<glyph name="x" format="1">
  <advance width="576"/>
  <unicode hex="0078"/>
  <outline>
    <contour>
      <point x="586" y="437" type="curve" smooth="yes"/>
      <point x="586" y="411"/>
      <point x="584" y="361"/>
      <point x="516" y="361" type="curve"/>
      <point x="472" y="413" type="line"/>
      <point x="440" y="389"/>
      <point x="382" y="331"/>
      <point x="351" y="256" type="curve"/>
      <point x="358" y="232"/>
      <point x="381" y="166"/>
      <point x="399" y="125" type="curve" smooth="yes"/>
      <point x="417" y="85"/>
      <point x="425" y="51"/>
      <point x="448" y="51" type="curve" smooth="yes"/>
      <point x="459" y="51"/>
      <point x="482" y="51"/>
      <point x="526" y="81" type="curve"/>
      <point x="526" y="23" type="line"/>
      <point x="480" y="-4"/>
      <point x="440" y="-12"/>
      <point x="382" y="-12" type="curve" smooth="yes"/>
      <point x="317" y="-12"/>
      <point x="272" y="86"/>
      <point x="251" y="155" type="curve"/>
      <point x="236" y="130"/>
      <point x="162" y="-12"/>
      <point x="74" y="-12" type="curve" smooth="yes"/>
      <point x="28" y="-12"/>
      <point x="-18" y="9"/>
      <point x="-18" y="48" type="curve" smooth="yes"/>
      <point x="-18" y="79"/>
      <point x="-7" y="126"/>
      <point x="68" y="126" type="curve"/>
      <point x="106" y="67" type="line"/>
      <point x="141" y="97"/>
      <point x="193" y="156"/>
      <point x="224" y="234" type="curve"/>
      <point x="215" y="273"/>
      <point x="167" y="415"/>
      <point x="152" y="417" type="curve" smooth="yes"/>
      <point x="53" y="429" type="line"/>
      <point x="53" y="460" type="line"/>
      <point x="77" y="469"/>
      <point x="181" y="500"/>
      <point x="195" y="500" type="curve" smooth="yes"/>
      <point x="257" y="500"/>
      <point x="291" y="438"/>
      <point x="320" y="341" type="curve"/>
      <point x="366" y="411"/>
      <point x="434" y="500"/>
      <point x="504" y="500" type="curve" smooth="yes"/>
      <point x="545" y="500"/>
      <point x="586" y="474"/>
    </contour>
  </outline>
</glyph>
<glyph name="threesuperior" format="1">
  <advance width="389"/>
  <unicode hex="00B3"/>
  <outline>
    <contour>
      <point x="433" y="708" type="curve" smooth="yes"/>
      <point x="433" y="668"/>
      <point x="399" y="623"/>
      <point x="319" y="598" type="curve"/>
      <point x="376" y="588"/>
      <point x="406" y="564"/>
      <point x="406" y="521" type="curve" smooth="yes"/>
      <point x="406" y="448"/>
      <point x="325" y="373"/>
      <point x="197" y="373" type="curve" smooth="yes"/>
      <point x="103" y="373"/>
      <point x="66" y="414"/>
      <point x="66" y="441" type="curve" smooth="yes"/>
      <point x="66" y="453"/>
      <point x="83" y="485"/>
      <point x="117" y="485" type="curve" smooth="yes"/>
      <point x="137" y="485"/>
      <point x="147" y="475"/>
      <point x="156" y="471" type="curve"/>
      <point x="166" y="420" type="line"/>
      <point x="171" y="418"/>
      <point x="191" y="410"/>
      <point x="204" y="410" type="curve" smooth="yes"/>
      <point x="250" y="410"/>
      <point x="307" y="451"/>
      <point x="307" y="512" type="curve" smooth="yes"/>
      <point x="307" y="569"/>
      <point x="255" y="573"/>
      <point x="248" y="573" type="curve" smooth="yes"/>
      <point x="236" y="573"/>
      <point x="225" y="571"/>
      <point x="188" y="566" type="curve"/>
      <point x="195" y="613" type="line"/>
      <point x="274" y="609"/>
      <point x="332" y="643"/>
      <point x="332" y="700" type="curve" smooth="yes"/>
      <point x="332" y="748"/>
      <point x="289" y="758"/>
      <point x="280" y="758" type="curve" smooth="yes"/>
      <point x="257" y="758"/>
      <point x="240" y="748"/>
      <point x="233" y="743" type="curve"/>
      <point x="223" y="687" type="line"/>
      <point x="214" y="683"/>
      <point x="192" y="674"/>
      <point x="177" y="674" type="curve" smooth="yes"/>
      <point x="158" y="674"/>
      <point x="133" y="693"/>
      <point x="133" y="715" type="curve" smooth="yes"/>
      <point x="133" y="761"/>
      <point x="209" y="795"/>
      <point x="302" y="795" type="curve" smooth="yes"/>
      <point x="393" y="795"/>
      <point x="433" y="761"/>
    </contour>
  </outline>
</glyph>
<glyph name="Atilde" format="1">
  <advance width="714"/>
  <unicode hex="00C3"/>
  <outline>
    <contour>
      <point x="668" y="0" type="line"/>
      <point x="391" y="0" type="line"/>
      <point x="391" y="50" type="line"/>
      <point x="412" y="52"/>
      <point x="437" y="55"/>
      <point x="437" y="55" type="curve" smooth="yes"/>
      <point x="450" y="56"/>
      <point x="458" y="58"/>
      <point x="456" y="70" type="curve" smooth="yes"/>
      <point x="427" y="253" type="line"/>
      <point x="238" y="253" type="line"/>
      <point x="139" y="70" type="line" smooth="yes"/>
      <point x="133" y="60"/>
      <point x="139" y="56"/>
      <point x="152" y="55" type="curve" smooth="yes"/>
      <point x="152" y="55"/>
      <point x="179" y="52"/>
      <point x="204" y="50" type="curve"/>
      <point x="204" y="0" type="line"/>
      <point x="-53" y="0" type="line"/>
      <point x="-53" y="50" type="line"/>
      <point x="5" y="56" type="line"/>
      <point x="375" y="687" type="line"/>
      <point x="493" y="687" type="line"/>
      <point x="602" y="71" type="line" smooth="yes"/>
      <point x="604" y="58"/>
      <point x="607" y="56"/>
      <point x="622" y="54" type="curve" smooth="yes"/>
      <point x="622" y="54"/>
      <point x="646" y="52"/>
      <point x="668" y="50" type="curve"/>
    </contour>
    <contour>
      <point x="416" y="310" type="line"/>
      <point x="383" y="504" type="line"/>
      <point x="271" y="310" type="line"/>
    </contour>
    <contour>
      <point x="632" y="904" type="line"/>
      <point x="602" y="835"/>
      <point x="555" y="780"/>
      <point x="487" y="780" type="curve" smooth="yes"/>
      <point x="434" y="780"/>
      <point x="423" y="828"/>
      <point x="363" y="828" type="curve" smooth="yes"/>
      <point x="342" y="828"/>
      <point x="320" y="807"/>
      <point x="311" y="780" type="curve"/>
      <point x="256" y="780" type="line"/>
      <point x="287" y="849"/>
      <point x="334" y="904"/>
      <point x="401" y="904" type="curve" smooth="yes"/>
      <point x="454" y="904"/>
      <point x="465" y="857"/>
      <point x="525" y="857" type="curve" smooth="yes"/>
      <point x="546" y="857"/>
      <point x="570" y="878"/>
      <point x="578" y="904" type="curve"/>
    </contour>
  </outline>
</glyph>
<glyph name="Eacute" format="1">
  <advance width="600"/>
  <unicode hex="00C9"/>
  <outline>
    <contour>
      <point x="623" y="671" type="line"/>
      <point x="591" y="513" type="line"/>
      <point x="511" y="513" type="line"/>
      <point x="511" y="598" type="line" smooth="yes"/>
      <point x="511" y="608"/>
      <point x="499" y="611"/>
      <point x="488" y="611" type="curve" smooth="yes"/>
      <point x="316" y="611" type="line"/>
      <point x="271" y="379" type="line"/>
      <point x="384" y="379" type="line" smooth="yes"/>
      <point x="394" y="379"/>
      <point x="409" y="384"/>
      <point x="412" y="394" type="curve" smooth="yes"/>
      <point x="433" y="464" type="line"/>
      <point x="506" y="464" type="line"/>
      <point x="460" y="229" type="line"/>
      <point x="386" y="229" type="line"/>
      <point x="396" y="304" type="line" smooth="yes"/>
      <point x="398" y="312"/>
      <point x="383" y="318"/>
      <point x="374" y="318" type="curve" smooth="yes"/>
      <point x="259" y="318" type="line"/>
      <point x="209" y="60" type="line"/>
      <point x="422" y="60" type="line" smooth="yes"/>
      <point x="432" y="60"/>
      <point x="447" y="66"/>
      <point x="450" y="74" type="curve" smooth="yes"/>
      <point x="482" y="174" type="line"/>
      <point x="561" y="174" type="line"/>
      <point x="526" y="0" type="line"/>
      <point x="-15" y="0" type="line"/>
      <point x="-15" y="50" type="line"/>
      <point x="15" y="53"/>
      <point x="45" y="55"/>
      <point x="45" y="55" type="curve" smooth="yes"/>
      <point x="60" y="56"/>
      <point x="65" y="58"/>
      <point x="67" y="71" type="curve" smooth="yes"/>
      <point x="171" y="601" type="line" smooth="yes"/>
      <point x="174" y="613"/>
      <point x="166" y="615"/>
      <point x="153" y="616" type="curve" smooth="yes"/>
      <point x="153" y="616"/>
      <point x="123" y="618"/>
      <point x="96" y="621" type="curve"/>
      <point x="96" y="671" type="line"/>
    </contour>
    <contour>
      <point x="553" y="876" type="curve" smooth="yes"/>
      <point x="553" y="863"/>
      <point x="541" y="842"/>
      <point x="526" y="834" type="curve" smooth="yes"/>
      <point x="366" y="746" type="line"/>
      <point x="295" y="746" type="line"/>
      <point x="433" y="897" type="line" smooth="yes"/>
      <point x="455" y="922"/>
      <point x="469" y="929"/>
      <point x="496" y="929" type="curve" smooth="yes"/>
      <point x="539" y="929"/>
      <point x="553" y="900"/>
    </contour>
  </outline>
</glyph>
<glyph name="Edieresis" format="1">
  <advance width="600"/>
  <unicode hex="00CB"/>
  <outline>
    <contour>
      <point x="623" y="671" type="line"/>
      <point x="591" y="513" type="line"/>
      <point x="511" y="513" type="line"/>
      <point x="511" y="598" type="line" smooth="yes"/>
      <point x="511" y="608"/>
      <point x="499" y="611"/>
      <point x="488" y="611" type="curve" smooth="yes"/>
      <point x="316" y="611" type="line"/>
      <point x="271" y="379" type="line"/>
      <point x="384" y="379" type="line" smooth="yes"/>
      <point x="394" y="379"/>
      <point x="409" y="384"/>
      <point x="412" y="394" type="curve" smooth="yes"/>
      <point x="433" y="464" type="line"/>
      <point x="506" y="464" type="line"/>
      <point x="460" y="229" type="line"/>
      <point x="386" y="229" type="line"/>
      <point x="396" y="304" type="line" smooth="yes"/>
      <point x="398" y="312"/>
      <point x="383" y="318"/>
      <point x="374" y="318" type="curve" smooth="yes"/>
      <point x="259" y="318" type="line"/>
      <point x="209" y="60" type="line"/>
      <point x="422" y="60" type="line" smooth="yes"/>
      <point x="432" y="60"/>
      <point x="447" y="66"/>
      <point x="450" y="74" type="curve" smooth="yes"/>
      <point x="482" y="174" type="line"/>
      <point x="561" y="174" type="line"/>
      <point x="526" y="0" type="line"/>
      <point x="-15" y="0" type="line"/>
      <point x="-15" y="50" type="line"/>
      <point x="15" y="53"/>
      <point x="45" y="55"/>
      <point x="45" y="55" type="curve" smooth="yes"/>
      <point x="60" y="56"/>
      <point x="65" y="58"/>
      <point x="67" y="71" type="curve" smooth="yes"/>
      <point x="171" y="601" type="line" smooth="yes"/>
      <point x="174" y="613"/>
      <point x="166" y="615"/>
      <point x="153" y="616" type="curve" smooth="yes"/>
      <point x="153" y="616"/>
      <point x="123" y="618"/>
      <point x="96" y="621" type="curve"/>
      <point x="96" y="671" type="line"/>
    </contour>
    <contour>
      <point x="576" y="849" type="curve" smooth="yes"/>
      <point x="576" y="811"/>
      <point x="545" y="780"/>
      <point x="507" y="780" type="curve" smooth="yes"/>
      <point x="469" y="780"/>
      <point x="439" y="811"/>
      <point x="439" y="849" type="curve" smooth="yes"/>
      <point x="439" y="887"/>
      <point x="469" y="918"/>
      <point x="507" y="918" type="curve" smooth="yes"/>
      <point x="545" y="918"/>
      <point x="576" y="887"/>
    </contour>
    <contour>
      <point x="366" y="849" type="curve" smooth="yes"/>
      <point x="366" y="811"/>
      <point x="335" y="780"/>
      <point x="297" y="780" type="curve" smooth="yes"/>
      <point x="259" y="780"/>
      <point x="229" y="811"/>
      <point x="229" y="849" type="curve" smooth="yes"/>
      <point x="229" y="887"/>
      <point x="259" y="918"/>
      <point x="297" y="918" type="curve" smooth="yes"/>
      <point x="335" y="918"/>
      <point x="366" y="887"/>
    </contour>
  </outline>
</glyph>
<glyph name="Oslash" format="1">
  <advance width="751"/>
  <unicode hex="00D8"/>
  <outline>
    <contour>
      <point x="733" y="417" type="curve" smooth="yes"/>
      <point x="733" y="212"/>
      <point x="603" y="-16"/>
      <point x="341" y="-16" type="curve" smooth="yes"/>
      <point x="292" y="-16"/>
      <point x="248" y="-8"/>
      <point x="210" y="7" type="curve"/>
      <point x="142" y="-96" type="line"/>
      <point x="70" y="-44" type="line"/>
      <point x="134" y="54" type="line"/>
      <point x="78" y="104"/>
      <point x="48" y="177"/>
      <point x="48" y="263" type="curve" smooth="yes"/>
      <point x="48" y="471"/>
      <point x="194" y="687"/>
      <point x="441" y="687" type="curve" smooth="yes"/>
      <point x="478" y="687"/>
      <point x="511" y="682"/>
      <point x="541" y="674" type="curve"/>
      <point x="600" y="763" type="line"/>
      <point x="680" y="713" type="line"/>
      <point x="627" y="633" type="line"/>
      <point x="698" y="583"/>
      <point x="733" y="502"/>
    </contour>
    <contour>
      <point x="496" y="605" type="line"/>
      <point x="476" y="620"/>
      <point x="454" y="627"/>
      <point x="432" y="627" type="curve" smooth="yes"/>
      <point x="313" y="627"/>
      <point x="203" y="435"/>
      <point x="203" y="255" type="curve" smooth="yes"/>
      <point x="203" y="225"/>
      <point x="207" y="198"/>
      <point x="213" y="174" type="curve"/>
    </contour>
    <contour>
      <point x="577" y="417" type="curve" smooth="yes"/>
      <point x="577" y="460"/>
      <point x="570" y="497"/>
      <point x="557" y="527" type="curve"/>
      <point x="263" y="85" type="line"/>
      <point x="289" y="59"/>
      <point x="320" y="46"/>
      <point x="348" y="46" type="curve" smooth="yes"/>
      <point x="466" y="46"/>
      <point x="577" y="243"/>
    </contour>
  </outline>
</glyph>
<glyph name="Thorn" format="1">
  <advance width="607"/>
  <unicode hex="00DE"/>
  <outline>
    <contour>
      <point x="587" y="384" type="curve" smooth="yes"/>
      <point x="587" y="229"/>
      <point x="462" y="123"/>
      <point x="262" y="123" type="curve" smooth="yes"/>
      <point x="251" y="123"/>
      <point x="233" y="124"/>
      <point x="218" y="124" type="curve"/>
      <point x="208" y="70" type="line" smooth="yes"/>
      <point x="206" y="58"/>
      <point x="215" y="56"/>
      <point x="227" y="55" type="curve" smooth="yes"/>
      <point x="227" y="55"/>
      <point x="257" y="53"/>
      <point x="285" y="50" type="curve"/>
      <point x="285" y="0" type="line"/>
      <point x="-17" y="0" type="line"/>
      <point x="-17" y="50" type="line"/>
      <point x="14" y="53"/>
      <point x="45" y="55"/>
      <point x="45" y="55" type="curve" smooth="yes"/>
      <point x="58" y="56"/>
      <point x="63" y="59"/>
      <point x="65" y="71" type="curve" smooth="yes"/>
      <point x="170" y="601" type="line" smooth="yes"/>
      <point x="172" y="613"/>
      <point x="167" y="615"/>
      <point x="150" y="616" type="curve" smooth="yes"/>
      <point x="150" y="616"/>
      <point x="121" y="618"/>
      <point x="94" y="621" type="curve"/>
      <point x="94" y="671" type="line"/>
      <point x="394" y="671" type="line"/>
      <point x="394" y="621" type="line"/>
      <point x="362" y="618"/>
      <point x="332" y="616"/>
      <point x="332" y="616" type="curve" smooth="yes"/>
      <point x="321" y="615"/>
      <point x="314" y="612"/>
      <point x="312" y="600" type="curve" smooth="yes"/>
      <point x="302" y="547" type="line"/>
      <point x="339" y="547" type="line" smooth="yes"/>
      <point x="528" y="547"/>
      <point x="587" y="474"/>
    </contour>
    <contour>
      <point x="441" y="368" type="curve" smooth="yes"/>
      <point x="441" y="447"/>
      <point x="389" y="491"/>
      <point x="322" y="491" type="curve" smooth="yes"/>
      <point x="317" y="491"/>
      <point x="296" y="491"/>
      <point x="291" y="490" type="curve"/>
      <point x="230" y="185" type="line"/>
      <point x="269" y="183"/>
      <point x="314" y="190"/>
      <point x="355" y="214" type="curve" smooth="yes"/>
      <point x="403" y="243"/>
      <point x="441" y="292"/>
    </contour>
  </outline>
</glyph>
<glyph name="eacute" format="1">
  <advance width="479"/>
  <unicode hex="00E9"/>
  <outline>
    <contour>
      <point x="463" y="395" type="curve" smooth="yes"/>
      <point x="463" y="290"/>
      <point x="308" y="230"/>
      <point x="175" y="219" type="curve"/>
      <point x="174" y="207"/>
      <point x="172" y="189"/>
      <point x="172" y="178" type="curve" smooth="yes"/>
      <point x="172" y="109"/>
      <point x="191" y="58"/>
      <point x="247" y="58" type="curve" smooth="yes"/>
      <point x="290" y="58"/>
      <point x="330" y="90"/>
      <point x="440" y="185" type="curve"/>
      <point x="440" y="90" type="line"/>
      <point x="401" y="52"/>
      <point x="311" y="-12"/>
      <point x="214" y="-12" type="curve" smooth="yes"/>
      <point x="127" y="-12"/>
      <point x="33" y="26"/>
      <point x="33" y="174" type="curve" smooth="yes"/>
      <point x="33" y="326"/>
      <point x="150" y="500"/>
      <point x="321" y="500" type="curve" smooth="yes"/>
      <point x="419" y="500"/>
      <point x="463" y="425"/>
    </contour>
    <contour>
      <point x="333" y="396" type="curve" smooth="yes"/>
      <point x="333" y="419"/>
      <point x="328" y="444"/>
      <point x="298" y="444" type="curve" smooth="yes"/>
      <point x="236" y="444"/>
      <point x="200" y="344"/>
      <point x="182" y="271" type="curve"/>
      <point x="251" y="287"/>
      <point x="333" y="335"/>
    </contour>
    <contour>
      <point x="491" y="681" type="curve" smooth="yes"/>
      <point x="491" y="668"/>
      <point x="480" y="647"/>
      <point x="465" y="639" type="curve" smooth="yes"/>
      <point x="304" y="551" type="line"/>
      <point x="234" y="551" type="line"/>
      <point x="371" y="702" type="line" smooth="yes"/>
      <point x="393" y="727"/>
      <point x="407" y="734"/>
      <point x="434" y="734" type="curve" smooth="yes"/>
      <point x="477" y="734"/>
      <point x="491" y="705"/>
    </contour>
  </outline>
</glyph>
<glyph name="eth" format="1">
  <advance width="546"/>
  <unicode hex="00F0"/>
  <outline>
    <contour>
      <point x="527" y="652" type="line"/>
      <point x="415" y="607" type="line"/>
      <point x="461" y="525"/>
      <point x="509" y="399"/>
      <point x="509" y="295" type="curve" smooth="yes"/>
      <point x="509" y="182"/>
      <point x="449" y="-12"/>
      <point x="231" y="-12" type="curve" smooth="yes"/>
      <point x="100" y="-12"/>
      <point x="32" y="68"/>
      <point x="32" y="182" type="curve" smooth="yes"/>
      <point x="32" y="340"/>
      <point x="133" y="497"/>
      <point x="310" y="497" type="curve" smooth="yes"/>
      <point x="316" y="497"/>
      <point x="323" y="496"/>
      <point x="330" y="495" type="curve"/>
      <point x="320" y="519"/>
      <point x="308" y="545"/>
      <point x="300" y="563" type="curve"/>
      <point x="159" y="507" type="line"/>
      <point x="134" y="567" type="line"/>
      <point x="265" y="617" type="line"/>
      <point x="233" y="662" type="line"/>
      <point x="154" y="682" type="line"/>
      <point x="158" y="716" type="line"/>
      <point x="324" y="740" type="line"/>
      <point x="379" y="662" type="line"/>
      <point x="500" y="709" type="line"/>
    </contour>
    <contour>
      <point x="370" y="292" type="curve" smooth="yes"/>
      <point x="370" y="354"/>
      <point x="363" y="393"/>
      <point x="350" y="433" type="curve"/>
      <point x="343" y="439"/>
      <point x="336" y="445"/>
      <point x="321" y="445" type="curve" smooth="yes"/>
      <point x="228" y="445"/>
      <point x="174" y="303"/>
      <point x="174" y="186" type="curve" smooth="yes"/>
      <point x="174" y="78"/>
      <point x="225" y="43"/>
      <point x="243" y="43" type="curve" smooth="yes"/>
      <point x="313" y="43"/>
      <point x="370" y="170"/>
    </contour>
  </outline>
</glyph>
<glyph name="dcroat" format="1">
  <advance width="565"/>
  <unicode hex="0111"/>
  <outline>
    <contour>
      <point x="636" y="600" type="line"/>
      <point x="624" y="534" type="line"/>
      <point x="534" y="534" type="line"/>
      <point x="455" y="90" type="line" smooth="yes"/>
      <point x="449" y="57"/>
      <point x="463" y="49"/>
      <point x="471" y="49" type="curve" smooth="yes"/>
      <point x="499" y="49"/>
      <point x="542" y="68"/>
      <point x="564" y="79" type="curve"/>
      <point x="564" y="30" type="line"/>
      <point x="530" y="10"/>
      <point x="464" y="-12"/>
      <point x="412" y="-12" type="curve" smooth="yes"/>
      <point x="362" y="-12"/>
      <point x="333" y="6"/>
      <point x="322" y="36" type="curve"/>
      <point x="286" y="9"/>
      <point x="239" y="-12"/>
      <point x="196" y="-12" type="curve" smooth="yes"/>
      <point x="80" y="-12"/>
      <point x="32" y="83"/>
      <point x="32" y="169" type="curve" smooth="yes"/>
      <point x="32" y="322"/>
      <point x="133" y="500"/>
      <point x="335" y="500" type="curve" smooth="yes"/>
      <point x="360" y="500"/>
      <point x="380" y="492"/>
      <point x="393" y="488" type="curve"/>
      <point x="401" y="534" type="line"/>
      <point x="251" y="534" type="line"/>
      <point x="264" y="600" type="line"/>
      <point x="413" y="600" type="line"/>
      <point x="423" y="661" type="line"/>
      <point x="333" y="669" type="line"/>
      <point x="333" y="705" type="line"/>
      <point x="502" y="737" type="line"/>
      <point x="570" y="737" type="line"/>
      <point x="546" y="600" type="line"/>
    </contour>
    <contour>
      <point x="376" y="394" type="line" smooth="yes"/>
      <point x="377" y="399"/>
      <point x="357" y="443"/>
      <point x="333" y="443" type="curve" smooth="yes"/>
      <point x="263" y="443"/>
      <point x="170" y="334"/>
      <point x="170" y="175" type="curve" smooth="yes"/>
      <point x="170" y="94"/>
      <point x="190" y="59"/>
      <point x="227" y="59" type="curve" smooth="yes"/>
      <point x="261" y="59"/>
      <point x="296" y="96"/>
      <point x="330" y="135" type="curve"/>
    </contour>
  </outline>
</glyph>
<glyph name="Gcedilla" format="1">
  <advance width="729"/>
  <unicode hex="0122"/>
  <outline>
    <contour>
      <point x="717" y="279" type="line"/>
      <point x="649" y="274" type="line" smooth="yes"/>
      <point x="640" y="273"/>
      <point x="637" y="268"/>
      <point x="635" y="259" type="curve" smooth="yes"/>
      <point x="589" y="26" type="line"/>
      <point x="533" y="10"/>
      <point x="438" y="-16"/>
      <point x="353" y="-16" type="curve" smooth="yes"/>
      <point x="98" y="-16"/>
      <point x="48" y="163"/>
      <point x="48" y="269" type="curve" smooth="yes"/>
      <point x="48" y="518"/>
      <point x="259" y="687"/>
      <point x="500" y="687" type="curve" smooth="yes"/>
      <point x="576" y="687"/>
      <point x="626" y="675"/>
      <point x="707" y="650" type="curve"/>
      <point x="670" y="468" type="line"/>
      <point x="585" y="468" type="line"/>
      <point x="594" y="581" type="line" smooth="yes"/>
      <point x="595" y="593"/>
      <point x="582" y="599"/>
      <point x="568" y="604" type="curve" smooth="yes"/>
      <point x="555" y="608"/>
      <point x="519" y="623"/>
      <point x="488" y="623" type="curve" smooth="yes"/>
      <point x="365" y="623"/>
      <point x="200" y="485"/>
      <point x="200" y="254" type="curve" smooth="yes"/>
      <point x="200" y="92"/>
      <point x="327" y="47"/>
      <point x="373" y="47" type="curve" smooth="yes"/>
      <point x="399" y="47"/>
      <point x="435" y="56"/>
      <point x="453" y="61" type="curve"/>
      <point x="492" y="259" type="line" smooth="yes"/>
      <point x="494" y="271"/>
      <point x="489" y="274"/>
      <point x="473" y="275" type="curve" smooth="yes"/>
      <point x="473" y="275"/>
      <point x="444" y="277"/>
      <point x="417" y="279" type="curve"/>
      <point x="417" y="330" type="line"/>
      <point x="717" y="330" type="line"/>
    </contour>
    <contour>
      <point x="396" y="-128" type="curve" smooth="yes"/>
      <point x="396" y="-212"/>
      <point x="297" y="-264"/>
      <point x="226" y="-277" type="curve"/>
      <point x="234" y="-237" type="line"/>
      <point x="268" y="-228"/>
      <point x="312" y="-200"/>
      <point x="320" y="-163" type="curve"/>
      <point x="257" y="-163" type="line"/>
      <point x="248" y="-154"/>
      <point x="244" y="-143"/>
      <point x="244" y="-131" type="curve" smooth="yes"/>
      <point x="244" y="-87"/>
      <point x="284" y="-61"/>
      <point x="324" y="-61" type="curve" smooth="yes"/>
      <point x="365" y="-61"/>
      <point x="396" y="-86"/>
    </contour>
  </outline>
</glyph>
<glyph name="lslash" format="1">
  <advance width="315"/>
  <unicode hex="0142"/>
  <outline>
    <contour>
      <point x="378" y="450" type="line"/>
      <point x="240" y="380" type="line"/>
      <point x="186" y="102" type="line" smooth="yes"/>
      <point x="182" y="79"/>
      <point x="187" y="53"/>
      <point x="211" y="53" type="curve" smooth="yes"/>
      <point x="228" y="53"/>
      <point x="267" y="62"/>
      <point x="313" y="83" type="curve"/>
      <point x="313" y="29" type="line"/>
      <point x="266" y="4"/>
      <point x="206" y="-12"/>
      <point x="154" y="-12" type="curve" smooth="yes"/>
      <point x="88" y="-12"/>
      <point x="49" y="18"/>
      <point x="49" y="64" type="curve" smooth="yes"/>
      <point x="49" y="75"/>
      <point x="50" y="87"/>
      <point x="53" y="100" type="curve" smooth="yes"/>
      <point x="93" y="305" type="line"/>
      <point x="21" y="269" type="line"/>
      <point x="-10" y="332" type="line"/>
      <point x="109" y="393" type="line"/>
      <point x="162" y="661" type="line"/>
      <point x="74" y="669" type="line"/>
      <point x="74" y="705" type="line"/>
      <point x="243" y="737" type="line"/>
      <point x="309" y="737" type="line"/>
      <point x="257" y="467" type="line"/>
      <point x="347" y="513" type="line"/>
    </contour>
  </outline>
</glyph>
<glyph name="eng" format="1">
  <advance width="562"/>
  <unicode hex="014B"/>
  <outline>
    <contour>
      <point x="522" y="411" type="curve" smooth="yes"/>
      <point x="522" y="398"/>
      <point x="521" y="384"/>
      <point x="518" y="369" type="curve" smooth="yes"/>
      <point x="447" y="-7" type="line" smooth="yes"/>
      <point x="426" y="-119"/>
      <point x="327" y="-232"/>
      <point x="181" y="-232" type="curve" smooth="yes"/>
      <point x="120" y="-232"/>
      <point x="84" y="-205"/>
      <point x="84" y="-175" type="curve" smooth="yes"/>
      <point x="84" y="-128"/>
      <point x="142" y="-109"/>
      <point x="167" y="-102" type="curve"/>
      <point x="242" y="-157" type="line"/>
      <point x="273" y="-135"/>
      <point x="288" y="-90"/>
      <point x="305" y="-4" type="curve" smooth="yes"/>
      <point x="378" y="356" type="line" smooth="yes"/>
      <point x="388" y="405"/>
      <point x="375" y="421"/>
      <point x="354" y="421" type="curve" smooth="yes"/>
      <point x="322" y="421"/>
      <point x="269" y="382"/>
      <point x="228" y="339" type="curve"/>
      <point x="157" y="0" type="line"/>
      <point x="23" y="0" type="line"/>
      <point x="111" y="425" type="line"/>
      <point x="27" y="433" type="line"/>
      <point x="27" y="467" type="line"/>
      <point x="192" y="500" type="line"/>
      <point x="260" y="500" type="line"/>
      <point x="248" y="442" type="line"/>
      <point x="298" y="475"/>
      <point x="358" y="500"/>
      <point x="409" y="500" type="curve" smooth="yes"/>
      <point x="491" y="500"/>
      <point x="522" y="469"/>
    </contour>
  </outline>
</glyph>
<glyph name="Ohungarumlaut" format="1">
  <advance width="751"/>
  <unicode hex="0150"/>
  <outline>
    <contour>
      <point x="733" y="417" type="curve" smooth="yes"/>
      <point x="733" y="212"/>
      <point x="603" y="-16"/>
      <point x="341" y="-16" type="curve" smooth="yes"/>
      <point x="155" y="-16"/>
      <point x="48" y="101"/>
      <point x="48" y="263" type="curve" smooth="yes"/>
      <point x="48" y="471"/>
      <point x="194" y="687"/>
      <point x="441" y="687" type="curve" smooth="yes"/>
      <point x="634" y="687"/>
      <point x="733" y="559"/>
    </contour>
    <contour>
      <point x="577" y="417" type="curve" smooth="yes"/>
      <point x="577" y="551"/>
      <point x="501" y="627"/>
      <point x="432" y="627" type="curve" smooth="yes"/>
      <point x="313" y="627"/>
      <point x="203" y="435"/>
      <point x="203" y="255" type="curve" smooth="yes"/>
      <point x="203" y="117"/>
      <point x="282" y="46"/>
      <point x="348" y="46" type="curve" smooth="yes"/>
      <point x="466" y="46"/>
      <point x="577" y="243"/>
    </contour>
    <contour>
      <point x="774" y="876" type="curve" smooth="yes"/>
      <point x="774" y="863"/>
      <point x="763" y="842"/>
      <point x="749" y="834" type="curve" smooth="yes"/>
      <point x="587" y="746" type="line"/>
      <point x="517" y="746" type="line"/>
      <point x="654" y="897" type="line" smooth="yes"/>
      <point x="676" y="922"/>
      <point x="690" y="929"/>
      <point x="717" y="929" type="curve" smooth="yes"/>
      <point x="760" y="929"/>
      <point x="774" y="900"/>
    </contour>
    <contour>
      <point x="545" y="876" type="curve" smooth="yes"/>
      <point x="545" y="863"/>
      <point x="534" y="842"/>
      <point x="520" y="834" type="curve" smooth="yes"/>
      <point x="358" y="746" type="line"/>
      <point x="288" y="746" type="line"/>
      <point x="425" y="897" type="line" smooth="yes"/>
      <point x="447" y="922"/>
      <point x="461" y="929"/>
      <point x="488" y="929" type="curve" smooth="yes"/>
      <point x="531" y="929"/>
      <point x="545" y="900"/>
    </contour>
  </outline>
</glyph>
<glyph name="Scedilla" format="1">
  <advance width="562"/>
  <unicode hex="015E"/>
  <outline>
    <contour>
      <point x="556" y="647" type="curve"/>
      <point x="522" y="491" type="line"/>
      <point x="446" y="491" type="line"/>
      <point x="450" y="595" type="line" smooth="yes"/>
      <point x="450" y="602"/>
      <point x="394" y="628"/>
      <point x="357" y="628" type="curve" smooth="yes"/>
      <point x="305" y="628"/>
      <point x="228" y="580"/>
      <point x="228" y="499" type="curve" smooth="yes"/>
      <point x="228" y="429"/>
      <point x="315" y="396"/>
      <point x="367" y="371" type="curve" smooth="yes"/>
      <point x="439" y="335"/>
      <point x="509" y="294"/>
      <point x="509" y="207" type="curve" smooth="yes"/>
      <point x="509" y="116"/>
      <point x="439" y="-16"/>
      <point x="208" y="-16" type="curve" smooth="yes"/>
      <point x="98" y="-16"/>
      <point x="13" y="29"/>
      <point x="-5" y="40" type="curve"/>
      <point x="30" y="204" type="line"/>
      <point x="115" y="204" type="line"/>
      <point x="104" y="85" type="line" smooth="yes"/>
      <point x="103" y="77"/>
      <point x="188" y="46"/>
      <point x="222" y="46" type="curve" smooth="yes"/>
      <point x="282" y="46"/>
      <point x="363" y="92"/>
      <point x="363" y="185" type="curve" smooth="yes"/>
      <point x="363" y="250"/>
      <point x="273" y="285"/>
      <point x="224" y="310" type="curve" smooth="yes"/>
      <point x="153" y="346"/>
      <point x="84" y="386"/>
      <point x="84" y="466" type="curve" smooth="yes"/>
      <point x="84" y="594"/>
      <point x="190" y="687"/>
      <point x="365" y="687" type="curve" smooth="yes"/>
      <point x="455" y="687"/>
      <point x="516" y="665"/>
    </contour>
    <contour>
      <point x="334" y="-113" type="curve" smooth="yes"/>
      <point x="334" y="-191"/>
      <point x="259" y="-231"/>
      <point x="189" y="-231" type="curve" smooth="yes"/>
      <point x="148" y="-231"/>
      <point x="110" y="-220"/>
      <point x="110" y="-220" type="curve"/>
      <point x="120" y="-170" type="line"/>
      <point x="120" y="-170"/>
      <point x="157" y="-178"/>
      <point x="182" y="-178" type="curve" smooth="yes"/>
      <point x="208" y="-178"/>
      <point x="247" y="-171"/>
      <point x="247" y="-137" type="curve" smooth="yes"/>
      <point x="247" y="-118"/>
      <point x="230" y="-110"/>
      <point x="210" y="-110" type="curve" smooth="yes"/>
      <point x="203" y="-110"/>
      <point x="187" y="-112"/>
      <point x="187" y="-112" type="curve"/>
      <point x="214" y="24" type="line"/>
      <point x="265" y="24" type="line"/>
      <point x="249" y="-54" type="line"/>
      <point x="249" y="-54"/>
      <point x="253" y="-55"/>
      <point x="263" y="-55" type="curve" smooth="yes"/>
      <point x="303" y="-55"/>
      <point x="334" y="-73"/>
    </contour>
  </outline>
</glyph>
<glyph name="uni0163" format="1">
  <advance width="344"/>
  <unicode hex="0163"/>
  <outline>
    <contour>
      <point x="393" y="418" type="line"/>
      <point x="244" y="418" type="line"/>
      <point x="181" y="109" type="line" smooth="yes"/>
      <point x="174" y="78"/>
      <point x="189" y="57"/>
      <point x="220" y="57" type="curve" smooth="yes"/>
      <point x="251" y="57"/>
      <point x="313" y="81"/>
      <point x="345" y="92" type="curve"/>
      <point x="345" y="37" type="line"/>
      <point x="323" y="27"/>
      <point x="223" y="-12"/>
      <point x="160" y="-12" type="curve" smooth="yes"/>
      <point x="83" y="-12"/>
      <point x="46" y="26"/>
      <point x="46" y="78" type="curve" smooth="yes"/>
      <point x="46" y="91"/>
      <point x="47" y="104"/>
      <point x="50" y="118" type="curve" smooth="yes"/>
      <point x="111" y="416" type="line"/>
      <point x="39" y="408" type="line"/>
      <point x="39" y="449" type="line"/>
      <point x="124" y="483" type="line"/>
      <point x="175" y="586" type="line"/>
      <point x="275" y="586" type="line"/>
      <point x="254" y="473" type="line"/>
      <point x="393" y="473" type="line"/>
    </contour>
    <contour>
      <point x="242" y="-113" type="curve" smooth="yes"/>
      <point x="242" y="-191"/>
      <point x="167" y="-231"/>
      <point x="97" y="-231" type="curve" smooth="yes"/>
      <point x="56" y="-231"/>
      <point x="18" y="-220"/>
      <point x="18" y="-220" type="curve"/>
      <point x="28" y="-170" type="line"/>
      <point x="28" y="-170"/>
      <point x="65" y="-178"/>
      <point x="90" y="-178" type="curve" smooth="yes"/>
      <point x="116" y="-178"/>
      <point x="155" y="-171"/>
      <point x="155" y="-137" type="curve" smooth="yes"/>
      <point x="155" y="-118"/>
      <point x="138" y="-110"/>
      <point x="118" y="-110" type="curve" smooth="yes"/>
      <point x="111" y="-110"/>
      <point x="95" y="-112"/>
      <point x="95" y="-112" type="curve"/>
      <point x="122" y="24" type="line"/>
      <point x="173" y="24" type="line"/>
      <point x="157" y="-54" type="line"/>
      <point x="157" y="-54"/>
      <point x="161" y="-55"/>
      <point x="171" y="-55" type="curve" smooth="yes"/>
      <point x="211" y="-55"/>
      <point x="242" y="-73"/>
    </contour>
  </outline>
</glyph>
<glyph name="Ubreve" format="1">
  <advance width="749"/>
  <unicode hex="016C"/>
  <outline>
    <contour>
      <point x="791" y="621" type="line"/>
      <point x="725" y="616" type="line" smooth="yes"/>
      <point x="716" y="615"/>
      <point x="711" y="609"/>
      <point x="709" y="600" type="curve" smooth="yes"/>
      <point x="632" y="215" type="line" smooth="yes"/>
      <point x="605" y="76"/>
      <point x="516" y="-16"/>
      <point x="332" y="-16" type="curve" smooth="yes"/>
      <point x="184" y="-16"/>
      <point x="92" y="38"/>
      <point x="92" y="162" type="curve" smooth="yes"/>
      <point x="92" y="181"/>
      <point x="96" y="220"/>
      <point x="105" y="265" type="curve" smooth="yes"/>
      <point x="175" y="601" type="line" smooth="yes"/>
      <point x="177" y="613"/>
      <point x="169" y="615"/>
      <point x="155" y="616" type="curve" smooth="yes"/>
      <point x="155" y="616"/>
      <point x="126" y="618"/>
      <point x="99" y="621" type="curve"/>
      <point x="99" y="671" type="line"/>
      <point x="401" y="671" type="line"/>
      <point x="401" y="621" type="line"/>
      <point x="370" y="618"/>
      <point x="339" y="616"/>
      <point x="339" y="616" type="curve" smooth="yes"/>
      <point x="327" y="615"/>
      <point x="320" y="612"/>
      <point x="318" y="600" type="curve" smooth="yes"/>
      <point x="249" y="265" type="line" smooth="yes"/>
      <point x="241" y="227"/>
      <point x="238" y="195"/>
      <point x="238" y="177" type="curve" smooth="yes"/>
      <point x="238" y="92"/>
      <point x="298" y="59"/>
      <point x="358" y="59" type="curve" smooth="yes"/>
      <point x="462" y="59"/>
      <point x="507" y="140"/>
      <point x="529" y="250" type="curve" smooth="yes"/>
      <point x="599" y="601" type="line" smooth="yes"/>
      <point x="601" y="613"/>
      <point x="596" y="615"/>
      <point x="580" y="616" type="curve" smooth="yes"/>
      <point x="580" y="616"/>
      <point x="550" y="618"/>
      <point x="523" y="621" type="curve"/>
      <point x="523" y="671" type="line"/>
      <point x="791" y="671" type="line"/>
    </contour>
    <contour>
      <point x="653" y="909" type="line"/>
      <point x="635" y="814"/>
      <point x="564" y="746"/>
      <point x="465" y="746" type="curve" smooth="yes"/>
      <point x="387" y="746"/>
      <point x="336" y="788"/>
      <point x="336" y="867" type="curve" smooth="yes"/>
      <point x="336" y="881"/>
      <point x="338" y="895"/>
      <point x="341" y="909" type="curve"/>
      <point x="393" y="909" type="line"/>
      <point x="394" y="855"/>
      <point x="429" y="827"/>
      <point x="481" y="827" type="curve" smooth="yes"/>
      <point x="536" y="827"/>
      <point x="580" y="858"/>
      <point x="601" y="909" type="curve"/>
    </contour>
  </outline>
</glyph>
<glyph name="Uring" format="1">
  <advance width="749"/>
  <unicode hex="016E"/>
  <outline>
    <contour>
      <point x="791" y="621" type="line"/>
      <point x="725" y="616" type="line" smooth="yes"/>
      <point x="716" y="615"/>
      <point x="711" y="609"/>
      <point x="709" y="600" type="curve" smooth="yes"/>
      <point x="632" y="215" type="line" smooth="yes"/>
      <point x="605" y="76"/>
      <point x="516" y="-16"/>
      <point x="332" y="-16" type="curve" smooth="yes"/>
      <point x="184" y="-16"/>
      <point x="92" y="38"/>
      <point x="92" y="162" type="curve" smooth="yes"/>
      <point x="92" y="181"/>
      <point x="96" y="220"/>
      <point x="105" y="265" type="curve" smooth="yes"/>
      <point x="175" y="601" type="line" smooth="yes"/>
      <point x="177" y="613"/>
      <point x="169" y="615"/>
      <point x="155" y="616" type="curve" smooth="yes"/>
      <point x="155" y="616"/>
      <point x="126" y="618"/>
      <point x="99" y="621" type="curve"/>
      <point x="99" y="671" type="line"/>
      <point x="401" y="671" type="line"/>
      <point x="401" y="621" type="line"/>
      <point x="370" y="618"/>
      <point x="339" y="616"/>
      <point x="339" y="616" type="curve" smooth="yes"/>
      <point x="327" y="615"/>
      <point x="320" y="612"/>
      <point x="318" y="600" type="curve" smooth="yes"/>
      <point x="249" y="265" type="line" smooth="yes"/>
      <point x="241" y="227"/>
      <point x="238" y="195"/>
      <point x="238" y="177" type="curve" smooth="yes"/>
      <point x="238" y="92"/>
      <point x="298" y="59"/>
      <point x="358" y="59" type="curve" smooth="yes"/>
      <point x="462" y="59"/>
      <point x="507" y="140"/>
      <point x="529" y="250" type="curve" smooth="yes"/>
      <point x="599" y="601" type="line" smooth="yes"/>
      <point x="601" y="613"/>
      <point x="596" y="615"/>
      <point x="580" y="616" type="curve" smooth="yes"/>
      <point x="580" y="616"/>
      <point x="550" y="618"/>
      <point x="523" y="621" type="curve"/>
      <point x="523" y="671" type="line"/>
      <point x="791" y="671" type="line"/>
    </contour>
    <contour>
      <point x="625" y="897" type="curve" smooth="yes"/>
      <point x="625" y="817"/>
      <point x="551" y="746"/>
      <point x="473" y="746" type="curve" smooth="yes"/>
      <point x="414" y="746"/>
      <point x="369" y="787"/>
      <point x="369" y="847" type="curve" smooth="yes"/>
      <point x="369" y="927"/>
      <point x="443" y="999"/>
      <point x="522" y="999" type="curve" smooth="yes"/>
      <point x="581" y="999"/>
      <point x="625" y="956"/>
    </contour>
    <contour>
      <point x="562" y="884" type="curve" smooth="yes"/>
      <point x="562" y="914"/>
      <point x="540" y="936"/>
      <point x="510" y="936" type="curve" smooth="yes"/>
      <point x="471" y="936"/>
      <point x="433" y="899"/>
      <point x="433" y="860" type="curve" smooth="yes"/>
      <point x="433" y="830"/>
      <point x="455" y="809"/>
      <point x="484" y="809" type="curve" smooth="yes"/>
      <point x="524" y="809"/>
      <point x="562" y="845"/>
    </contour>
  </outline>
</glyph>
<glyph name="uogonek" format="1">
  <advance width="574"/>
  <unicode hex="0173"/>
  <outline>
    <contour>
      <point x="572" y="28" type="line"/>
      <point x="545" y="13"/>
      <point x="471" y="-12"/>
      <point x="414" y="-12" type="curve" smooth="yes"/>
      <point x="345" y="-12"/>
      <point x="332" y="21"/>
      <point x="329" y="35" type="curve"/>
      <point x="285" y="5"/>
      <point x="235" y="-12"/>
      <point x="170" y="-12" type="curve" smooth="yes"/>
      <point x="71" y="-12"/>
      <point x="35" y="63"/>
      <point x="47" y="117" type="curve" smooth="yes"/>
      <point x="112" y="424" type="line"/>
      <point x="28" y="433" type="line"/>
      <point x="28" y="467" type="line"/>
      <point x="193" y="500" type="line"/>
      <point x="262" y="500" type="line"/>
      <point x="180" y="117" type="line" smooth="yes"/>
      <point x="174" y="86"/>
      <point x="188" y="58"/>
      <point x="213" y="58" type="curve" smooth="yes"/>
      <point x="258" y="58"/>
      <point x="297" y="85"/>
      <point x="333" y="118" type="curve"/>
      <point x="411" y="488" type="line"/>
      <point x="544" y="488" type="line"/>
      <point x="462" y="100" type="line" smooth="yes"/>
      <point x="454" y="63"/>
      <point x="467" y="48"/>
      <point x="488" y="48" type="curve" smooth="yes"/>
      <point x="498" y="48"/>
      <point x="511" y="52"/>
      <point x="572" y="84" type="curve"/>
    </contour>
    <contour>
      <point x="506" y="-177" type="line"/>
      <point x="481" y="-188"/>
      <point x="431" y="-208"/>
      <point x="405" y="-208" type="curve" smooth="yes"/>
      <point x="362" y="-208"/>
      <point x="310" y="-191"/>
      <point x="310" y="-140" type="curve" smooth="yes"/>
      <point x="310" y="-81"/>
      <point x="370" y="-28"/>
      <point x="417" y="1" type="curve"/>
      <point x="480" y="1" type="line"/>
      <point x="443" y="-23"/>
      <point x="395" y="-63"/>
      <point x="395" y="-111" type="curve" smooth="yes"/>
      <point x="395" y="-136"/>
      <point x="413" y="-150"/>
      <point x="437" y="-150" type="curve" smooth="yes"/>
      <point x="450" y="-150"/>
      <point x="474" y="-133"/>
      <point x="486" y="-125" type="curve"/>
    </contour>
  </outline>
</glyph>
<glyph name="zacute" format="1">
  <advance width="491"/>
  <unicode hex="017A"/>
  <outline>
    <contour>
      <point x="498" y="470" type="line"/>
      <point x="168" y="92" type="line"/>
      <point x="231" y="105" type="line"/>
      <point x="267" y="86"/>
      <point x="287" y="73"/>
      <point x="310" y="73" type="curve" smooth="yes"/>
      <point x="324" y="73"/>
      <point x="365" y="87"/>
      <point x="374" y="102" type="curve"/>
      <point x="314" y="166" type="line"/>
      <point x="321" y="176"/>
      <point x="358" y="204"/>
      <point x="391" y="204" type="curve" smooth="yes"/>
      <point x="434" y="204"/>
      <point x="453" y="157"/>
      <point x="453" y="130" type="curve" smooth="yes"/>
      <point x="453" y="66"/>
      <point x="373" y="-11"/>
      <point x="280" y="-11" type="curve" smooth="yes"/>
      <point x="212" y="-11"/>
      <point x="156" y="31"/>
      <point x="143" y="31" type="curve" smooth="yes"/>
      <point x="134" y="31"/>
      <point x="126" y="31"/>
      <point x="122" y="25" type="curve" smooth="yes"/>
      <point x="85" y="-39" type="line"/>
      <point x="-16" y="16" type="line"/>
      <point x="314" y="396" type="line"/>
      <point x="251" y="383" type="line"/>
      <point x="216" y="402"/>
      <point x="196" y="415"/>
      <point x="173" y="415" type="curve" smooth="yes"/>
      <point x="159" y="415"/>
      <point x="118" y="401"/>
      <point x="109" y="386" type="curve"/>
      <point x="168" y="323" type="line"/>
      <point x="162" y="312"/>
      <point x="125" y="284"/>
      <point x="92" y="284" type="curve" smooth="yes"/>
      <point x="49" y="284"/>
      <point x="30" y="331"/>
      <point x="30" y="358" type="curve" smooth="yes"/>
      <point x="30" y="422"/>
      <point x="110" y="500"/>
      <point x="203" y="500" type="curve" smooth="yes"/>
      <point x="271" y="500"/>
      <point x="327" y="457"/>
      <point x="340" y="457" type="curve" smooth="yes"/>
      <point x="349" y="457"/>
      <point x="356" y="458"/>
      <point x="361" y="463" type="curve" smooth="yes"/>
      <point x="388" y="526" type="line"/>
    </contour>
    <contour>
      <point x="462" y="681" type="curve" smooth="yes"/>
      <point x="462" y="668"/>
      <point x="451" y="647"/>
      <point x="436" y="639" type="curve" smooth="yes"/>
      <point x="275" y="551" type="line"/>
      <point x="205" y="551" type="line"/>
      <point x="342" y="702" type="line" smooth="yes"/>
      <point x="364" y="727"/>
      <point x="378" y="734"/>
      <point x="405" y="734" type="curve" smooth="yes"/>
      <point x="448" y="734"/>
      <point x="462" y="705"/>
    </contour>
  </outline>
</glyph>
<glyph name="uni0185" format="1">
  <advance width="532"/>
  <unicode hex="0185"/>
  <outline>
    <contour>
      <point x="501" y="311" type="curve" smooth="yes"/>
      <point x="501" y="192"/>
      <point x="428" y="-12"/>
      <point x="199" y="-12" type="curve" smooth="yes"/>
      <point x="127" y="-12"/>
      <point x="66" y="7"/>
      <point x="18" y="38" type="curve"/>
      <point x="95" y="451" type="line"/>
      <point x="1" y="528" type="line"/>
      <point x="289" y="759" type="line"/>
      <point x="232" y="468" type="line"/>
      <point x="268" y="487"/>
      <point x="308" y="500"/>
      <point x="343" y="500" type="curve" smooth="yes"/>
      <point x="450" y="500"/>
      <point x="501" y="395"/>
    </contour>
    <contour>
      <point x="362" y="307" type="curve" smooth="yes"/>
      <point x="362" y="391"/>
      <point x="333" y="424"/>
      <point x="310" y="424" type="curve" smooth="yes"/>
      <point x="282" y="424"/>
      <point x="245" y="404"/>
      <point x="215" y="378" type="curve"/>
      <point x="159" y="79" type="line"/>
      <point x="170" y="62"/>
      <point x="189" y="44"/>
      <point x="220" y="44" type="curve" smooth="yes"/>
      <point x="286" y="44"/>
      <point x="362" y="183"/>
    </contour>
  </outline>
</glyph>
<glyph name="uni018F" format="1">
  <advance width="643"/>
  <unicode hex="018F"/>
  <outline>
    <contour>
      <point x="625" y="429" type="curve" smooth="yes"/>
      <point x="625" y="210"/>
      <point x="512" y="-16"/>
      <point x="233" y="-16" type="curve" smooth="yes"/>
      <point x="73" y="-16"/>
      <point x="21" y="96"/>
      <point x="21" y="135" type="curve" smooth="yes"/>
      <point x="21" y="287"/>
      <point x="150" y="378"/>
      <point x="471" y="383" type="curve"/>
      <point x="472" y="396"/>
      <point x="473" y="409"/>
      <point x="473" y="423" type="curve" smooth="yes"/>
      <point x="473" y="530"/>
      <point x="406" y="621"/>
      <point x="338" y="621" type="curve" smooth="yes"/>
      <point x="254" y="621"/>
      <point x="151" y="551"/>
      <point x="83" y="478" type="curve"/>
      <point x="83" y="588" type="line"/>
      <point x="165" y="660"/>
      <point x="237" y="687"/>
      <point x="366" y="687" type="curve" smooth="yes"/>
      <point x="466" y="687"/>
      <point x="625" y="614"/>
    </contour>
    <contour>
      <point x="461" y="316" type="curve"/>
      <point x="260" y="310"/>
      <point x="184" y="233"/>
      <point x="184" y="134" type="curve" smooth="yes"/>
      <point x="184" y="96"/>
      <point x="214" y="46"/>
      <point x="253" y="46" type="curve" smooth="yes"/>
      <point x="334" y="46"/>
      <point x="423" y="166"/>
    </contour>
  </outline>
</glyph>
<glyph name="uni0194" format="1">
  <advance width="695"/>
  <unicode hex="0194"/>
  <outline>
    <contour>
      <point x="761" y="620" type="line"/>
      <point x="692" y="612" type="line"/>
      <point x="408" y="271" type="line"/>
      <point x="422" y="230"/>
      <point x="456" y="165"/>
      <point x="456" y="121" type="curve" smooth="yes"/>
      <point x="456" y="30"/>
      <point x="372" y="-16"/>
      <point x="289" y="-16" type="curve" smooth="yes"/>
      <point x="242" y="-16"/>
      <point x="169" y="-2"/>
      <point x="169" y="60" type="curve" smooth="yes"/>
      <point x="169" y="126"/>
      <point x="235" y="190"/>
      <point x="272" y="233" type="curve"/>
      <point x="143" y="611" type="line"/>
      <point x="80" y="620" type="line"/>
      <point x="80" y="671" type="line"/>
      <point x="375" y="671" type="line"/>
      <point x="375" y="620" type="line"/>
      <point x="313" y="614" type="line" smooth="yes"/>
      <point x="301" y="613"/>
      <point x="290" y="604"/>
      <point x="296" y="584" type="curve" smooth="yes"/>
      <point x="296" y="584"/>
      <point x="374" y="365"/>
      <point x="381" y="346" type="curve"/>
      <point x="402" y="370"/>
      <point x="582" y="586"/>
      <point x="582" y="586" type="curve" smooth="yes"/>
      <point x="593" y="600"/>
      <point x="586" y="613"/>
      <point x="564" y="616" type="curve" smooth="yes"/>
      <point x="523" y="620" type="line"/>
      <point x="523" y="671" type="line"/>
      <point x="761" y="671" type="line"/>
    </contour>
    <contour>
      <point x="320" y="87" type="curve" smooth="yes"/>
      <point x="320" y="105"/>
      <point x="305" y="139"/>
      <point x="299" y="154" type="curve"/>
      <point x="279" y="131"/>
      <point x="251" y="99"/>
      <point x="251" y="65" type="curve" smooth="yes"/>
      <point x="251" y="47"/>
      <point x="269" y="40"/>
      <point x="285" y="40" type="curve" smooth="yes"/>
      <point x="311" y="40"/>
      <point x="320" y="63"/>
    </contour>
  </outline>
</glyph>
<glyph name="uni0198" format="1">
  <advance width="698"/>
  <unicode hex="0198"/>
  <outline>
    <contour>
      <point x="785" y="582" type="curve" smooth="yes"/>
      <point x="785" y="548"/>
      <point x="753" y="503"/>
      <point x="713" y="502" type="curve" smooth="yes"/>
      <point x="679" y="501"/>
      <point x="672" y="513"/>
      <point x="660" y="520" type="curve"/>
      <point x="660" y="623" type="line"/>
      <point x="656" y="627"/>
      <point x="645" y="631"/>
      <point x="636" y="631" type="curve" smooth="yes"/>
      <point x="622" y="631"/>
      <point x="611" y="620"/>
      <point x="596" y="603" type="curve" smooth="yes"/>
      <point x="388" y="367" type="line"/>
      <point x="527" y="103" type="line" smooth="yes"/>
      <point x="550" y="59"/>
      <point x="554" y="50"/>
      <point x="585" y="49" type="curve" smooth="yes"/>
      <point x="595" y="49"/>
      <point x="645" y="53"/>
      <point x="648" y="53" type="curve" smooth="yes"/>
      <point x="648" y="3" type="line"/>
      <point x="612" y="-8"/>
      <point x="570" y="-16"/>
      <point x="533" y="-16" type="curve" smooth="yes"/>
      <point x="452" y="-16"/>
      <point x="425" y="7"/>
      <point x="396" y="62" type="curve" smooth="yes"/>
      <point x="276" y="291" type="line"/>
      <point x="253" y="291" type="line"/>
      <point x="209" y="70" type="line" smooth="yes"/>
      <point x="207" y="57"/>
      <point x="214" y="55"/>
      <point x="225" y="54" type="curve" smooth="yes"/>
      <point x="225" y="54"/>
      <point x="253" y="52"/>
      <point x="277" y="50" type="curve"/>
      <point x="277" y="0" type="line"/>
      <point x="-16" y="0" type="line"/>
      <point x="-16" y="50" type="line"/>
      <point x="10" y="52"/>
      <point x="47" y="54"/>
      <point x="47" y="54" type="curve" smooth="yes"/>
      <point x="57" y="54"/>
      <point x="64" y="58"/>
      <point x="66" y="71" type="curve" smooth="yes"/>
      <point x="171" y="601" type="line" smooth="yes"/>
      <point x="174" y="613"/>
      <point x="168" y="616"/>
      <point x="158" y="617" type="curve" smooth="yes"/>
      <point x="158" y="617"/>
      <point x="131" y="618"/>
      <point x="105" y="621" type="curve"/>
      <point x="105" y="671" type="line"/>
      <point x="388" y="671" type="line"/>
      <point x="388" y="621" type="line"/>
      <point x="361" y="618"/>
      <point x="333" y="617"/>
      <point x="333" y="617" type="curve" smooth="yes"/>
      <point x="323" y="616"/>
      <point x="317" y="613"/>
      <point x="314" y="600" type="curve" smooth="yes"/>
      <point x="271" y="383" type="line"/>
      <point x="279" y="383" type="line"/>
      <point x="491" y="630" type="line" smooth="yes"/>
      <point x="522" y="666"/>
      <point x="577" y="687"/>
      <point x="631" y="687" type="curve" smooth="yes"/>
      <point x="708" y="687"/>
      <point x="785" y="641"/>
    </contour>
  </outline>
</glyph>
<glyph name="uni0199" format="1">
  <advance width="549"/>
  <unicode hex="0199"/>
  <outline>
    <contour>
      <point x="538" y="26" type="line"/>
      <point x="505" y="9"/>
      <point x="440" y="-12"/>
      <point x="394" y="-12" type="curve" smooth="yes"/>
      <point x="358" y="-12"/>
      <point x="315" y="16"/>
      <point x="297" y="43" type="curve" smooth="yes"/>
      <point x="275" y="77"/>
      <point x="233" y="170"/>
      <point x="208" y="224" type="curve"/>
      <point x="187" y="205" type="line"/>
      <point x="145" y="0" type="line"/>
      <point x="12" y="0" type="line"/>
      <point x="111" y="486" type="line" smooth="yes"/>
      <point x="121" y="537"/>
      <point x="136" y="585"/>
      <point x="167" y="628" type="curve" smooth="yes"/>
      <point x="207" y="685"/>
      <point x="280" y="737"/>
      <point x="401" y="737" type="curve" smooth="yes"/>
      <point x="470" y="737"/>
      <point x="491" y="704"/>
      <point x="491" y="669" type="curve" smooth="yes"/>
      <point x="491" y="622"/>
      <point x="441" y="609"/>
      <point x="410" y="603" type="curve"/>
      <point x="361" y="668" type="line"/>
      <point x="310" y="668"/>
      <point x="270" y="613"/>
      <point x="253" y="532" type="curve" smooth="yes"/>
      <point x="211" y="326" type="line"/>
      <point x="323" y="441" type="line" smooth="yes"/>
      <point x="364" y="484"/>
      <point x="399" y="500"/>
      <point x="438" y="500" type="curve" smooth="yes"/>
      <point x="487" y="500"/>
      <point x="523" y="469"/>
      <point x="523" y="442" type="curve" smooth="yes"/>
      <point x="523" y="418"/>
      <point x="517" y="371"/>
      <point x="440" y="345" type="curve"/>
      <point x="400" y="410" type="line"/>
      <point x="368" y="383"/>
      <point x="325" y="338"/>
      <point x="300" y="316" type="curve"/>
      <point x="318" y="282"/>
      <point x="343" y="206"/>
      <point x="372" y="152" type="curve" smooth="yes"/>
      <point x="401" y="100"/>
      <point x="422" y="51"/>
      <point x="456" y="51" type="curve" smooth="yes"/>
      <point x="457" y="51"/>
      <point x="482" y="56"/>
      <point x="538" y="79" type="curve"/>
    </contour>
  </outline>
</glyph>
<glyph name="uni01A8" format="1">
  <advance width="418"/>
  <unicode hex="01A8"/>
  <outline>
    <contour>
      <point x="229" y="450" type="curve" smooth="yes"/>
      <point x="215" y="450"/>
      <point x="198" y="445"/>
      <point x="194" y="442" type="curve" smooth="yes"/>
      <point x="165" y="366" type="line"/>
      <point x="157" y="364"/>
      <point x="135" y="356"/>
      <point x="120" y="356" type="curve" smooth="yes"/>
      <point x="86" y="356"/>
      <point x="65" y="383"/>
      <point x="65" y="411" type="curve" smooth="yes"/>
      <point x="65" y="469"/>
      <point x="157" y="499"/>
      <point x="240" y="499" type="curve" smooth="yes"/>
      <point x="340" y="499"/>
      <point x="404" y="456"/>
      <point x="404" y="388" type="curve" smooth="yes"/>
      <point x="404" y="304"/>
      <point x="320" y="264"/>
      <point x="258" y="220" type="curve" smooth="yes"/>
      <point x="196" y="176"/>
      <point x="142" y="137"/>
      <point x="142" y="91" type="curve" smooth="yes"/>
      <point x="142" y="71"/>
      <point x="158" y="39"/>
      <point x="188" y="39" type="curve" smooth="yes"/>
      <point x="217" y="39"/>
      <point x="233" y="45"/>
      <point x="253" y="65" type="curve"/>
      <point x="271" y="135" type="line"/>
      <point x="277" y="139"/>
      <point x="306" y="146"/>
      <point x="330" y="146" type="curve" smooth="yes"/>
      <point x="354" y="146"/>
      <point x="379" y="127"/>
      <point x="379" y="94" type="curve" smooth="yes"/>
      <point x="379" y="30"/>
      <point x="283" y="-12"/>
      <point x="195" y="-12" type="curve" smooth="yes"/>
      <point x="91" y="-12"/>
      <point x="16" y="30"/>
      <point x="16" y="104" type="curve" smooth="yes"/>
      <point x="16" y="189"/>
      <point x="97" y="242"/>
      <point x="161" y="281" type="curve" smooth="yes"/>
      <point x="224" y="319"/>
      <point x="281" y="372"/>
      <point x="281" y="400" type="curve" smooth="yes"/>
      <point x="281" y="431"/>
      <point x="255" y="450"/>
    </contour>
  </outline>
</glyph>
<glyph name="uni01AA" format="1">
  <advance width="481"/>
  <unicode hex="01AA"/>
  <outline>
    <contour>
      <point x="526" y="-147" type="curve" smooth="yes"/>
      <point x="526" y="-193"/>
      <point x="469" y="-218"/>
      <point x="403" y="-218" type="curve" smooth="yes"/>
      <point x="274" y="-218"/>
      <point x="222" y="-139"/>
      <point x="222" y="-50" type="curve" smooth="yes"/>
      <point x="222" y="-35"/>
      <point x="224" y="-19"/>
      <point x="227" y="-3" type="curve" smooth="yes"/>
      <point x="288" y="315" type="line"/>
      <point x="266" y="309"/>
      <point x="241" y="305"/>
      <point x="213" y="305" type="curve" smooth="yes"/>
      <point x="93" y="305"/>
      <point x="39" y="372"/>
      <point x="39" y="456" type="curve" smooth="yes"/>
      <point x="39" y="556"/>
      <point x="116" y="688"/>
      <point x="284" y="688" type="curve" smooth="yes"/>
      <point x="410" y="688"/>
      <point x="458" y="615"/>
      <point x="458" y="533" type="curve" smooth="yes"/>
      <point x="458" y="521"/>
      <point x="457" y="508"/>
      <point x="454" y="496" type="curve" smooth="yes"/>
      <point x="356" y="-6" type="line" smooth="yes"/>
      <point x="349" y="-43"/>
      <point x="347" y="-73"/>
      <point x="347" y="-94" type="curve" smooth="yes"/>
      <point x="347" y="-117"/>
      <point x="368" y="-142"/>
      <point x="382" y="-142" type="curve"/>
      <point x="457" y="-79" type="line"/>
      <point x="499" y="-79"/>
      <point x="526" y="-103"/>
    </contour>
    <contour>
      <point x="328" y="538" type="curve" smooth="yes"/>
      <point x="328" y="598"/>
      <point x="318" y="627"/>
      <point x="276" y="627" type="curve" smooth="yes"/>
      <point x="195" y="627"/>
      <point x="168" y="525"/>
      <point x="168" y="454" type="curve" smooth="yes"/>
      <point x="168" y="393"/>
      <point x="183" y="366"/>
      <point x="221" y="366" type="curve" smooth="yes"/>
      <point x="301" y="366"/>
      <point x="328" y="463"/>
    </contour>
  </outline>
</glyph>
<glyph name="uni01AE" format="1">
  <advance width="627"/>
  <unicode hex="01AE"/>
  <outline>
    <contour>
      <point x="200" y="45" type="curve" smooth="yes"/>
      <point x="309" y="616" type="line"/>
      <point x="206" y="616" type="line" smooth="yes"/>
      <point x="197" y="616"/>
      <point x="181" y="611"/>
      <point x="178" y="602" type="curve" smooth="yes"/>
      <point x="140" y="496" type="line"/>
      <point x="62" y="496" type="line"/>
      <point x="96" y="671" type="line"/>
      <point x="692" y="671" type="line"/>
      <point x="656" y="496" type="line"/>
      <point x="578" y="496" type="line"/>
      <point x="583" y="603" type="line" smooth="yes"/>
      <point x="584" y="612"/>
      <point x="571" y="616"/>
      <point x="561" y="616" type="curve" smooth="yes"/>
      <point x="452" y="616" type="line"/>
      <point x="332" y="-18" type="line" smooth="yes"/>
      <point x="325" y="-55"/>
      <point x="319" y="-89"/>
      <point x="319" y="-116" type="curve" smooth="yes"/>
      <point x="319" y="-135"/>
      <point x="322" y="-149"/>
      <point x="328" y="-161" type="curve"/>
      <point x="428" y="-101" type="line"/>
      <point x="466" y="-116"/>
      <point x="485" y="-130"/>
      <point x="485" y="-156" type="curve" smooth="yes"/>
      <point x="485" y="-206"/>
      <point x="427" y="-229"/>
      <point x="377" y="-229" type="curve" smooth="yes"/>
      <point x="225" y="-229"/>
      <point x="188" y="-144"/>
      <point x="188" y="-54" type="curve" smooth="yes"/>
      <point x="188" y="-22"/>
      <point x="194" y="11"/>
    </contour>
  </outline>
</glyph>
<glyph name="uni01B2" format="1">
  <advance width="745"/>
  <unicode hex="01B2"/>
  <outline>
    <contour>
      <point x="722" y="449" type="curve" smooth="yes"/>
      <point x="722" y="198"/>
      <point x="567" y="-14"/>
      <point x="299" y="-14" type="curve" smooth="yes"/>
      <point x="167" y="-14"/>
      <point x="79" y="50"/>
      <point x="79" y="163" type="curve" smooth="yes"/>
      <point x="79" y="173"/>
      <point x="85" y="214"/>
      <point x="96" y="266" type="curve" smooth="yes"/>
      <point x="163" y="591" type="line" smooth="yes"/>
      <point x="167" y="610"/>
      <point x="164" y="615"/>
      <point x="142" y="617" type="curve" smooth="yes"/>
      <point x="142" y="617"/>
      <point x="114" y="619"/>
      <point x="89" y="621" type="curve"/>
      <point x="89" y="671" type="line"/>
      <point x="323" y="671" type="line"/>
      <point x="239" y="265" type="line" smooth="yes"/>
      <point x="231" y="230"/>
      <point x="228" y="197"/>
      <point x="228" y="197" type="curve"/>
      <point x="228" y="104"/>
      <point x="295" y="76"/>
      <point x="345" y="76" type="curve" smooth="yes"/>
      <point x="488" y="76"/>
      <point x="617" y="246"/>
      <point x="617" y="413" type="curve" smooth="yes"/>
      <point x="617" y="483"/>
      <point x="609" y="527"/>
      <point x="594" y="545" type="curve"/>
      <point x="491" y="545" type="line"/>
      <point x="491" y="545"/>
      <point x="461" y="581"/>
      <point x="461" y="607" type="curve" smooth="yes"/>
      <point x="461" y="654"/>
      <point x="501" y="687"/>
      <point x="556" y="687" type="curve" smooth="yes"/>
      <point x="660" y="687"/>
      <point x="722" y="544"/>
    </contour>
  </outline>
</glyph>
<glyph name="uni01BA" format="1">
  <advance width="515"/>
  <unicode hex="01BA"/>
  <outline>
    <contour>
      <point x="549" y="447" type="line"/>
      <point x="332" y="250" type="line"/>
      <point x="391" y="250"/>
      <point x="443" y="225"/>
      <point x="443" y="157" type="curve" smooth="yes"/>
      <point x="443" y="-23"/>
      <point x="146" y="2"/>
      <point x="146" y="-118" type="curve" smooth="yes"/>
      <point x="146" y="-146"/>
      <point x="176" y="-180"/>
      <point x="206" y="-180" type="curve" smooth="yes"/>
      <point x="244" y="-180"/>
      <point x="278" y="-175"/>
      <point x="306" y="-154" type="curve"/>
      <point x="306" y="-74" type="line"/>
      <point x="318" y="-58"/>
      <point x="333" y="-46"/>
      <point x="359" y="-46" type="curve" smooth="yes"/>
      <point x="398" y="-46"/>
      <point x="414" y="-85"/>
      <point x="414" y="-115" type="curve" smooth="yes"/>
      <point x="414" y="-155"/>
      <point x="322" y="-229"/>
      <point x="211" y="-229" type="curve" smooth="yes"/>
      <point x="115" y="-229"/>
      <point x="38" y="-174"/>
      <point x="38" y="-101" type="curve" smooth="yes"/>
      <point x="38" y="62"/>
      <point x="333" y="52"/>
      <point x="333" y="145" type="curve" smooth="yes"/>
      <point x="333" y="173"/>
      <point x="291" y="201"/>
      <point x="259" y="201" type="curve" smooth="yes"/>
      <point x="245" y="201"/>
      <point x="217" y="183"/>
      <point x="194" y="162" type="curve"/>
      <point x="150" y="200" type="line"/>
      <point x="364" y="390" type="line"/>
      <point x="337" y="389"/>
      <point x="299" y="393"/>
      <point x="278" y="393" type="curve" smooth="yes"/>
      <point x="227" y="393"/>
      <point x="195" y="416"/>
      <point x="167" y="416" type="curve" smooth="yes"/>
      <point x="151" y="416"/>
      <point x="144" y="404"/>
      <point x="136" y="391" type="curve"/>
      <point x="187" y="329" type="line"/>
      <point x="174" y="308"/>
      <point x="137" y="290"/>
      <point x="113" y="290" type="curve" smooth="yes"/>
      <point x="77" y="290"/>
      <point x="39" y="321"/>
      <point x="39" y="354" type="curve" smooth="yes"/>
      <point x="39" y="423"/>
      <point x="96" y="500"/>
      <point x="196" y="500" type="curve" smooth="yes"/>
      <point x="273" y="500"/>
      <point x="343" y="449"/>
      <point x="390" y="449" type="curve" smooth="yes"/>
      <point x="394" y="449"/>
      <point x="410" y="453"/>
      <point x="413" y="454" type="curve" smooth="yes"/>
      <point x="458" y="516" type="line"/>
    </contour>
  </outline>
</glyph>
<glyph name="uni01BC" format="1">
  <advance width="650"/>
  <unicode hex="01BC"/>
  <outline>
    <contour>
      <point x="275" y="586" type="curve" smooth="yes"/>
      <point x="250" y="459" type="line"/>
      <point x="373" y="448"/>
      <point x="550" y="391"/>
      <point x="550" y="231" type="curve" smooth="yes"/>
      <point x="550" y="73"/>
      <point x="408" y="-16"/>
      <point x="213" y="-16" type="curve" smooth="yes"/>
      <point x="99" y="-16"/>
      <point x="10" y="33"/>
      <point x="10" y="93" type="curve" smooth="yes"/>
      <point x="10" y="145"/>
      <point x="53" y="173"/>
      <point x="92" y="173" type="curve" smooth="yes"/>
      <point x="103" y="173"/>
      <point x="121" y="169"/>
      <point x="125" y="168" type="curve" smooth="yes"/>
      <point x="143" y="82" type="line"/>
      <point x="157" y="67"/>
      <point x="199" y="49"/>
      <point x="239" y="49" type="curve" smooth="yes"/>
      <point x="335" y="49"/>
      <point x="409" y="117"/>
      <point x="409" y="208" type="curve" smooth="yes"/>
      <point x="409" y="318"/>
      <point x="283" y="378"/>
      <point x="124" y="378" type="curve"/>
      <point x="164" y="586" type="line" smooth="yes"/>
      <point x="166" y="594"/>
      <point x="161" y="605"/>
      <point x="146" y="607" type="curve" smooth="yes"/>
      <point x="91" y="611" type="line"/>
      <point x="102" y="671" type="line"/>
      <point x="638" y="671" type="line"/>
      <point x="608" y="496" type="line"/>
      <point x="535" y="496" type="line"/>
      <point x="537" y="588" type="line" smooth="yes"/>
      <point x="537" y="598"/>
      <point x="530" y="607"/>
      <point x="521" y="607" type="curve" smooth="yes"/>
      <point x="302" y="607" type="line" smooth="yes"/>
      <point x="287" y="607"/>
      <point x="276" y="594"/>
    </contour>
  </outline>
</glyph>
<glyph name="uni01C0" format="1">
  <advance width="226"/>
  <unicode hex="01C0"/>
  <outline>
    <contour>
      <point x="71" y="-215" type="line"/>
      <point x="-5" y="-215" type="line"/>
      <point x="176" y="736" type="line"/>
      <point x="252" y="736" type="line"/>
    </contour>
  </outline>
</glyph>
<glyph name="uni01C1" format="1">
  <advance width="367"/>
  <unicode hex="01C1"/>
  <outline>
    <contour>
      <point x="212" y="-215" type="line"/>
      <point x="137" y="-215" type="line"/>
      <point x="318" y="736" type="line"/>
      <point x="394" y="736" type="line"/>
    </contour>
    <contour>
      <point x="71" y="-215" type="line"/>
      <point x="-5" y="-215" type="line"/>
      <point x="176" y="736" type="line"/>
      <point x="252" y="736" type="line"/>
    </contour>
  </outline>
</glyph>
<glyph name="Acaron" format="1">
  <advance width="714"/>
  <unicode hex="01CD"/>
  <outline>
    <contour>
      <point x="668" y="0" type="line"/>
      <point x="391" y="0" type="line"/>
      <point x="391" y="50" type="line"/>
      <point x="412" y="52"/>
      <point x="437" y="55"/>
      <point x="437" y="55" type="curve" smooth="yes"/>
      <point x="450" y="56"/>
      <point x="458" y="58"/>
      <point x="456" y="70" type="curve" smooth="yes"/>
      <point x="427" y="253" type="line"/>
      <point x="238" y="253" type="line"/>
      <point x="139" y="70" type="line" smooth="yes"/>
      <point x="133" y="60"/>
      <point x="139" y="56"/>
      <point x="152" y="55" type="curve" smooth="yes"/>
      <point x="152" y="55"/>
      <point x="179" y="52"/>
      <point x="204" y="50" type="curve"/>
      <point x="204" y="0" type="line"/>
      <point x="-53" y="0" type="line"/>
      <point x="-53" y="50" type="line"/>
      <point x="5" y="56" type="line"/>
      <point x="375" y="687" type="line"/>
      <point x="493" y="687" type="line"/>
      <point x="602" y="71" type="line" smooth="yes"/>
      <point x="604" y="58"/>
      <point x="607" y="56"/>
      <point x="622" y="54" type="curve" smooth="yes"/>
      <point x="622" y="54"/>
      <point x="646" y="52"/>
      <point x="668" y="50" type="curve"/>
    </contour>
    <contour>
      <point x="416" y="310" type="line"/>
      <point x="383" y="504" type="line"/>
      <point x="271" y="310" type="line"/>
    </contour>
    <contour>
      <point x="637" y="917" type="line"/>
      <point x="492" y="746" type="line"/>
      <point x="374" y="746" type="line"/>
      <point x="296" y="917" type="line"/>
      <point x="379" y="917" type="line"/>
      <point x="449" y="823" type="line"/>
      <point x="554" y="917" type="line"/>
    </contour>
  </outline>
</glyph>
<glyph name="uni01EB" format="1">
  <advance width="553"/>
  <unicode hex="01EB"/>
  <outline>
    <contour>
      <point x="522" y="303" type="curve" smooth="yes"/>
      <point x="522" y="187"/>
      <point x="462" y="70"/>
      <point x="358" y="17" type="curve"/>
      <point x="291" y="-24"/>
      <point x="251" y="-67"/>
      <point x="251" y="-111" type="curve" smooth="yes"/>
      <point x="251" y="-136"/>
      <point x="269" y="-150"/>
      <point x="293" y="-150" type="curve" smooth="yes"/>
      <point x="306" y="-150"/>
      <point x="330" y="-133"/>
      <point x="342" y="-125" type="curve"/>
      <point x="362" y="-177" type="line"/>
      <point x="337" y="-188"/>
      <point x="287" y="-208"/>
      <point x="261" y="-208" type="curve" smooth="yes"/>
      <point x="218" y="-208"/>
      <point x="166" y="-191"/>
      <point x="166" y="-140" type="curve" smooth="yes"/>
      <point x="166" y="-88"/>
      <point x="211" y="-41"/>
      <point x="254" y="-11" type="curve"/>
      <point x="247" y="-11"/>
      <point x="239" y="-12"/>
      <point x="232" y="-12" type="curve" smooth="yes"/>
      <point x="95" y="-12"/>
      <point x="32" y="70"/>
      <point x="32" y="181" type="curve" smooth="yes"/>
      <point x="32" y="338"/>
      <point x="135" y="500"/>
      <point x="320" y="500" type="curve" smooth="yes"/>
      <point x="443" y="500"/>
      <point x="522" y="433"/>
    </contour>
    <contour>
      <point x="378" y="307" type="curve" smooth="yes"/>
      <point x="378" y="405"/>
      <point x="334" y="447"/>
      <point x="309" y="447" type="curve" smooth="yes"/>
      <point x="248" y="447"/>
      <point x="175" y="320"/>
      <point x="175" y="185" type="curve" smooth="yes"/>
      <point x="175" y="82"/>
      <point x="221" y="43"/>
      <point x="244" y="43" type="curve" smooth="yes"/>
      <point x="314" y="43"/>
      <point x="378" y="184"/>
    </contour>
  </outline>
</glyph>
<glyph name="Gacute" format="1">
  <advance width="729"/>
  <unicode hex="01F4"/>
  <outline>
    <contour>
      <point x="717" y="279" type="line"/>
      <point x="649" y="274" type="line" smooth="yes"/>
      <point x="640" y="273"/>
      <point x="637" y="268"/>
      <point x="635" y="259" type="curve" smooth="yes"/>
      <point x="589" y="26" type="line"/>
      <point x="533" y="10"/>
      <point x="438" y="-16"/>
      <point x="353" y="-16" type="curve" smooth="yes"/>
      <point x="98" y="-16"/>
      <point x="48" y="163"/>
      <point x="48" y="269" type="curve" smooth="yes"/>
      <point x="48" y="518"/>
      <point x="259" y="687"/>
      <point x="500" y="687" type="curve" smooth="yes"/>
      <point x="576" y="687"/>
      <point x="626" y="675"/>
      <point x="707" y="650" type="curve"/>
      <point x="670" y="468" type="line"/>
      <point x="585" y="468" type="line"/>
      <point x="594" y="581" type="line" smooth="yes"/>
      <point x="595" y="593"/>
      <point x="582" y="599"/>
      <point x="568" y="604" type="curve" smooth="yes"/>
      <point x="555" y="608"/>
      <point x="519" y="623"/>
      <point x="488" y="623" type="curve" smooth="yes"/>
      <point x="365" y="623"/>
      <point x="200" y="485"/>
      <point x="200" y="254" type="curve" smooth="yes"/>
      <point x="200" y="92"/>
      <point x="327" y="47"/>
      <point x="373" y="47" type="curve" smooth="yes"/>
      <point x="399" y="47"/>
      <point x="435" y="56"/>
      <point x="453" y="61" type="curve"/>
      <point x="492" y="259" type="line" smooth="yes"/>
      <point x="494" y="271"/>
      <point x="489" y="274"/>
      <point x="473" y="275" type="curve" smooth="yes"/>
      <point x="473" y="275"/>
      <point x="444" y="277"/>
      <point x="417" y="279" type="curve"/>
      <point x="417" y="330" type="line"/>
      <point x="717" y="330" type="line"/>
    </contour>
    <contour>
      <point x="651" y="876" type="curve" smooth="yes"/>
      <point x="651" y="863"/>
      <point x="640" y="842"/>
      <point x="625" y="834" type="curve" smooth="yes"/>
      <point x="464" y="746" type="line"/>
      <point x="394" y="746" type="line"/>
      <point x="531" y="897" type="line" smooth="yes"/>
      <point x="553" y="922"/>
      <point x="567" y="929"/>
      <point x="594" y="929" type="curve" smooth="yes"/>
      <point x="637" y="929"/>
      <point x="651" y="900"/>
    </contour>
  </outline>
</glyph>
<glyph name="uni01F8" format="1">
  <advance width="752"/>
  <unicode hex="01F8"/>
  <outline>
    <contour>
      <point x="797" y="621" type="line"/>
      <point x="732" y="615" type="line" smooth="yes"/>
      <point x="723" y="614"/>
      <point x="717" y="609"/>
      <point x="715" y="600" type="curve" smooth="yes"/>
      <point x="596" y="0" type="line"/>
      <point x="485" y="0" type="line"/>
      <point x="261" y="465" type="line"/>
      <point x="184" y="70" type="line" smooth="yes"/>
      <point x="182" y="58"/>
      <point x="188" y="56"/>
      <point x="202" y="55" type="curve" smooth="yes"/>
      <point x="202" y="55"/>
      <point x="231" y="53"/>
      <point x="260" y="50" type="curve"/>
      <point x="260" y="0" type="line"/>
      <point x="-14" y="0" type="line"/>
      <point x="-14" y="50" type="line"/>
      <point x="14" y="53"/>
      <point x="43" y="55"/>
      <point x="43" y="55" type="curve" smooth="yes"/>
      <point x="57" y="56"/>
      <point x="65" y="58"/>
      <point x="68" y="71" type="curve" smooth="yes"/>
      <point x="171" y="601" type="line" smooth="yes"/>
      <point x="174" y="613"/>
      <point x="166" y="615"/>
      <point x="153" y="616" type="curve" smooth="yes"/>
      <point x="153" y="616"/>
      <point x="124" y="618"/>
      <point x="96" y="621" type="curve"/>
      <point x="96" y="671" type="line"/>
      <point x="331" y="671" type="line"/>
      <point x="331" y="640" type="line"/>
      <point x="526" y="233" type="line"/>
      <point x="599" y="601" type="line" smooth="yes"/>
      <point x="602" y="613"/>
      <point x="592" y="615"/>
      <point x="580" y="616" type="curve" smooth="yes"/>
      <point x="580" y="616"/>
      <point x="550" y="618"/>
      <point x="523" y="621" type="curve"/>
      <point x="523" y="671" type="line"/>
      <point x="797" y="671" type="line"/>
    </contour>
    <contour>
      <point x="566" y="746" type="line"/>
      <point x="496" y="746" type="line"/>
      <point x="334" y="834" type="line" smooth="yes"/>
      <point x="320" y="842"/>
      <point x="309" y="863"/>
      <point x="309" y="876" type="curve" smooth="yes"/>
      <point x="309" y="900"/>
      <point x="323" y="929"/>
      <point x="366" y="929" type="curve" smooth="yes"/>
      <point x="393" y="929"/>
      <point x="406" y="922"/>
      <point x="429" y="897" type="curve" smooth="yes"/>
    </contour>
  </outline>
</glyph>
<glyph name="uni0206" format="1">
  <advance width="600"/>
  <unicode hex="0206"/>
  <outline>
    <contour>
      <point x="623" y="671" type="line"/>
      <point x="591" y="513" type="line"/>
      <point x="511" y="513" type="line"/>
      <point x="511" y="598" type="line" smooth="yes"/>
      <point x="511" y="608"/>
      <point x="499" y="611"/>
      <point x="488" y="611" type="curve" smooth="yes"/>
      <point x="316" y="611" type="line"/>
      <point x="271" y="379" type="line"/>
      <point x="384" y="379" type="line" smooth="yes"/>
      <point x="394" y="379"/>
      <point x="409" y="384"/>
      <point x="412" y="394" type="curve" smooth="yes"/>
      <point x="433" y="464" type="line"/>
      <point x="506" y="464" type="line"/>
      <point x="460" y="229" type="line"/>
      <point x="386" y="229" type="line"/>
      <point x="396" y="304" type="line" smooth="yes"/>
      <point x="398" y="312"/>
      <point x="383" y="318"/>
      <point x="374" y="318" type="curve" smooth="yes"/>
      <point x="259" y="318" type="line"/>
      <point x="209" y="60" type="line"/>
      <point x="422" y="60" type="line" smooth="yes"/>
      <point x="432" y="60"/>
      <point x="447" y="66"/>
      <point x="450" y="74" type="curve" smooth="yes"/>
      <point x="482" y="174" type="line"/>
      <point x="561" y="174" type="line"/>
      <point x="526" y="0" type="line"/>
      <point x="-15" y="0" type="line"/>
      <point x="-15" y="50" type="line"/>
      <point x="15" y="53"/>
      <point x="45" y="55"/>
      <point x="45" y="55" type="curve" smooth="yes"/>
      <point x="60" y="56"/>
      <point x="65" y="58"/>
      <point x="67" y="71" type="curve" smooth="yes"/>
      <point x="171" y="601" type="line" smooth="yes"/>
      <point x="174" y="613"/>
      <point x="166" y="615"/>
      <point x="153" y="616" type="curve" smooth="yes"/>
      <point x="153" y="616"/>
      <point x="123" y="618"/>
      <point x="96" y="621" type="curve"/>
      <point x="96" y="671" type="line"/>
    </contour>
    <contour>
      <point x="542" y="787" type="curve" smooth="yes"/>
      <point x="542" y="773"/>
      <point x="541" y="759"/>
      <point x="538" y="746" type="curve"/>
      <point x="484" y="746" type="line"/>
      <point x="484" y="799"/>
      <point x="449" y="827"/>
      <point x="397" y="827" type="curve" smooth="yes"/>
      <point x="342" y="827"/>
      <point x="298" y="796"/>
      <point x="277" y="746" type="curve"/>
      <point x="226" y="746" type="line"/>
      <point x="244" y="841"/>
      <point x="315" y="909"/>
      <point x="414" y="909" type="curve" smooth="yes"/>
      <point x="492" y="909"/>
      <point x="542" y="867"/>
    </contour>
  </outline>
</glyph>
<glyph name="uni020B" format="1">
  <advance width="310"/>
  <unicode hex="020B"/>
  <outline>
    <contour>
      <point x="308" y="32" type="line"/>
      <point x="248" y="0"/>
      <point x="197" y="-12"/>
      <point x="139" y="-12" type="curve" smooth="yes"/>
      <point x="66" y="-12"/>
      <point x="40" y="42"/>
      <point x="50" y="91" type="curve" smooth="yes"/>
      <point x="113" y="423" type="line"/>
      <point x="27" y="432" type="line"/>
      <point x="27" y="467" type="line"/>
      <point x="192" y="500" type="line"/>
      <point x="262" y="500" type="line"/>
      <point x="185" y="99" type="line" smooth="yes"/>
      <point x="180" y="75"/>
      <point x="180" y="53"/>
      <point x="204" y="53" type="curve" smooth="yes"/>
      <point x="215" y="53"/>
      <point x="271" y="67"/>
      <point x="308" y="87" type="curve"/>
    </contour>
    <contour>
      <point x="371" y="592" type="curve" smooth="yes"/>
      <point x="371" y="578"/>
      <point x="369" y="564"/>
      <point x="366" y="551" type="curve"/>
      <point x="313" y="551" type="line"/>
      <point x="313" y="604"/>
      <point x="278" y="632"/>
      <point x="226" y="632" type="curve" smooth="yes"/>
      <point x="171" y="632"/>
      <point x="127" y="601"/>
      <point x="106" y="551" type="curve"/>
      <point x="54" y="551" type="line"/>
      <point x="72" y="646"/>
      <point x="143" y="714"/>
      <point x="242" y="714" type="curve" smooth="yes"/>
      <point x="320" y="714"/>
      <point x="371" y="672"/>
    </contour>
  </outline>
</glyph>
<glyph name="uni0211" format="1">
  <advance width="418"/>
  <unicode hex="0211"/>
  <outline>
    <contour>
      <point x="456" y="429" type="curve" smooth="yes"/>
      <point x="456" y="383"/>
      <point x="429" y="360"/>
      <point x="361" y="360" type="curve"/>
      <point x="334" y="414" type="line"/>
      <point x="271" y="383"/>
      <point x="219" y="324"/>
      <point x="207" y="264" type="curve" smooth="yes"/>
      <point x="151" y="0" type="line"/>
      <point x="18" y="0" type="line"/>
      <point x="106" y="423" type="line"/>
      <point x="22" y="432" type="line"/>
      <point x="22" y="467" type="line"/>
      <point x="188" y="500" type="line"/>
      <point x="257" y="500" type="line"/>
      <point x="244" y="433" type="line"/>
      <point x="280" y="470"/>
      <point x="330" y="500"/>
      <point x="380" y="500" type="curve" smooth="yes"/>
      <point x="432" y="500"/>
      <point x="456" y="458"/>
    </contour>
    <contour>
      <point x="476" y="551" type="line"/>
      <point x="405" y="551" type="line"/>
      <point x="244" y="639" type="line" smooth="yes"/>
      <point x="230" y="647"/>
      <point x="218" y="668"/>
      <point x="218" y="681" type="curve" smooth="yes"/>
      <point x="218" y="705"/>
      <point x="232" y="734"/>
      <point x="275" y="734" type="curve" smooth="yes"/>
      <point x="302" y="734"/>
      <point x="316" y="727"/>
      <point x="338" y="702" type="curve" smooth="yes"/>
    </contour>
    <contour>
      <point x="260" y="551" type="line"/>
      <point x="190" y="551" type="line"/>
      <point x="28" y="639" type="line" smooth="yes"/>
      <point x="14" y="647"/>
      <point x="3" y="668"/>
      <point x="3" y="681" type="curve" smooth="yes"/>
      <point x="3" y="705"/>
      <point x="18" y="734"/>
      <point x="61" y="734" type="curve" smooth="yes"/>
      <point x="88" y="734"/>
      <point x="102" y="727"/>
      <point x="125" y="702" type="curve" smooth="yes"/>
    </contour>
  </outline>
</glyph>
<glyph name="uni0213" format="1">
  <advance width="418"/>
  <unicode hex="0213"/>
  <outline>
    <contour>
      <point x="456" y="429" type="curve" smooth="yes"/>
      <point x="456" y="383"/>
      <point x="429" y="360"/>
      <point x="361" y="360" type="curve"/>
      <point x="334" y="414" type="line"/>
      <point x="271" y="383"/>
      <point x="219" y="324"/>
      <point x="207" y="264" type="curve" smooth="yes"/>
      <point x="151" y="0" type="line"/>
      <point x="18" y="0" type="line"/>
      <point x="106" y="423" type="line"/>
      <point x="22" y="432" type="line"/>
      <point x="22" y="467" type="line"/>
      <point x="188" y="500" type="line"/>
      <point x="257" y="500" type="line"/>
      <point x="244" y="433" type="line"/>
      <point x="280" y="470"/>
      <point x="330" y="500"/>
      <point x="380" y="500" type="curve" smooth="yes"/>
      <point x="432" y="500"/>
      <point x="456" y="458"/>
    </contour>
    <contour>
      <point x="432" y="592" type="curve" smooth="yes"/>
      <point x="432" y="578"/>
      <point x="430" y="564"/>
      <point x="427" y="551" type="curve"/>
      <point x="374" y="551" type="line"/>
      <point x="374" y="604"/>
      <point x="339" y="632"/>
      <point x="287" y="632" type="curve" smooth="yes"/>
      <point x="232" y="632"/>
      <point x="188" y="601"/>
      <point x="167" y="551" type="curve"/>
      <point x="115" y="551" type="line"/>
      <point x="133" y="646"/>
      <point x="204" y="714"/>
      <point x="303" y="714" type="curve" smooth="yes"/>
      <point x="381" y="714"/>
      <point x="432" y="672"/>
    </contour>
  </outline>
</glyph>
<glyph name="uni021D" format="1">
  <advance width="425"/>
  <unicode hex="021D"/>
  <outline>
    <contour>
      <point x="417" y="377" type="curve" smooth="yes"/>
      <point x="417" y="305"/>
      <point x="355" y="241"/>
      <point x="270" y="190" type="curve"/>
      <point x="328" y="173"/>
      <point x="374" y="135"/>
      <point x="374" y="72" type="curve" smooth="yes"/>
      <point x="374" y="-53"/>
      <point x="162" y="-169"/>
      <point x="-32" y="-229" type="curve"/>
      <point x="-18" y="-164" type="line"/>
      <point x="153" y="-100"/>
      <point x="220" y="-17"/>
      <point x="220" y="62" type="curve" smooth="yes"/>
      <point x="220" y="98"/>
      <point x="210" y="134"/>
      <point x="186" y="147" type="curve"/>
      <point x="147" y="130"/>
      <point x="106" y="116"/>
      <point x="66" y="104" type="curve"/>
      <point x="78" y="169" type="line"/>
      <point x="224" y="225"/>
      <point x="263" y="295"/>
      <point x="263" y="367" type="curve" smooth="yes"/>
      <point x="263" y="422"/>
      <point x="234" y="436"/>
      <point x="195" y="436" type="curve" smooth="yes"/>
      <point x="178" y="436"/>
      <point x="145" y="428"/>
      <point x="125" y="410" type="curve"/>
      <point x="102" y="354" type="line"/>
      <point x="43" y="354" type="line"/>
      <point x="65" y="463" type="line"/>
      <point x="141" y="493"/>
      <point x="175" y="500"/>
      <point x="228" y="500" type="curve" smooth="yes"/>
      <point x="308" y="500"/>
      <point x="417" y="461"/>
    </contour>
  </outline>
</glyph>
<glyph name="uni0221" format="1">
  <advance width="615"/>
  <unicode hex="0221"/>
  <outline>
    <contour>
      <point x="631" y="133" type="curve" smooth="yes"/>
      <point x="631" y="45"/>
      <point x="547" y="-12"/>
      <point x="442" y="-12" type="curve" smooth="yes"/>
      <point x="377" y="-12"/>
      <point x="335" y="3"/>
      <point x="322" y="36" type="curve"/>
      <point x="285" y="-6"/>
      <point x="249" y="-61"/>
      <point x="215" y="-121" type="curve"/>
      <point x="146" y="-95" type="line"/>
      <point x="161" y="-66"/>
      <point x="177" y="-38"/>
      <point x="196" y="-12" type="curve"/>
      <point x="184" y="-12"/>
      <point x="173" y="-11"/>
      <point x="163" y="-9" type="curve" smooth="yes"/>
      <point x="71" y="7"/>
      <point x="32" y="92"/>
      <point x="32" y="169" type="curve" smooth="yes"/>
      <point x="32" y="322"/>
      <point x="133" y="500"/>
      <point x="335" y="500" type="curve" smooth="yes"/>
      <point x="360" y="500"/>
      <point x="380" y="492"/>
      <point x="393" y="488" type="curve"/>
      <point x="423" y="661" type="line"/>
      <point x="333" y="669" type="line"/>
      <point x="333" y="705" type="line"/>
      <point x="502" y="737" type="line"/>
      <point x="570" y="737" type="line"/>
      <point x="475" y="197" type="line"/>
      <point x="509" y="207"/>
      <point x="508" y="210"/>
      <point x="542" y="210" type="curve" smooth="yes"/>
      <point x="591" y="210"/>
      <point x="631" y="170"/>
    </contour>
    <contour>
      <point x="542" y="124" type="curve" smooth="yes"/>
      <point x="542" y="140"/>
      <point x="546" y="158"/>
      <point x="522" y="158" type="curve" smooth="yes"/>
      <point x="509" y="158"/>
      <point x="476" y="140"/>
      <point x="463" y="134" type="curve"/>
      <point x="459" y="111"/>
      <point x="458" y="96"/>
      <point x="458" y="92" type="curve" smooth="yes"/>
      <point x="458" y="61"/>
      <point x="462" y="48"/>
      <point x="476" y="48" type="curve" smooth="yes"/>
      <point x="515" y="48"/>
      <point x="542" y="83"/>
    </contour>
    <contour>
      <point x="376" y="394" type="line" smooth="yes"/>
      <point x="377" y="399"/>
      <point x="357" y="443"/>
      <point x="333" y="443" type="curve" smooth="yes"/>
      <point x="263" y="443"/>
      <point x="170" y="334"/>
      <point x="170" y="175" type="curve" smooth="yes"/>
      <point x="170" y="94"/>
      <point x="190" y="59"/>
      <point x="227" y="59" type="curve" smooth="yes"/>
      <point x="261" y="59"/>
      <point x="296" y="96"/>
      <point x="330" y="135" type="curve"/>
    </contour>
  </outline>
</glyph>
<glyph name="uni0238" format="1">
  <advance width="817"/>
  <unicode hex="0238"/>
  <outline>
    <contour>
      <point x="570" y="737" type="line"/>
      <point x="517" y="468" type="line"/>
      <point x="553" y="487"/>
      <point x="593" y="500"/>
      <point x="628" y="500" type="curve" smooth="yes"/>
      <point x="735" y="500"/>
      <point x="786" y="395"/>
      <point x="786" y="311" type="curve" smooth="yes"/>
      <point x="786" y="192"/>
      <point x="713" y="-12"/>
      <point x="484" y="-12" type="curve" smooth="yes"/>
      <point x="412" y="-12"/>
      <point x="370" y="5"/>
      <point x="322" y="36" type="curve"/>
      <point x="286" y="9"/>
      <point x="239" y="-12"/>
      <point x="196" y="-12" type="curve" smooth="yes"/>
      <point x="80" y="-12"/>
      <point x="32" y="83"/>
      <point x="32" y="169" type="curve" smooth="yes"/>
      <point x="32" y="322"/>
      <point x="133" y="500"/>
      <point x="335" y="500" type="curve" smooth="yes"/>
      <point x="360" y="500"/>
      <point x="380" y="492"/>
      <point x="393" y="488" type="curve"/>
      <point x="423" y="661" type="line"/>
      <point x="333" y="669" type="line"/>
      <point x="333" y="705" type="line"/>
      <point x="502" y="737" type="line"/>
    </contour>
    <contour>
      <point x="376" y="394" type="line" smooth="yes"/>
      <point x="377" y="399"/>
      <point x="357" y="443"/>
      <point x="333" y="443" type="curve" smooth="yes"/>
      <point x="263" y="443"/>
      <point x="170" y="334"/>
      <point x="170" y="175" type="curve" smooth="yes"/>
      <point x="170" y="94"/>
      <point x="190" y="59"/>
      <point x="227" y="59" type="curve" smooth="yes"/>
      <point x="261" y="59"/>
      <point x="296" y="96"/>
      <point x="330" y="135" type="curve"/>
    </contour>
    <contour>
      <point x="647" y="307" type="curve" smooth="yes"/>
      <point x="647" y="391"/>
      <point x="618" y="424"/>
      <point x="595" y="424" type="curve" smooth="yes"/>
      <point x="567" y="424"/>
      <point x="530" y="404"/>
      <point x="500" y="378" type="curve"/>
      <point x="444" y="79" type="line"/>
      <point x="455" y="62"/>
      <point x="474" y="44"/>
      <point x="505" y="44" type="curve" smooth="yes"/>
      <point x="571" y="44"/>
      <point x="647" y="183"/>
    </contour>
  </outline>
</glyph>
<glyph name="uni0242" format="1">
  <advance width="423"/>
  <unicode hex="0242"/>
  <outline>
    <contour>
      <point x="412" y="383" type="curve" smooth="yes"/>
      <point x="412" y="283"/>
      <point x="342" y="236"/>
      <point x="256" y="208" type="curve"/>
      <point x="228" y="62" type="line" smooth="yes"/>
      <point x="226" y="54"/>
      <point x="229" y="50"/>
      <point x="237" y="50" type="curve" smooth="yes"/>
      <point x="237" y="50"/>
      <point x="270" y="48"/>
      <point x="292" y="47" type="curve"/>
      <point x="292" y="0" type="line"/>
      <point x="19" y="0" type="line"/>
      <point x="19" y="47" type="line"/>
      <point x="44" y="48"/>
      <point x="80" y="50"/>
      <point x="80" y="50" type="curve" smooth="yes"/>
      <point x="88" y="50"/>
      <point x="93" y="54"/>
      <point x="94" y="62" type="curve" smooth="yes"/>
      <point x="126" y="223" type="line"/>
      <point x="224" y="245"/>
      <point x="277" y="297"/>
      <point x="277" y="396" type="curve" smooth="yes"/>
      <point x="277" y="431"/>
      <point x="266" y="449"/>
      <point x="242" y="449" type="curve" smooth="yes"/>
      <point x="229" y="449"/>
      <point x="209" y="445"/>
      <point x="202" y="439" type="curve" smooth="yes"/>
      <point x="153" y="338" type="line"/>
      <point x="153" y="338"/>
      <point x="134" y="325"/>
      <point x="118" y="325" type="curve" smooth="yes"/>
      <point x="84" y="325"/>
      <point x="59" y="356"/>
      <point x="59" y="397" type="curve" smooth="yes"/>
      <point x="59" y="438"/>
      <point x="111" y="500"/>
      <point x="231" y="500" type="curve" smooth="yes"/>
      <point x="357" y="500"/>
      <point x="412" y="448"/>
    </contour>
  </outline>
</glyph>
<glyph name="uni0249" format="1">
  <advance width="317"/>
  <unicode hex="0249"/>
  <outline>
    <contour>
      <point x="311" y="663" type="curve" smooth="yes"/>
      <point x="311" y="620"/>
      <point x="275" y="585"/>
      <point x="232" y="585" type="curve" smooth="yes"/>
      <point x="189" y="585"/>
      <point x="155" y="620"/>
      <point x="155" y="663" type="curve" smooth="yes"/>
      <point x="155" y="706"/>
      <point x="189" y="740"/>
      <point x="232" y="740" type="curve" smooth="yes"/>
      <point x="275" y="740"/>
      <point x="311" y="706"/>
    </contour>
    <contour>
      <point x="320" y="211" type="line"/>
      <point x="226" y="211" type="line"/>
      <point x="204" y="84" type="line" smooth="yes"/>
      <point x="186" y="-17"/>
      <point x="97" y="-229"/>
      <point x="-42" y="-229" type="curve" smooth="yes"/>
      <point x="-89" y="-229"/>
      <point x="-129" y="-204"/>
      <point x="-129" y="-171" type="curve" smooth="yes"/>
      <point x="-129" y="-146"/>
      <point x="-111" y="-132"/>
      <point x="-88" y="-117" type="curve"/>
      <point x="7" y="-142" type="line"/>
      <point x="25" y="-114"/>
      <point x="46" y="-55"/>
      <point x="55" y="-6" type="curve" smooth="yes"/>
      <point x="92" y="211" type="line"/>
      <point x="2" y="211" type="line"/>
      <point x="2" y="278" type="line"/>
      <point x="104" y="278" type="line"/>
      <point x="129" y="422" type="line"/>
      <point x="43" y="431" type="line"/>
      <point x="43" y="467" type="line"/>
      <point x="209" y="500" type="line"/>
      <point x="275" y="500" type="line"/>
      <point x="237" y="278" type="line"/>
      <point x="320" y="278" type="line"/>
    </contour>
  </outline>
</glyph>
<glyph name="uni024D" format="1">
  <advance width="418"/>
  <unicode hex="024D"/>
  <outline>
    <contour>
      <point x="456" y="429" type="curve" smooth="yes"/>
      <point x="456" y="383"/>
      <point x="429" y="360"/>
      <point x="361" y="360" type="curve"/>
      <point x="334" y="414" type="line"/>
      <point x="276" y="385"/>
      <point x="226" y="332"/>
      <point x="209" y="276" type="curve"/>
      <point x="302" y="276" type="line"/>
      <point x="302" y="216" type="line"/>
      <point x="196" y="216" type="line"/>
      <point x="151" y="0" type="line"/>
      <point x="18" y="0" type="line"/>
      <point x="63" y="216" type="line"/>
      <point x="1" y="216" type="line"/>
      <point x="1" y="276" type="line"/>
      <point x="76" y="276" type="line"/>
      <point x="106" y="423" type="line"/>
      <point x="22" y="432" type="line"/>
      <point x="22" y="467" type="line"/>
      <point x="188" y="500" type="line"/>
      <point x="257" y="500" type="line"/>
      <point x="244" y="433" type="line"/>
      <point x="280" y="470"/>
      <point x="330" y="500"/>
      <point x="380" y="500" type="curve" smooth="yes"/>
      <point x="432" y="500"/>
      <point x="456" y="458"/>
    </contour>
  </outline>
</glyph>
<glyph name="uni0254" format="1">
  <advance width="480"/>
  <unicode hex="0254"/>
  <outline>
    <contour>
      <point x="450" y="310" type="curve" smooth="yes"/>
      <point x="450" y="137"/>
      <point x="339" y="-12"/>
      <point x="147" y="-12" type="curve" smooth="yes"/>
      <point x="68" y="-12"/>
      <point x="33" y="30"/>
      <point x="33" y="62" type="curve" smooth="yes"/>
      <point x="33" y="86"/>
      <point x="53" y="139"/>
      <point x="128" y="139" type="curve"/>
      <point x="184" y="61" type="line"/>
      <point x="296" y="85"/>
      <point x="312" y="258"/>
      <point x="312" y="299" type="curve" smooth="yes"/>
      <point x="312" y="360"/>
      <point x="307" y="425"/>
      <point x="243" y="425" type="curve" smooth="yes"/>
      <point x="192" y="425"/>
      <point x="145" y="402"/>
      <point x="55" y="294" type="curve"/>
      <point x="55" y="394" type="line"/>
      <point x="109" y="458"/>
      <point x="179" y="500"/>
      <point x="273" y="500" type="curve" smooth="yes"/>
      <point x="396" y="500"/>
      <point x="450" y="424"/>
    </contour>
  </outline>
</glyph>
<glyph name="uni0256" format="1">
  <advance width="565"/>
  <unicode hex="0256"/>
  <outline>
    <contour>
      <point x="590" y="-154" type="curve" smooth="yes"/>
      <point x="590" y="-186"/>
      <point x="538" y="-229"/>
      <point x="471" y="-229" type="curve" smooth="yes"/>
      <point x="343" y="-229"/>
      <point x="296" y="-151"/>
      <point x="296" y="-63" type="curve" smooth="yes"/>
      <point x="296" y="-49"/>
      <point x="309" y="26"/>
      <point x="309" y="26" type="curve"/>
      <point x="273" y="0"/>
      <point x="239" y="-12"/>
      <point x="196" y="-12" type="curve" smooth="yes"/>
      <point x="80" y="-12"/>
      <point x="32" y="83"/>
      <point x="32" y="169" type="curve" smooth="yes"/>
      <point x="32" y="322"/>
      <point x="133" y="500"/>
      <point x="335" y="500" type="curve" smooth="yes"/>
      <point x="360" y="500"/>
      <point x="380" y="492"/>
      <point x="393" y="488" type="curve"/>
      <point x="423" y="661" type="line"/>
      <point x="333" y="669" type="line"/>
      <point x="333" y="705" type="line"/>
      <point x="502" y="737" type="line"/>
      <point x="570" y="737" type="line"/>
      <point x="438" y="-6" type="line" smooth="yes"/>
      <point x="431" y="-42"/>
      <point x="421" y="-78"/>
      <point x="421" y="-100" type="curve" smooth="yes"/>
      <point x="421" y="-126"/>
      <point x="438" y="-154"/>
      <point x="461" y="-154" type="curve"/>
      <point x="524" y="-86" type="line"/>
      <point x="554" y="-91"/>
      <point x="590" y="-105"/>
    </contour>
    <contour>
      <point x="376" y="394" type="line" smooth="yes"/>
      <point x="377" y="399"/>
      <point x="357" y="443"/>
      <point x="333" y="443" type="curve" smooth="yes"/>
      <point x="263" y="443"/>
      <point x="170" y="334"/>
      <point x="170" y="175" type="curve" smooth="yes"/>
      <point x="170" y="94"/>
      <point x="190" y="59"/>
      <point x="227" y="59" type="curve" smooth="yes"/>
      <point x="261" y="59"/>
      <point x="296" y="96"/>
      <point x="330" y="135" type="curve"/>
    </contour>
  </outline>
</glyph>
<glyph name="uni0263" format="1">
  <advance width="502"/>
  <unicode hex="0263"/>
  <outline>
    <contour>
      <point x="512" y="436" type="curve" smooth="yes"/>
      <point x="512" y="402"/>
      <point x="497" y="374"/>
      <point x="491" y="361" type="curve" smooth="yes"/>
      <point x="429" y="249"/>
      <point x="373" y="171"/>
      <point x="268" y="76" type="curve"/>
      <point x="270" y="58"/>
      <point x="284" y="-87"/>
      <point x="284" y="-100" type="curve" smooth="yes"/>
      <point x="284" y="-161"/>
      <point x="210" y="-229"/>
      <point x="142" y="-229" type="curve" smooth="yes"/>
      <point x="59" y="-229"/>
      <point x="15" y="-183"/>
      <point x="15" y="-123" type="curve" smooth="yes"/>
      <point x="15" y="-63"/>
      <point x="90" y="24"/>
      <point x="139" y="62" type="curve"/>
      <point x="129" y="158"/>
      <point x="118" y="325"/>
      <point x="95" y="410" type="curve" smooth="yes"/>
      <point x="90" y="426"/>
      <point x="85" y="426"/>
      <point x="63" y="427" type="curve" smooth="yes"/>
      <point x="63" y="427"/>
      <point x="30" y="428"/>
      <point x="1" y="429" type="curve"/>
      <point x="1" y="464" type="line"/>
      <point x="119" y="500" type="line"/>
      <point x="188" y="499"/>
      <point x="225" y="475"/>
      <point x="230" y="425" type="curve" smooth="yes"/>
      <point x="258" y="163" type="line"/>
      <point x="330" y="236"/>
      <point x="375" y="290"/>
      <point x="400" y="354" type="curve"/>
      <point x="352" y="473" type="line"/>
      <point x="369" y="490"/>
      <point x="400" y="500"/>
      <point x="431" y="500" type="curve" smooth="yes"/>
      <point x="477" y="500"/>
      <point x="512" y="475"/>
    </contour>
    <contour>
      <point x="156" y="-91" type="curve" smooth="yes"/>
      <point x="156" y="-87"/>
      <point x="152" y="-42"/>
      <point x="150" y="-29" type="curve"/>
      <point x="124" y="-48"/>
      <point x="89" y="-100"/>
      <point x="89" y="-122" type="curve" smooth="yes"/>
      <point x="89" y="-150"/>
      <point x="106" y="-161"/>
      <point x="123" y="-161" type="curve" smooth="yes"/>
      <point x="143" y="-161"/>
      <point x="156" y="-147"/>
    </contour>
  </outline>
</glyph>
<glyph name="uni0267" format="1">
  <advance width="564"/>
  <unicode hex="0267"/>
  <outline>
    <contour>
      <point x="579" y="645" type="curve" smooth="yes"/>
      <point x="579" y="605"/>
      <point x="547" y="572"/>
      <point x="506" y="572" type="curve" smooth="yes"/>
      <point x="484" y="572"/>
      <point x="463" y="581"/>
      <point x="463" y="581" type="curve"/>
      <point x="445" y="665" type="line"/>
      <point x="437" y="672"/>
      <point x="407" y="674"/>
      <point x="397" y="674" type="curve" smooth="yes"/>
      <point x="346" y="674"/>
      <point x="283" y="628"/>
      <point x="259" y="516" type="curve" smooth="yes"/>
      <point x="245" y="454" type="line"/>
      <point x="285" y="479"/>
      <point x="338" y="500"/>
      <point x="397" y="500" type="curve" smooth="yes"/>
      <point x="497" y="500"/>
      <point x="529" y="443"/>
      <point x="512" y="359" type="curve" smooth="yes"/>
      <point x="435" y="-15" type="line" smooth="yes"/>
      <point x="409" y="-140"/>
      <point x="315" y="-229"/>
      <point x="169" y="-229" type="curve" smooth="yes"/>
      <point x="95" y="-229"/>
      <point x="65" y="-188"/>
      <point x="65" y="-149" type="curve" smooth="yes"/>
      <point x="65" y="-105"/>
      <point x="109" y="-83"/>
      <point x="152" y="-78" type="curve"/>
      <point x="213" y="-166" type="line"/>
      <point x="260" y="-157"/>
      <point x="282" y="-108"/>
      <point x="294" y="-49" type="curve" smooth="yes"/>
      <point x="294" y="-49"/>
      <point x="379" y="343"/>
      <point x="376" y="349" type="curve"/>
      <point x="386" y="397"/>
      <point x="362" y="424"/>
      <point x="342" y="424" type="curve" smooth="yes"/>
      <point x="312" y="424"/>
      <point x="264" y="392"/>
      <point x="223" y="350" type="curve"/>
      <point x="150" y="0" type="line"/>
      <point x="17" y="0" type="line"/>
      <point x="126" y="519" type="line" smooth="yes"/>
      <point x="137" y="572"/>
      <point x="212" y="737"/>
      <point x="402" y="737" type="curve" smooth="yes"/>
      <point x="529" y="737"/>
      <point x="579" y="703"/>
    </contour>
  </outline>
</glyph>
<glyph name="uni026E" format="1">
  <advance width="641"/>
  <unicode hex="026E"/>
  <outline>
    <contour>
      <point x="670" y="447" type="line"/>
      <point x="392" y="194" type="line"/>
      <point x="504" y="181"/>
      <point x="573" y="117"/>
      <point x="573" y="13" type="curve" smooth="yes"/>
      <point x="573" y="-132"/>
      <point x="425" y="-229"/>
      <point x="267" y="-229" type="curve" smooth="yes"/>
      <point x="150" y="-229"/>
      <point x="63" y="-189"/>
      <point x="63" y="-115" type="curve" smooth="yes"/>
      <point x="63" y="-72"/>
      <point x="102" y="-38"/>
      <point x="143" y="-38" type="curve" smooth="yes"/>
      <point x="159" y="-38"/>
      <point x="182" y="-46"/>
      <point x="200" y="-53" type="curve"/>
      <point x="224" y="-147" type="line"/>
      <point x="241" y="-172"/>
      <point x="270" y="-168"/>
      <point x="278" y="-168" type="curve" smooth="yes"/>
      <point x="348" y="-168"/>
      <point x="436" y="-82"/>
      <point x="436" y="13" type="curve" smooth="yes"/>
      <point x="436" y="75"/>
      <point x="381" y="133"/>
      <point x="324" y="144" type="curve"/>
      <point x="296" y="106" type="line"/>
      <point x="228" y="164" type="line"/>
      <point x="485" y="390" type="line"/>
      <point x="458" y="389"/>
      <point x="421" y="393"/>
      <point x="400" y="393" type="curve" smooth="yes"/>
      <point x="348" y="393"/>
      <point x="317" y="416"/>
      <point x="289" y="416" type="curve" smooth="yes"/>
      <point x="276" y="416"/>
      <point x="246" y="411"/>
      <point x="234" y="398" type="curve"/>
      <point x="176" y="102" type="line" smooth="yes"/>
      <point x="172" y="79"/>
      <point x="177" y="53"/>
      <point x="202" y="53" type="curve" smooth="yes"/>
      <point x="218" y="53"/>
      <point x="257" y="62"/>
      <point x="304" y="83" type="curve"/>
      <point x="304" y="29" type="line"/>
      <point x="256" y="4"/>
      <point x="196" y="-12"/>
      <point x="144" y="-12" type="curve" smooth="yes"/>
      <point x="78" y="-12"/>
      <point x="39" y="18"/>
      <point x="39" y="64" type="curve" smooth="yes"/>
      <point x="39" y="75"/>
      <point x="40" y="87"/>
      <point x="43" y="100" type="curve" smooth="yes"/>
      <point x="152" y="661" type="line"/>
      <point x="64" y="669" type="line"/>
      <point x="64" y="705" type="line"/>
      <point x="233" y="737" type="line"/>
      <point x="299" y="737" type="line"/>
      <point x="251" y="487" type="line"/>
      <point x="272" y="495"/>
      <point x="295" y="500"/>
      <point x="318" y="500" type="curve" smooth="yes"/>
      <point x="394" y="500"/>
      <point x="464" y="449"/>
      <point x="512" y="449" type="curve" smooth="yes"/>
      <point x="516" y="449"/>
      <point x="532" y="453"/>
      <point x="535" y="454" type="curve" smooth="yes"/>
      <point x="580" y="516" type="line"/>
    </contour>
  </outline>
</glyph>
<glyph name="uni0275" format="1">
  <advance width="553"/>
  <unicode hex="0275"/>
  <outline>
    <contour>
      <point x="522" y="303" type="curve" smooth="yes"/>
      <point x="522" y="146"/>
      <point x="414" y="-12"/>
      <point x="232" y="-12" type="curve" smooth="yes"/>
      <point x="95" y="-12"/>
      <point x="32" y="70"/>
      <point x="32" y="181" type="curve" smooth="yes"/>
      <point x="32" y="338"/>
      <point x="135" y="500"/>
      <point x="320" y="500" type="curve" smooth="yes"/>
      <point x="443" y="500"/>
      <point x="522" y="433"/>
    </contour>
    <contour>
      <point x="378" y="307" type="curve" smooth="yes"/>
      <point x="378" y="405"/>
      <point x="334" y="447"/>
      <point x="309" y="447" type="curve" smooth="yes"/>
      <point x="263" y="447"/>
      <point x="209" y="374"/>
      <point x="187" y="279" type="curve"/>
      <point x="377" y="279" type="line"/>
      <point x="378" y="288"/>
      <point x="378" y="298"/>
    </contour>
    <contour>
      <point x="369" y="219" type="curve"/>
      <point x="177" y="219" type="line"/>
      <point x="176" y="208"/>
      <point x="175" y="196"/>
      <point x="175" y="185" type="curve" smooth="yes"/>
      <point x="175" y="82"/>
      <point x="221" y="43"/>
      <point x="244" y="43" type="curve" smooth="yes"/>
      <point x="298" y="43"/>
      <point x="348" y="125"/>
    </contour>
  </outline>
</glyph>
<glyph name="uni0281" format="1">
  <advance width="529"/>
  <unicode hex="0281"/>
  <outline>
    <contour>
      <point x="583" y="445" type="line"/>
      <point x="491" y="445"/>
      <point x="492" y="407"/>
      <point x="449" y="338" type="curve" smooth="yes"/>
      <point x="426" y="302"/>
      <point x="398" y="267"/>
      <point x="356" y="251" type="curve"/>
      <point x="405" y="235"/>
      <point x="457" y="200"/>
      <point x="457" y="153" type="curve" smooth="yes"/>
      <point x="457" y="28"/>
      <point x="329" y="0"/>
      <point x="200" y="0" type="curve" smooth="yes"/>
      <point x="-27" y="0" type="line"/>
      <point x="-27" y="44" type="line"/>
      <point x="23" y="47" type="line" smooth="yes"/>
      <point x="35" y="48"/>
      <point x="39" y="52"/>
      <point x="41" y="60" type="curve" smooth="yes"/>
      <point x="121" y="426" type="line" smooth="yes"/>
      <point x="122" y="433"/>
      <point x="120" y="438"/>
      <point x="106" y="439" type="curve" smooth="yes"/>
      <point x="67" y="443" type="line"/>
      <point x="67" y="488" type="line"/>
      <point x="311" y="488" type="line"/>
      <point x="311" y="443" type="line"/>
      <point x="288" y="441"/>
      <point x="265" y="440"/>
      <point x="265" y="440" type="curve" smooth="yes"/>
      <point x="249" y="439"/>
      <point x="248" y="436"/>
      <point x="246" y="424" type="curve" smooth="yes"/>
      <point x="213" y="275" type="line"/>
      <point x="228" y="275" type="line" smooth="yes"/>
      <point x="316" y="275"/>
      <point x="347" y="395"/>
      <point x="404" y="452" type="curve" smooth="yes"/>
      <point x="432" y="480"/>
      <point x="460" y="500"/>
      <point x="517" y="500" type="curve" smooth="yes"/>
      <point x="546" y="500"/>
      <point x="558" y="490"/>
      <point x="583" y="488" type="curve"/>
    </contour>
    <contour>
      <point x="322" y="155" type="curve" smooth="yes"/>
      <point x="322" y="198"/>
      <point x="265" y="225"/>
      <point x="214" y="225" type="curve" smooth="yes"/>
      <point x="201" y="225" type="line"/>
      <point x="163" y="50" type="line"/>
      <point x="175" y="50" type="line" smooth="yes"/>
      <point x="234" y="50"/>
      <point x="322" y="68"/>
    </contour>
  </outline>
</glyph>
<glyph name="uni0286" format="1">
  <advance width="314"/>
  <unicode hex="0286"/>
  <outline>
    <contour>
      <point x="449" y="677" type="curve" smooth="yes"/>
      <point x="449" y="650"/>
      <point x="435" y="613"/>
      <point x="383" y="596" type="curve"/>
      <point x="319" y="665" type="line"/>
      <point x="261" y="665"/>
      <point x="253" y="573"/>
      <point x="251" y="539" type="curve" smooth="yes"/>
      <point x="216" y="31" type="line" smooth="yes"/>
      <point x="213" y="-8"/>
      <point x="212" y="-65"/>
      <point x="192" y="-113" type="curve"/>
      <point x="217" y="-150"/>
      <point x="226" y="-166"/>
      <point x="243" y="-208" type="curve"/>
      <point x="172" y="-234" type="line"/>
      <point x="162" y="-210"/>
      <point x="152" y="-190"/>
      <point x="142" y="-174" type="curve"/>
      <point x="105" y="-211"/>
      <point x="53" y="-229"/>
      <point x="-17" y="-229" type="curve" smooth="yes"/>
      <point x="-67" y="-229"/>
      <point x="-123" y="-196"/>
      <point x="-123" y="-144" type="curve" smooth="yes"/>
      <point x="-123" y="-73"/>
      <point x="-57" y="-8"/>
      <point x="21" y="-8" type="curve" smooth="yes"/>
      <point x="38" y="-8"/>
      <point x="62" y="-5"/>
      <point x="78" y="-18" type="curve"/>
      <point x="117" y="529" type="line" smooth="yes"/>
      <point x="125" y="641"/>
      <point x="203" y="737"/>
      <point x="369" y="737" type="curve" smooth="yes"/>
      <point x="416" y="737"/>
      <point x="449" y="713"/>
    </contour>
    <contour>
      <point x="69" y="-85" type="curve"/>
      <point x="52" y="-71"/>
      <point x="41" y="-65"/>
      <point x="27" y="-65" type="curve" smooth="yes"/>
      <point x="-8" y="-65"/>
      <point x="-30" y="-102"/>
      <point x="-30" y="-138" type="curve" smooth="yes"/>
      <point x="-30" y="-159"/>
      <point x="-17" y="-172"/>
      <point x="5" y="-172" type="curve" smooth="yes"/>
      <point x="48" y="-172"/>
      <point x="68" y="-129"/>
    </contour>
  </outline>
</glyph>
<glyph name="uni028C" format="1">
  <advance width="508"/>
  <unicode hex="028C"/>
  <outline>
    <contour>
      <point x="513" y="23" type="line"/>
      <point x="395" y="-12" type="line"/>
      <point x="325" y="-11"/>
      <point x="287" y="13"/>
      <point x="282" y="63" type="curve" smooth="yes"/>
      <point x="255" y="321" type="line"/>
      <point x="206" y="255"/>
      <point x="162" y="204"/>
      <point x="136" y="141" type="curve"/>
      <point x="164" y="14" type="line"/>
      <point x="147" y="-3"/>
      <point x="116" y="-12"/>
      <point x="85" y="-12" type="curve" smooth="yes"/>
      <point x="38" y="-12"/>
      <point x="2" y="13"/>
      <point x="2" y="52" type="curve" smooth="yes"/>
      <point x="2" y="86"/>
      <point x="17" y="115"/>
      <point x="24" y="127" type="curve" smooth="yes"/>
      <point x="114" y="291"/>
      <point x="237" y="429"/>
      <point x="302" y="500" type="curve"/>
      <point x="400" y="500" type="line"/>
      <point x="383" y="466"/>
      <point x="376" y="441"/>
      <point x="377" y="419" type="curve" smooth="yes"/>
      <point x="377" y="411"/>
      <point x="398" y="132"/>
      <point x="419" y="79" type="curve" smooth="yes"/>
      <point x="425" y="64"/>
      <point x="426" y="62"/>
      <point x="444" y="62" type="curve" smooth="yes"/>
      <point x="444" y="62"/>
      <point x="479" y="60"/>
      <point x="513" y="59" type="curve"/>
    </contour>
  </outline>
</glyph>
<glyph name="uni028E" format="1">
  <advance width="543"/>
  <unicode hex="028E"/>
  <outline>
    <contour>
      <point x="584" y="661" type="curve" smooth="yes"/>
      <point x="584" y="628"/>
      <point x="566" y="580"/>
      <point x="503" y="577" type="curve"/>
      <point x="460" y="653" type="line"/>
      <point x="400" y="653"/>
      <point x="392" y="569"/>
      <point x="335" y="467" type="curve"/>
      <point x="338" y="450"/>
      <point x="356" y="353"/>
      <point x="377" y="258" type="curve" smooth="yes"/>
      <point x="397" y="166"/>
      <point x="411" y="64"/>
      <point x="420" y="63" type="curve" smooth="yes"/>
      <point x="526" y="56" type="line"/>
      <point x="526" y="25" type="line"/>
      <point x="503" y="17"/>
      <point x="405" y="-12"/>
      <point x="385" y="-12" type="curve" smooth="yes"/>
      <point x="339" y="-12"/>
      <point x="312" y="-8"/>
      <point x="284" y="85" type="curve" smooth="yes"/>
      <point x="270" y="132"/>
      <point x="253" y="212"/>
      <point x="238" y="290" type="curve"/>
      <point x="100" y="-12" type="line"/>
      <point x="52" y="-12" type="line"/>
      <point x="-43" y="18" type="line"/>
      <point x="-43" y="43" type="line"/>
      <point x="10" y="76" type="line"/>
      <point x="26" y="91"/>
      <point x="73" y="166"/>
      <point x="91" y="207" type="curve" smooth="yes"/>
      <point x="120" y="271"/>
      <point x="171" y="393"/>
      <point x="234" y="502" type="curve" smooth="yes"/>
      <point x="301" y="618"/>
      <point x="333" y="737"/>
      <point x="473" y="737" type="curve" smooth="yes"/>
      <point x="554" y="737"/>
      <point x="584" y="689"/>
    </contour>
  </outline>
</glyph>
<glyph name="uni0290" format="1">
  <advance width="500"/>
  <unicode hex="0290"/>
  <outline>
    <contour>
      <point x="567" y="-154" type="curve" smooth="yes"/>
      <point x="567" y="-205"/>
      <point x="522" y="-229"/>
      <point x="459" y="-229" type="curve" smooth="yes"/>
      <point x="364" y="-229"/>
      <point x="314" y="-194"/>
      <point x="314" y="-138" type="curve" smooth="yes"/>
      <point x="314" y="-122"/>
      <point x="330" y="-47"/>
      <point x="339" y="-1" type="curve"/>
      <point x="322" y="-7"/>
      <point x="302" y="-11"/>
      <point x="280" y="-11" type="curve" smooth="yes"/>
      <point x="212" y="-11"/>
      <point x="156" y="31"/>
      <point x="143" y="31" type="curve" smooth="yes"/>
      <point x="134" y="31"/>
      <point x="126" y="31"/>
      <point x="122" y="25" type="curve" smooth="yes"/>
      <point x="85" y="-39" type="line"/>
      <point x="-16" y="16" type="line"/>
      <point x="314" y="396" type="line"/>
      <point x="251" y="383" type="line"/>
      <point x="216" y="402"/>
      <point x="196" y="415"/>
      <point x="173" y="415" type="curve" smooth="yes"/>
      <point x="159" y="415"/>
      <point x="118" y="401"/>
      <point x="109" y="386" type="curve"/>
      <point x="168" y="323" type="line"/>
      <point x="162" y="312"/>
      <point x="125" y="284"/>
      <point x="92" y="284" type="curve" smooth="yes"/>
      <point x="49" y="284"/>
      <point x="30" y="331"/>
      <point x="30" y="358" type="curve" smooth="yes"/>
      <point x="30" y="422"/>
      <point x="110" y="500"/>
      <point x="203" y="500" type="curve" smooth="yes"/>
      <point x="271" y="500"/>
      <point x="327" y="457"/>
      <point x="340" y="457" type="curve" smooth="yes"/>
      <point x="349" y="457"/>
      <point x="356" y="458"/>
      <point x="361" y="463" type="curve" smooth="yes"/>
      <point x="388" y="526" type="line"/>
      <point x="498" y="470" type="line"/>
      <point x="168" y="92" type="line"/>
      <point x="220" y="105" type="line"/>
      <point x="220" y="105"/>
      <point x="271" y="67"/>
      <point x="303" y="67" type="curve" smooth="yes"/>
      <point x="333" y="67"/>
      <point x="361" y="106"/>
      <point x="361" y="106" type="curve"/>
      <point x="434" y="123" type="line"/>
      <point x="388" y="-116" type="line" smooth="yes"/>
      <point x="381" y="-151"/>
      <point x="402" y="-177"/>
      <point x="433" y="-177" type="curve"/>
      <point x="511" y="-93" type="line"/>
      <point x="539" y="-99"/>
      <point x="567" y="-118"/>
    </contour>
  </outline>
</glyph>
<glyph name="uni029A" format="1">
  <advance width="541"/>
  <unicode hex="029A"/>
  <outline>
    <contour>
      <point x="510" y="329" type="curve" smooth="yes"/>
      <point x="510" y="180"/>
      <point x="412" y="-12"/>
      <point x="211" y="-12" type="curve" smooth="yes"/>
      <point x="61" y="-12"/>
      <point x="7" y="36"/>
      <point x="7" y="105" type="curve" smooth="yes"/>
      <point x="7" y="179"/>
      <point x="55" y="230"/>
      <point x="149" y="248" type="curve"/>
      <point x="93" y="275"/>
      <point x="77" y="314"/>
      <point x="77" y="349" type="curve" smooth="yes"/>
      <point x="77" y="435"/>
      <point x="188" y="500"/>
      <point x="297" y="500" type="curve" smooth="yes"/>
      <point x="464" y="500"/>
      <point x="510" y="422"/>
    </contour>
    <contour>
      <point x="409" y="319" type="curve" smooth="yes"/>
      <point x="409" y="420"/>
      <point x="341" y="451"/>
      <point x="303" y="451" type="curve" smooth="yes"/>
      <point x="246" y="451"/>
      <point x="216" y="401"/>
      <point x="216" y="335" type="curve" smooth="yes"/>
      <point x="216" y="280"/>
      <point x="253" y="265"/>
      <point x="306" y="264" type="curve"/>
      <point x="306" y="215" type="line"/>
      <point x="246" y="215" type="line" smooth="yes"/>
      <point x="213" y="215"/>
      <point x="152" y="201"/>
      <point x="152" y="122" type="curve" smooth="yes"/>
      <point x="152" y="71"/>
      <point x="180" y="44"/>
      <point x="219" y="44" type="curve" smooth="yes"/>
      <point x="315" y="44"/>
      <point x="409" y="197"/>
    </contour>
  </outline>
</glyph>
<glyph name="uni02AC" format="1">
  <advance width="542"/>
  <unicode hex="02AC"/>
  <outline>
    <contour>
      <point x="565" y="645" type="curve" smooth="yes"/>
      <point x="565" y="578"/>
      <point x="403" y="394"/>
      <point x="387" y="376" type="curve"/>
      <point x="323" y="376" type="line"/>
      <point x="310" y="547" type="line"/>
      <point x="276" y="485"/>
      <point x="235" y="420"/>
      <point x="204" y="376" type="curve"/>
      <point x="137" y="376" type="line"/>
      <point x="144" y="392" type="line"/>
      <point x="126" y="637" type="line"/>
      <point x="77" y="642" type="line"/>
      <point x="77" y="661" type="line"/>
      <point x="164" y="683" type="line"/>
      <point x="211" y="675" type="line"/>
      <point x="223" y="495" type="line"/>
      <point x="253" y="548"/>
      <point x="285" y="611"/>
      <point x="312" y="668" type="curve"/>
      <point x="386" y="675" type="line"/>
      <point x="401" y="464" type="line"/>
      <point x="431" y="504"/>
      <point x="473" y="558"/>
      <point x="493" y="602" type="curve"/>
      <point x="469" y="665" type="line"/>
      <point x="473" y="669"/>
      <point x="486" y="683"/>
      <point x="513" y="683" type="curve" smooth="yes"/>
      <point x="548" y="683"/>
      <point x="565" y="655"/>
    </contour>
    <contour>
      <point x="488" y="269" type="curve" smooth="yes"/>
      <point x="488" y="203"/>
      <point x="326" y="18"/>
      <point x="310" y="0" type="curve"/>
      <point x="246" y="0" type="line"/>
      <point x="233" y="172" type="line"/>
      <point x="199" y="110"/>
      <point x="158" y="44"/>
      <point x="127" y="0" type="curve"/>
      <point x="59" y="0" type="line"/>
      <point x="67" y="16" type="line"/>
      <point x="49" y="262" type="line"/>
      <point x="0" y="266" type="line"/>
      <point x="0" y="286" type="line"/>
      <point x="87" y="307" type="line"/>
      <point x="134" y="300" type="line"/>
      <point x="146" y="119" type="line"/>
      <point x="176" y="173"/>
      <point x="207" y="235"/>
      <point x="235" y="292" type="curve"/>
      <point x="309" y="300" type="line"/>
      <point x="324" y="89" type="line"/>
      <point x="354" y="129"/>
      <point x="395" y="183"/>
      <point x="416" y="226" type="curve"/>
      <point x="392" y="289" type="line"/>
      <point x="396" y="294"/>
      <point x="409" y="307"/>
      <point x="435" y="307" type="curve" smooth="yes"/>
      <point x="470" y="307"/>
      <point x="488" y="279"/>
    </contour>
  </outline>
</glyph>
<glyph name="uni02AE" format="1">
  <advance width="598"/>
  <unicode hex="02AE"/>
  <outline>
    <contour>
      <point x="571" y="488" type="line"/>
      <point x="437" y="-153" type="line"/>
      <point x="525" y="-162" type="line"/>
      <point x="525" y="-197" type="line"/>
      <point x="356" y="-229" type="line"/>
      <point x="288" y="-229" type="line"/>
      <point x="342" y="34" type="line"/>
      <point x="302" y="9"/>
      <point x="249" y="-12"/>
      <point x="190" y="-12" type="curve" smooth="yes"/>
      <point x="91" y="-12"/>
      <point x="58" y="44"/>
      <point x="76" y="128" type="curve" smooth="yes"/>
      <point x="111" y="296" type="line" smooth="yes"/>
      <point x="125" y="366"/>
      <point x="143" y="427"/>
      <point x="101" y="427" type="curve"/>
      <point x="21" y="364" type="line"/>
      <point x="-10" y="375"/>
      <point x="-24" y="388"/>
      <point x="-24" y="429" type="curve" smooth="yes"/>
      <point x="-24" y="465"/>
      <point x="26" y="500"/>
      <point x="88" y="500" type="curve" smooth="yes"/>
      <point x="235" y="500"/>
      <point x="269" y="417"/>
      <point x="248" y="317" type="curve" smooth="yes"/>
      <point x="211" y="139" type="line" smooth="yes"/>
      <point x="201" y="91"/>
      <point x="225" y="63"/>
      <point x="246" y="63" type="curve" smooth="yes"/>
      <point x="276" y="63"/>
      <point x="323" y="96"/>
      <point x="364" y="138" type="curve"/>
      <point x="437" y="488" type="line"/>
    </contour>
  </outline>
</glyph>
<glyph name="uni02B0" format="1">
  <advance width="369"/>
  <unicode hex="02B0"/>
  <outline>
    <contour>
      <point x="417" y="399" type="line"/>
      <point x="384" y="385"/>
      <point x="351" y="376"/>
      <point x="316" y="376" type="curve" smooth="yes"/>
      <point x="286" y="376"/>
      <point x="249" y="386"/>
      <point x="256" y="417" type="curve" smooth="yes"/>
      <point x="295" y="592" type="line" smooth="yes"/>
      <point x="302" y="621"/>
      <point x="286" y="636"/>
      <point x="273" y="636" type="curve" smooth="yes"/>
      <point x="253" y="636"/>
      <point x="222" y="618"/>
      <point x="196" y="593" type="curve"/>
      <point x="148" y="383" type="line"/>
      <point x="62" y="383" type="line"/>
      <point x="152" y="779" type="line"/>
      <point x="95" y="784" type="line"/>
      <point x="95" y="806" type="line"/>
      <point x="205" y="825" type="line"/>
      <point x="249" y="825" type="line"/>
      <point x="210" y="655" type="line"/>
      <point x="236" y="670"/>
      <point x="270" y="681"/>
      <point x="309" y="681" type="curve" smooth="yes"/>
      <point x="373" y="681"/>
      <point x="395" y="649"/>
      <point x="383" y="599" type="curve" smooth="yes"/>
      <point x="347" y="439" type="line" smooth="yes"/>
      <point x="343" y="419"/>
      <point x="355" y="413"/>
      <point x="362" y="413" type="curve" smooth="yes"/>
      <point x="381" y="413"/>
      <point x="396" y="419"/>
      <point x="416" y="429" type="curve"/>
    </contour>
  </outline>
</glyph>
<glyph name="uni02B5" format="1">
  <advance width="351"/>
  <unicode hex="02B5"/>
  <outline>
    <contour>
      <point x="340" y="288" type="curve" smooth="yes"/>
      <point x="340" y="266"/>
      <point x="318" y="246"/>
      <point x="277" y="246" type="curve" smooth="yes"/>
      <point x="187" y="246"/>
      <point x="148" y="291"/>
      <point x="148" y="341" type="curve" smooth="yes"/>
      <point x="148" y="349"/>
      <point x="148" y="357"/>
      <point x="150" y="366" type="curve" smooth="yes"/>
      <point x="150" y="366"/>
      <point x="157" y="400"/>
      <point x="161" y="417" type="curve"/>
      <point x="138" y="395"/>
      <point x="105" y="376"/>
      <point x="72" y="376" type="curve" smooth="yes"/>
      <point x="38" y="376"/>
      <point x="23" y="401"/>
      <point x="23" y="419" type="curve" smooth="yes"/>
      <point x="23" y="446"/>
      <point x="41" y="459"/>
      <point x="84" y="459" type="curve"/>
      <point x="102" y="428" type="line"/>
      <point x="143" y="447"/>
      <point x="176" y="482"/>
      <point x="185" y="518" type="curve" smooth="yes"/>
      <point x="221" y="676" type="line"/>
      <point x="307" y="676" type="line"/>
      <point x="239" y="372" type="line" smooth="yes"/>
      <point x="235" y="353"/>
      <point x="231" y="336"/>
      <point x="231" y="321" type="curve" smooth="yes"/>
      <point x="231" y="307"/>
      <point x="240" y="287"/>
      <point x="257" y="287" type="curve"/>
      <point x="300" y="332" type="line"/>
      <point x="328" y="322"/>
      <point x="340" y="309"/>
    </contour>
  </outline>
</glyph>
<glyph name="uni02C4" format="1">
  <advance width="476"/>
  <unicode hex="02C4"/>
  <outline>
    <contour>
      <point x="426" y="415" type="line"/>
      <point x="381" y="415" type="line"/>
      <point x="238" y="737" type="line"/>
      <point x="95" y="415" type="line"/>
      <point x="50" y="415" type="line"/>
      <point x="216" y="775" type="line"/>
      <point x="260" y="775" type="line"/>
    </contour>
  </outline>
</glyph>
<glyph name="uni02CB" format="1">
  <advance width="244"/>
  <unicode hex="02CB"/>
  <outline>
    <contour>
      <point x="330" y="551" type="line"/>
      <point x="260" y="551" type="line"/>
      <point x="98" y="639" type="line" smooth="yes"/>
      <point x="84" y="647"/>
      <point x="73" y="668"/>
      <point x="73" y="681" type="curve" smooth="yes"/>
      <point x="73" y="705"/>
      <point x="87" y="734"/>
      <point x="130" y="734" type="curve" smooth="yes"/>
      <point x="157" y="734"/>
      <point x="170" y="727"/>
      <point x="193" y="702" type="curve" smooth="yes"/>
    </contour>
  </outline>
</glyph>
<glyph name="uni02CD" format="1">
  <advance width="339"/>
  <unicode hex="02CD"/>
  <outline>
    <contour>
      <point x="271" y="-85" type="line"/>
      <point x="255" y="-166" type="line"/>
      <point x="-85" y="-166" type="line"/>
      <point x="-69" y="-85" type="line"/>
    </contour>
  </outline>
</glyph>
<glyph name="uni02D2" format="1">
  <advance width="287"/>
  <unicode hex="02D2"/>
  <outline>
    <contour>
      <point x="224" y="229" type="curve" smooth="yes"/>
      <point x="224" y="93"/>
      <point x="133" y="0"/>
      <point x="-2" y="0" type="curve"/>
      <point x="11" y="67" type="line"/>
      <point x="105" y="67"/>
      <point x="152" y="125"/>
      <point x="152" y="218" type="curve" smooth="yes"/>
      <point x="152" y="279"/>
      <point x="109" y="294"/>
      <point x="56" y="294" type="curve"/>
      <point x="69" y="361" type="line"/>
      <point x="156" y="361"/>
      <point x="224" y="324"/>
    </contour>
  </outline>
</glyph>
<glyph name="ogonek" format="1">
  <advance width="225"/>
  <unicode hex="02DB"/>
  <outline>
    <contour>
      <point x="118" y="-128" type="line"/>
      <point x="93" y="-139"/>
      <point x="43" y="-159"/>
      <point x="17" y="-159" type="curve" smooth="yes"/>
      <point x="-26" y="-159"/>
      <point x="-78" y="-142"/>
      <point x="-78" y="-91" type="curve" smooth="yes"/>
      <point x="-78" y="-32"/>
      <point x="-18" y="21"/>
      <point x="29" y="50" type="curve"/>
      <point x="92" y="50" type="line"/>
      <point x="55" y="26"/>
      <point x="7" y="-14"/>
      <point x="7" y="-62" type="curve" smooth="yes"/>
      <point x="7" y="-87"/>
      <point x="25" y="-101"/>
      <point x="49" y="-101" type="curve" smooth="yes"/>
      <point x="62" y="-101"/>
      <point x="86" y="-84"/>
      <point x="98" y="-76" type="curve"/>
    </contour>
  </outline>
</glyph>
<glyph name="tilde" format="1">
  <advance width="351"/>
  <unicode hex="02DC"/>
  <outline>
    <contour>
      <point x="439" y="709" type="line"/>
      <point x="409" y="640"/>
      <point x="362" y="585"/>
      <point x="294" y="585" type="curve" smooth="yes"/>
      <point x="241" y="585"/>
      <point x="230" y="633"/>
      <point x="170" y="633" type="curve" smooth="yes"/>
      <point x="149" y="633"/>
      <point x="126" y="612"/>
      <point x="117" y="585" type="curve"/>
      <point x="63" y="585" type="line"/>
      <point x="94" y="654"/>
      <point x="141" y="709"/>
      <point x="208" y="709" type="curve" smooth="yes"/>
      <point x="261" y="709"/>
      <point x="272" y="662"/>
      <point x="332" y="662" type="curve" smooth="yes"/>
      <point x="353" y="662"/>
      <point x="377" y="683"/>
      <point x="385" y="709" type="curve"/>
    </contour>
  </outline>
</glyph>
<glyph name="uni02E0" format="1">
  <advance width="331"/>
  <unicode hex="02E0"/>
  <outline>
    <contour>
      <point x="389" y="644" type="curve" smooth="yes"/>
      <point x="389" y="624"/>
      <point x="379" y="607"/>
      <point x="375" y="600" type="curve" smooth="yes"/>
      <point x="334" y="532"/>
      <point x="298" y="486"/>
      <point x="229" y="428" type="curve"/>
      <point x="231" y="417"/>
      <point x="240" y="330"/>
      <point x="240" y="323" type="curve" smooth="yes"/>
      <point x="240" y="286"/>
      <point x="192" y="245"/>
      <point x="147" y="245" type="curve" smooth="yes"/>
      <point x="94" y="245"/>
      <point x="65" y="273"/>
      <point x="65" y="309" type="curve" smooth="yes"/>
      <point x="65" y="345"/>
      <point x="115" y="397"/>
      <point x="146" y="420" type="curve"/>
      <point x="140" y="477"/>
      <point x="132" y="577"/>
      <point x="117" y="628" type="curve" smooth="yes"/>
      <point x="115" y="637"/>
      <point x="111" y="638"/>
      <point x="102" y="639" type="curve" smooth="yes"/>
      <point x="102" y="639"/>
      <point x="79" y="639"/>
      <point x="57" y="640" type="curve"/>
      <point x="57" y="662" type="line"/>
      <point x="133" y="683" type="line"/>
      <point x="178" y="682"/>
      <point x="202" y="668"/>
      <point x="205" y="638" type="curve" smooth="yes"/>
      <point x="223" y="480" type="line"/>
      <point x="270" y="524"/>
      <point x="299" y="557"/>
      <point x="316" y="595" type="curve"/>
      <point x="285" y="667" type="line"/>
      <point x="296" y="676"/>
      <point x="316" y="683"/>
      <point x="335" y="683" type="curve" smooth="yes"/>
      <point x="366" y="683"/>
      <point x="389" y="667"/>
    </contour>
    <contour>
      <point x="157" y="328" type="curve" smooth="yes"/>
      <point x="157" y="331"/>
      <point x="154" y="358"/>
      <point x="153" y="366" type="curve"/>
      <point x="136" y="354"/>
      <point x="114" y="323"/>
      <point x="114" y="310" type="curve" smooth="yes"/>
      <point x="114" y="293"/>
      <point x="125" y="286"/>
      <point x="136" y="286" type="curve" smooth="yes"/>
      <point x="149" y="286"/>
      <point x="157" y="295"/>
    </contour>
  </outline>
</glyph>
<glyph name="uni02E1" format="1">
  <advance width="198"/>
  <unicode hex="02E1"/>
  <outline>
    <contour>
      <point x="252" y="400" type="line"/>
      <point x="221" y="385"/>
      <point x="183" y="376"/>
      <point x="149" y="376" type="curve" smooth="yes"/>
      <point x="106" y="376"/>
      <point x="81" y="394"/>
      <point x="81" y="421" type="curve" smooth="yes"/>
      <point x="81" y="428"/>
      <point x="81" y="435"/>
      <point x="83" y="443" type="curve" smooth="yes"/>
      <point x="154" y="779" type="line"/>
      <point x="97" y="784" type="line"/>
      <point x="97" y="806" type="line"/>
      <point x="207" y="825" type="line"/>
      <point x="250" y="825" type="line"/>
      <point x="170" y="444" type="line" smooth="yes"/>
      <point x="167" y="430"/>
      <point x="170" y="415"/>
      <point x="186" y="415" type="curve" smooth="yes"/>
      <point x="197" y="415"/>
      <point x="222" y="421"/>
      <point x="252" y="433" type="curve"/>
    </contour>
  </outline>
</glyph>
<glyph name="uni02E8" format="1">
  <advance width="418"/>
  <unicode hex="02E8"/>
  <outline>
    <contour>
      <point x="76" y="162" type="line" smooth="yes"/>
      <point x="55" y="162"/>
      <point x="38" y="179"/>
      <point x="38" y="200" type="curve" smooth="yes"/>
      <point x="38" y="221"/>
      <point x="55" y="237"/>
      <point x="76" y="237" type="curve" smooth="yes"/>
      <point x="309" y="237" type="line" smooth="yes"/>
      <point x="330" y="237"/>
      <point x="347" y="221"/>
      <point x="347" y="200" type="curve" smooth="yes"/>
      <point x="347" y="179"/>
      <point x="330" y="162"/>
      <point x="309" y="162" type="curve" smooth="yes"/>
    </contour>
    <contour>
      <point x="316" y="31" type="line" smooth="yes"/>
      <point x="312" y="10"/>
      <point x="293" y="-4"/>
      <point x="272" y="0" type="curve" smooth="yes"/>
      <point x="251" y="4"/>
      <point x="238" y="23"/>
      <point x="242" y="44" type="curve" smooth="yes"/>
      <point x="365" y="692" type="line" smooth="yes"/>
      <point x="369" y="713"/>
      <point x="388" y="726"/>
      <point x="409" y="722" type="curve" smooth="yes"/>
      <point x="430" y="718"/>
      <point x="443" y="699"/>
      <point x="439" y="678" type="curve" smooth="yes"/>
    </contour>
  </outline>
</glyph>
<glyph name="uni02EE" format="1">
  <advance width="502"/>
  <unicode hex="02EE"/>
  <outline>
    <contour>
      <point x="542" y="663" type="curve" smooth="yes"/>
      <point x="542" y="553"/>
      <point x="436" y="458"/>
      <point x="336" y="430" type="curve"/>
      <point x="326" y="468" type="line"/>
      <point x="394" y="491"/>
      <point x="440" y="545"/>
      <point x="453" y="615" type="curve"/>
      <point x="393" y="615" type="line"/>
      <point x="386" y="627"/>
      <point x="382" y="642"/>
      <point x="382" y="656" type="curve" smooth="yes"/>
      <point x="382" y="703"/>
      <point x="426" y="742"/>
      <point x="472" y="742" type="curve" smooth="yes"/>
      <point x="520" y="742"/>
      <point x="542" y="708"/>
    </contour>
    <contour>
      <point x="315" y="663" type="curve" smooth="yes"/>
      <point x="315" y="553"/>
      <point x="209" y="458"/>
      <point x="109" y="430" type="curve"/>
      <point x="99" y="468" type="line"/>
      <point x="167" y="491"/>
      <point x="213" y="545"/>
      <point x="226" y="615" type="curve"/>
      <point x="166" y="615" type="line"/>
      <point x="159" y="627"/>
      <point x="155" y="642"/>
      <point x="155" y="656" type="curve" smooth="yes"/>
      <point x="155" y="703"/>
      <point x="199" y="742"/>
      <point x="245" y="742" type="curve" smooth="yes"/>
      <point x="293" y="742"/>
      <point x="315" y="708"/>
    </contour>
  </outline>
</glyph>
<glyph name="tildecomb" format="1">
  <advance width="0"/>
  <unicode hex="0303"/>
  <outline>
    <contour>
      <point x="-13" y="709" type="line"/>
      <point x="-43" y="640"/>
      <point x="-90" y="585"/>
      <point x="-158" y="585" type="curve" smooth="yes"/>
      <point x="-211" y="585"/>
      <point x="-222" y="633"/>
      <point x="-282" y="633" type="curve" smooth="yes"/>
      <point x="-303" y="633"/>
      <point x="-326" y="612"/>
      <point x="-335" y="585" type="curve"/>
      <point x="-389" y="585" type="line"/>
      <point x="-358" y="654"/>
      <point x="-311" y="709"/>
      <point x="-244" y="709" type="curve" smooth="yes"/>
      <point x="-191" y="709"/>
      <point x="-180" y="662"/>
      <point x="-120" y="662" type="curve" smooth="yes"/>
      <point x="-99" y="662"/>
      <point x="-75" y="683"/>
      <point x="-67" y="709" type="curve"/>
    </contour>
  </outline>
</glyph>
<glyph name="uni0306" format="1">
  <advance width="0"/>
  <unicode hex="0306"/>
  <outline>
    <contour>
      <point x="-25" y="714" type="line"/>
      <point x="-43" y="619"/>
      <point x="-114" y="551"/>
      <point x="-213" y="551" type="curve" smooth="yes"/>
      <point x="-291" y="551"/>
      <point x="-342" y="593"/>
      <point x="-342" y="672" type="curve" smooth="yes"/>
      <point x="-342" y="686"/>
      <point x="-340" y="700"/>
      <point x="-337" y="714" type="curve"/>
      <point x="-285" y="714" type="line"/>
      <point x="-284" y="660"/>
      <point x="-249" y="632"/>
      <point x="-197" y="632" type="curve" smooth="yes"/>
      <point x="-142" y="632"/>
      <point x="-98" y="663"/>
      <point x="-77" y="714" type="curve"/>
    </contour>
  </outline>
</glyph>
<glyph name="uni0307" format="1">
  <advance width="0"/>
  <unicode hex="0307"/>
  <outline>
    <contour>
      <point x="-134" y="653" type="curve" smooth="yes"/>
      <point x="-134" y="616"/>
      <point x="-163" y="585"/>
      <point x="-201" y="585" type="curve" smooth="yes"/>
      <point x="-240" y="585"/>
      <point x="-269" y="614"/>
      <point x="-269" y="653" type="curve" smooth="yes"/>
      <point x="-269" y="693"/>
      <point x="-242" y="726"/>
      <point x="-202" y="726" type="curve" smooth="yes"/>
      <point x="-163" y="726"/>
      <point x="-134" y="694"/>
    </contour>
  </outline>
</glyph>
<glyph name="hookabovecomb" format="1">
  <advance width="0"/>
  <unicode hex="0309"/>
  <outline>
    <contour>
      <point x="-103" y="707" type="curve" smooth="yes"/>
      <point x="-103" y="652"/>
      <point x="-151" y="626"/>
      <point x="-196" y="609" type="curve"/>
      <point x="-208" y="551" type="line"/>
      <point x="-239" y="551" type="line"/>
      <point x="-224" y="629" type="line"/>
      <point x="-192" y="637"/>
      <point x="-163" y="653"/>
      <point x="-156" y="686" type="curve" smooth="yes"/>
      <point x="-150" y="716"/>
      <point x="-162" y="738"/>
      <point x="-178" y="738" type="curve" smooth="yes"/>
      <point x="-185" y="738"/>
      <point x="-192" y="736"/>
      <point x="-198" y="730" type="curve" smooth="yes"/>
      <point x="-217" y="692" type="line"/>
      <point x="-217" y="692"/>
      <point x="-229" y="686"/>
      <point x="-241" y="686" type="curve" smooth="yes"/>
      <point x="-262" y="686"/>
      <point x="-262" y="702"/>
      <point x="-262" y="715" type="curve" smooth="yes"/>
      <point x="-262" y="732"/>
      <point x="-217" y="766"/>
      <point x="-171" y="766" type="curve" smooth="yes"/>
      <point x="-127" y="766"/>
      <point x="-103" y="741"/>
    </contour>
  </outline>
</glyph>
<glyph name="uni030B" format="1">
  <advance width="0"/>
  <unicode hex="030B"/>
  <outline>
    <contour>
      <point x="101" y="681" type="curve" smooth="yes"/>
      <point x="101" y="668"/>
      <point x="90" y="647"/>
      <point x="76" y="639" type="curve" smooth="yes"/>
      <point x="-86" y="551" type="line"/>
      <point x="-156" y="551" type="line"/>
      <point x="-19" y="702" type="line" smooth="yes"/>
      <point x="3" y="727"/>
      <point x="17" y="734"/>
      <point x="44" y="734" type="curve" smooth="yes"/>
      <point x="87" y="734"/>
      <point x="101" y="705"/>
    </contour>
    <contour>
      <point x="-128" y="681" type="curve" smooth="yes"/>
      <point x="-128" y="668"/>
      <point x="-139" y="647"/>
      <point x="-153" y="639" type="curve" smooth="yes"/>
      <point x="-315" y="551" type="line"/>
      <point x="-385" y="551" type="line"/>
      <point x="-248" y="702" type="line" smooth="yes"/>
      <point x="-226" y="727"/>
      <point x="-212" y="734"/>
      <point x="-185" y="734" type="curve" smooth="yes"/>
      <point x="-142" y="734"/>
      <point x="-128" y="705"/>
    </contour>
  </outline>
</glyph>
<glyph name="uni030E" format="1">
  <advance width="0"/>
  <unicode hex="030E"/>
  <outline>
    <contour>
      <point x="-77" y="735" type="line"/>
      <point x="-114" y="551" type="line"/>
      <point x="-176" y="551" type="line"/>
      <point x="-139" y="735" type="line"/>
    </contour>
    <contour>
      <point x="-214" y="735" type="line"/>
      <point x="-250" y="551" type="line"/>
      <point x="-312" y="551" type="line"/>
      <point x="-276" y="735" type="line"/>
    </contour>
  </outline>
</glyph>
<glyph name="uni0313" format="1">
  <advance width="0"/>
  <unicode hex="0313"/>
  <outline>
    <contour>
      <point x="-108" y="700" type="curve" smooth="yes"/>
      <point x="-108" y="616"/>
      <point x="-207" y="564"/>
      <point x="-278" y="551" type="curve"/>
      <point x="-270" y="591" type="line"/>
      <point x="-237" y="600"/>
      <point x="-192" y="628"/>
      <point x="-184" y="665" type="curve"/>
      <point x="-247" y="665" type="line"/>
      <point x="-256" y="674"/>
      <point x="-260" y="686"/>
      <point x="-260" y="698" type="curve" smooth="yes"/>
      <point x="-260" y="742"/>
      <point x="-219" y="767"/>
      <point x="-180" y="767" type="curve" smooth="yes"/>
      <point x="-139" y="767"/>
      <point x="-108" y="742"/>
    </contour>
  </outline>
</glyph>
<glyph name="uni0314" format="1">
  <advance width="0"/>
  <unicode hex="0314"/>
  <outline>
    <contour>
      <point x="-106" y="740" type="curve" smooth="yes"/>
      <point x="-106" y="712"/>
      <point x="-119" y="684"/>
      <point x="-138" y="665" type="curve"/>
      <point x="-197" y="665" type="line"/>
      <point x="-201" y="651"/>
      <point x="-207" y="637"/>
      <point x="-207" y="622" type="curve" smooth="yes"/>
      <point x="-207" y="575"/>
      <point x="-167" y="542"/>
      <point x="-130" y="519" type="curve"/>
      <point x="-154" y="480" type="line"/>
      <point x="-227" y="501"/>
      <point x="-281" y="569"/>
      <point x="-281" y="646" type="curve" smooth="yes"/>
      <point x="-281" y="713"/>
      <point x="-244" y="792"/>
      <point x="-167" y="792" type="curve" smooth="yes"/>
      <point x="-132" y="792"/>
      <point x="-106" y="777"/>
    </contour>
  </outline>
</glyph>
<glyph name="uni0317" format="1">
  <advance width="0"/>
  <unicode hex="0317"/>
  <outline>
    <contour>
      <point x="-234" y="-115" type="curve" smooth="yes"/>
      <point x="-234" y="-127"/>
      <point x="-245" y="-148"/>
      <point x="-260" y="-156" type="curve" smooth="yes"/>
      <point x="-421" y="-245" type="line"/>
      <point x="-491" y="-245" type="line"/>
      <point x="-354" y="-93" type="line" smooth="yes"/>
      <point x="-332" y="-68"/>
      <point x="-318" y="-61"/>
      <point x="-291" y="-61" type="curve" smooth="yes"/>
      <point x="-248" y="-61"/>
      <point x="-234" y="-90"/>
    </contour>
  </outline>
</glyph>
<glyph name="uni031C" format="1">
  <advance width="0"/>
  <unicode hex="031C"/>
  <outline>
    <contour>
      <point x="-278" y="-61" type="curve"/>
      <point x="-287" y="-101" type="line"/>
      <point x="-344" y="-101"/>
      <point x="-377" y="-132"/>
      <point x="-377" y="-190" type="curve" smooth="yes"/>
      <point x="-377" y="-229"/>
      <point x="-346" y="-237"/>
      <point x="-313" y="-237" type="curve"/>
      <point x="-321" y="-277" type="line"/>
      <point x="-375" y="-277"/>
      <point x="-423" y="-257"/>
      <point x="-423" y="-197" type="curve" smooth="yes"/>
      <point x="-423" y="-111"/>
      <point x="-360" y="-61"/>
    </contour>
  </outline>
</glyph>
<glyph name="uni031E" format="1">
  <advance width="0"/>
  <unicode hex="031E"/>
  <outline>
    <contour>
      <point x="-246" y="-61" type="line"/>
      <point x="-257" y="-116" type="line"/>
      <point x="-322" y="-116" type="line"/>
      <point x="-338" y="-195" type="line"/>
      <point x="-392" y="-195" type="line"/>
      <point x="-377" y="-116" type="line"/>
      <point x="-442" y="-116" type="line"/>
      <point x="-431" y="-61" type="line"/>
    </contour>
  </outline>
</glyph>
<glyph name="uni0325" format="1">
  <advance width="0"/>
  <unicode hex="0325"/>
  <outline>
    <contour>
      <point x="-235" y="-163" type="curve" smooth="yes"/>
      <point x="-235" y="-243"/>
      <point x="-310" y="-313"/>
      <point x="-389" y="-313" type="curve" smooth="yes"/>
      <point x="-448" y="-313"/>
      <point x="-493" y="-272"/>
      <point x="-493" y="-212" type="curve" smooth="yes"/>
      <point x="-493" y="-133"/>
      <point x="-418" y="-61"/>
      <point x="-339" y="-61" type="curve" smooth="yes"/>
      <point x="-280" y="-61"/>
      <point x="-235" y="-103"/>
    </contour>
    <contour>
      <point x="-299" y="-175" type="curve" smooth="yes"/>
      <point x="-299" y="-145"/>
      <point x="-322" y="-124"/>
      <point x="-351" y="-124" type="curve" smooth="yes"/>
      <point x="-391" y="-124"/>
      <point x="-428" y="-160"/>
      <point x="-428" y="-200" type="curve" smooth="yes"/>
      <point x="-428" y="-229"/>
      <point x="-406" y="-250"/>
      <point x="-377" y="-250" type="curve" smooth="yes"/>
      <point x="-337" y="-250"/>
      <point x="-299" y="-215"/>
    </contour>
  </outline>
</glyph>
<glyph name="uni032B" format="1">
  <advance width="0"/>
  <unicode hex="032B"/>
  <outline>
    <contour>
      <point x="-176" y="-85" type="line"/>
      <point x="-188" y="-147"/>
      <point x="-234" y="-188"/>
      <point x="-297" y="-188" type="curve" smooth="yes"/>
      <point x="-321" y="-188"/>
      <point x="-347" y="-181"/>
      <point x="-358" y="-158" type="curve"/>
      <point x="-376" y="-179"/>
      <point x="-402" y="-188"/>
      <point x="-430" y="-188" type="curve" smooth="yes"/>
      <point x="-479" y="-188"/>
      <point x="-514" y="-162"/>
      <point x="-514" y="-111" type="curve" smooth="yes"/>
      <point x="-514" y="-102"/>
      <point x="-513" y="-94"/>
      <point x="-511" y="-85" type="curve"/>
      <point x="-477" y="-85" type="line"/>
      <point x="-476" y="-120"/>
      <point x="-453" y="-137"/>
      <point x="-420" y="-137" type="curve" smooth="yes"/>
      <point x="-392" y="-137"/>
      <point x="-378" y="-129"/>
      <point x="-363" y="-105" type="curve"/>
      <point x="-331" y="-105" type="line"/>
      <point x="-325" y="-131"/>
      <point x="-313" y="-137"/>
      <point x="-288" y="-137" type="curve" smooth="yes"/>
      <point x="-253" y="-137"/>
      <point x="-223" y="-118"/>
      <point x="-210" y="-85" type="curve"/>
    </contour>
  </outline>
</glyph>
<glyph name="uni032F" format="1">
  <advance width="0"/>
  <unicode hex="032F"/>
  <outline>
    <contour>
      <point x="-210" y="-183" type="curve" smooth="yes"/>
      <point x="-210" y="-197"/>
      <point x="-212" y="-210"/>
      <point x="-215" y="-224" type="curve"/>
      <point x="-268" y="-224" type="line"/>
      <point x="-269" y="-171"/>
      <point x="-303" y="-143"/>
      <point x="-354" y="-143" type="curve" smooth="yes"/>
      <point x="-409" y="-143"/>
      <point x="-454" y="-174"/>
      <point x="-475" y="-224" type="curve"/>
      <point x="-528" y="-224" type="line"/>
      <point x="-509" y="-129"/>
      <point x="-439" y="-61"/>
      <point x="-339" y="-61" type="curve" smooth="yes"/>
      <point x="-262" y="-61"/>
      <point x="-210" y="-103"/>
    </contour>
  </outline>
</glyph>
<glyph name="uni0331" format="1">
  <advance width="0"/>
  <unicode hex="0331"/>
  <outline>
    <contour>
      <point x="-160" y="-85" type="line"/>
      <point x="-176" y="-166" type="line"/>
      <point x="-516" y="-166" type="line"/>
      <point x="-500" y="-85" type="line"/>
    </contour>
  </outline>
</glyph>
<glyph name="uni033C" format="1">
  <advance width="0"/>
  <unicode hex="033C"/>
  <outline>
    <contour>
      <point x="-194" y="-163" type="curve" smooth="yes"/>
      <point x="-194" y="-171"/>
      <point x="-195" y="-180"/>
      <point x="-197" y="-188" type="curve"/>
      <point x="-231" y="-188" type="line"/>
      <point x="-231" y="-153"/>
      <point x="-256" y="-137"/>
      <point x="-289" y="-137" type="curve" smooth="yes"/>
      <point x="-317" y="-137"/>
      <point x="-329" y="-145"/>
      <point x="-344" y="-168" type="curve"/>
      <point x="-377" y="-168" type="line"/>
      <point x="-382" y="-142"/>
      <point x="-396" y="-137"/>
      <point x="-421" y="-137" type="curve" smooth="yes"/>
      <point x="-456" y="-137"/>
      <point x="-485" y="-156"/>
      <point x="-498" y="-188" type="curve"/>
      <point x="-532" y="-188" type="line"/>
      <point x="-520" y="-127"/>
      <point x="-474" y="-85"/>
      <point x="-411" y="-85" type="curve" smooth="yes"/>
      <point x="-387" y="-85"/>
      <point x="-361" y="-92"/>
      <point x="-350" y="-116" type="curve"/>
      <point x="-332" y="-94"/>
      <point x="-306" y="-85"/>
      <point x="-278" y="-85" type="curve" smooth="yes"/>
      <point x="-229" y="-85"/>
      <point x="-194" y="-111"/>
    </contour>
  </outline>
</glyph>
<glyph name="uni033F" format="1">
  <advance width="0"/>
  <unicode hex="033F"/>
  <outline>
    <contour>
      <point x="149" y="667" type="line"/>
      <point x="134" y="586" type="line"/>
      <point x="-550" y="586" type="line"/>
      <point x="-534" y="667" type="line"/>
    </contour>
    <contour>
      <point x="178" y="796" type="line"/>
      <point x="163" y="715" type="line"/>
      <point x="-521" y="715" type="line"/>
      <point x="-504" y="796" type="line"/>
    </contour>
  </outline>
</glyph>
<glyph name="uni034A" format="1">
  <advance width="0"/>
  <unicode hex="034A"/>
  <outline>
    <contour>
      <point x="-259" y="536" type="line"/>
      <point x="-295" y="568" type="line"/>
      <point x="-244" y="625" type="line"/>
      <point x="-256" y="630"/>
      <point x="-270" y="633"/>
      <point x="-285" y="633" type="curve" smooth="yes"/>
      <point x="-306" y="633"/>
      <point x="-339" y="612"/>
      <point x="-348" y="585" type="curve"/>
      <point x="-402" y="585" type="line"/>
      <point x="-371" y="654"/>
      <point x="-314" y="709"/>
      <point x="-247" y="709" type="curve" smooth="yes"/>
      <point x="-224" y="709"/>
      <point x="-206" y="700"/>
      <point x="-187" y="690" type="curve"/>
      <point x="-126" y="758" type="line"/>
      <point x="-90" y="726" type="line"/>
      <point x="-141" y="668" type="line"/>
      <point x="-130" y="664"/>
      <point x="-118" y="662"/>
      <point x="-104" y="662" type="curve" smooth="yes"/>
      <point x="-83" y="662"/>
      <point x="-49" y="683"/>
      <point x="-41" y="709" type="curve"/>
      <point x="13" y="709" type="line"/>
      <point x="-17" y="640"/>
      <point x="-74" y="585"/>
      <point x="-142" y="585" type="curve" smooth="yes"/>
      <point x="-163" y="585"/>
      <point x="-181" y="594"/>
      <point x="-199" y="603" type="curve"/>
    </contour>
  </outline>
</glyph>
<glyph name="uni034B" format="1">
  <advance width="0"/>
  <unicode hex="034B"/>
  <outline>
    <contour>
      <point x="-211" y="593" type="curve" smooth="yes"/>
      <point x="-211" y="570"/>
      <point x="-225" y="557"/>
      <point x="-247" y="557" type="curve" smooth="yes"/>
      <point x="-268" y="557"/>
      <point x="-283" y="571"/>
      <point x="-283" y="593" type="curve" smooth="yes"/>
      <point x="-283" y="614"/>
      <point x="-268" y="629"/>
      <point x="-247" y="629" type="curve" smooth="yes"/>
      <point x="-225" y="629"/>
      <point x="-211" y="615"/>
    </contour>
    <contour>
      <point x="-84" y="785" type="curve" smooth="yes"/>
      <point x="-84" y="762"/>
      <point x="-98" y="749"/>
      <point x="-120" y="749" type="curve" smooth="yes"/>
      <point x="-141" y="749"/>
      <point x="-156" y="763"/>
      <point x="-156" y="785" type="curve" smooth="yes"/>
      <point x="-156" y="806"/>
      <point x="-141" y="821"/>
      <point x="-120" y="821" type="curve" smooth="yes"/>
      <point x="-98" y="821"/>
      <point x="-84" y="807"/>
    </contour>
    <contour>
      <point x="4" y="751" type="line"/>
      <point x="-26" y="682"/>
      <point x="-73" y="627"/>
      <point x="-141" y="627" type="curve" smooth="yes"/>
      <point x="-194" y="627"/>
      <point x="-205" y="675"/>
      <point x="-265" y="675" type="curve" smooth="yes"/>
      <point x="-286" y="675"/>
      <point x="-309" y="654"/>
      <point x="-318" y="627" type="curve"/>
      <point x="-372" y="627" type="line"/>
      <point x="-341" y="696"/>
      <point x="-294" y="751"/>
      <point x="-227" y="751" type="curve" smooth="yes"/>
      <point x="-174" y="751"/>
      <point x="-163" y="704"/>
      <point x="-103" y="704" type="curve" smooth="yes"/>
      <point x="-82" y="704"/>
      <point x="-58" y="725"/>
      <point x="-50" y="751" type="curve"/>
    </contour>
  </outline>
</glyph>
<glyph name="uni0359" format="1">
  <advance width="0"/>
  <unicode hex="0359"/>
  <outline>
    <contour>
      <point x="-216" y="-138" type="line"/>
      <point x="-247" y="-183" type="line"/>
      <point x="-337" y="-182" type="line"/>
      <point x="-341" y="-172" type="line"/>
      <point x="-267" y="-117" type="line"/>
    </contour>
    <contour>
      <point x="-319" y="-76" type="line"/>
      <point x="-348" y="-164" type="line"/>
      <point x="-359" y="-164" type="line"/>
      <point x="-388" y="-76" type="line"/>
      <point x="-354" y="-35" type="line"/>
    </contour>
    <contour>
      <point x="-266" y="-246" type="line"/>
      <point x="-268" y="-301" type="line"/>
      <point x="-322" y="-287" type="line"/>
      <point x="-350" y="-200" type="line"/>
      <point x="-340" y="-191" type="line"/>
    </contour>
    <contour>
      <point x="-366" y="-172" type="line"/>
      <point x="-370" y="-182" type="line"/>
      <point x="-460" y="-183" type="line"/>
      <point x="-491" y="-138" type="line"/>
      <point x="-441" y="-117" type="line"/>
    </contour>
    <contour>
      <point x="-357" y="-200" type="line"/>
      <point x="-385" y="-287" type="line"/>
      <point x="-439" y="-301" type="line"/>
      <point x="-441" y="-246" type="line"/>
      <point x="-366" y="-191" type="line"/>
    </contour>
  </outline>
</glyph>
<glyph name="uni035C" format="1">
  <advance width="0"/>
  <unicode hex="035C"/>
  <outline>
    <contour>
      <point x="283" y="-215" type="line"/>
      <point x="211" y="-301"/>
      <point x="69" y="-349"/>
      <point x="-119" y="-349" type="curve" smooth="yes"/>
      <point x="-308" y="-349"/>
      <point x="-433" y="-303"/>
      <point x="-474" y="-215" type="curve"/>
      <point x="-432" y="-183" type="line"/>
      <point x="-396" y="-248"/>
      <point x="-249" y="-262"/>
      <point x="-106" y="-262" type="curve" smooth="yes"/>
      <point x="35" y="-262"/>
      <point x="194" y="-248"/>
      <point x="253" y="-183" type="curve"/>
    </contour>
  </outline>
</glyph>
<glyph name="uni035D" format="1">
  <advance width="0"/>
  <unicode hex="035D"/>
  <outline>
    <contour>
      <point x="525" y="912" type="line"/>
      <point x="453" y="826"/>
      <point x="311" y="777"/>
      <point x="123" y="777" type="curve" smooth="yes"/>
      <point x="-66" y="777"/>
      <point x="-191" y="824"/>
      <point x="-232" y="912" type="curve"/>
      <point x="-190" y="943" type="line"/>
      <point x="-154" y="878"/>
      <point x="-8" y="864"/>
      <point x="135" y="864" type="curve" smooth="yes"/>
      <point x="276" y="864"/>
      <point x="436" y="878"/>
      <point x="495" y="943" type="curve"/>
    </contour>
  </outline>
</glyph>
<glyph name="uni035F" format="1">
  <advance width="0"/>
  <unicode hex="035F"/>
  <outline>
    <contour>
      <point x="234" y="-267" type="line"/>
      <point x="218" y="-347" type="line"/>
      <point x="-465" y="-347" type="line"/>
      <point x="-449" y="-267" type="line"/>
    </contour>
  </outline>
</glyph>
<glyph name="uni0360" format="1">
  <advance width="0"/>
  <unicode hex="0360"/>
  <outline>
    <contour>
      <point x="615" y="888" type="line"/>
      <point x="587" y="836"/>
      <point x="506" y="771"/>
      <point x="378" y="771" type="curve" smooth="yes"/>
      <point x="138" y="771"/>
      <point x="64" y="839"/>
      <point x="-174" y="839" type="curve" smooth="yes"/>
      <point x="-292" y="839"/>
      <point x="-349" y="791"/>
      <point x="-373" y="751" type="curve"/>
      <point x="-399" y="787" type="line"/>
      <point x="-368" y="843"/>
      <point x="-305" y="912"/>
      <point x="-170" y="912" type="curve" smooth="yes"/>
      <point x="86" y="912"/>
      <point x="145" y="845"/>
      <point x="384" y="845" type="curve" smooth="yes"/>
      <point x="493" y="845"/>
      <point x="568" y="886"/>
      <point x="587" y="924" type="curve"/>
    </contour>
  </outline>
</glyph>
<glyph name="uni0366" format="1">
  <advance width="0"/>
  <unicode hex="0366"/>
  <outline>
    <contour>
      <point x="-21" y="748" type="curve" smooth="yes"/>
      <point x="-21" y="654"/>
      <point x="-92" y="559"/>
      <point x="-210" y="559" type="curve" smooth="yes"/>
      <point x="-300" y="559"/>
      <point x="-341" y="608"/>
      <point x="-341" y="674" type="curve" smooth="yes"/>
      <point x="-341" y="768"/>
      <point x="-274" y="866"/>
      <point x="-154" y="866" type="curve" smooth="yes"/>
      <point x="-74" y="866"/>
      <point x="-21" y="826"/>
    </contour>
    <contour>
      <point x="-116" y="750" type="curve" smooth="yes"/>
      <point x="-116" y="809"/>
      <point x="-145" y="834"/>
      <point x="-162" y="834" type="curve" smooth="yes"/>
      <point x="-201" y="834"/>
      <point x="-248" y="758"/>
      <point x="-248" y="677" type="curve" smooth="yes"/>
      <point x="-248" y="615"/>
      <point x="-219" y="592"/>
      <point x="-204" y="592" type="curve" smooth="yes"/>
      <point x="-158" y="592"/>
      <point x="-116" y="676"/>
    </contour>
  </outline>
</glyph>
<glyph name="uni0367" format="1">
  <advance width="0"/>
  <unicode hex="0367"/>
  <outline>
    <contour>
      <point x="-4" y="583" type="line"/>
      <point x="-22" y="574"/>
      <point x="-69" y="559"/>
      <point x="-107" y="559" type="curve" smooth="yes"/>
      <point x="-151" y="559"/>
      <point x="-160" y="579"/>
      <point x="-162" y="587" type="curve"/>
      <point x="-191" y="569"/>
      <point x="-223" y="559"/>
      <point x="-265" y="559" type="curve" smooth="yes"/>
      <point x="-330" y="559"/>
      <point x="-353" y="604"/>
      <point x="-345" y="636" type="curve" smooth="yes"/>
      <point x="-303" y="820" type="line"/>
      <point x="-357" y="826" type="line"/>
      <point x="-357" y="846" type="line"/>
      <point x="-250" y="866" type="line"/>
      <point x="-206" y="866" type="line"/>
      <point x="-259" y="636" type="line" smooth="yes"/>
      <point x="-263" y="618"/>
      <point x="-253" y="600"/>
      <point x="-238" y="600" type="curve" smooth="yes"/>
      <point x="-208" y="600"/>
      <point x="-182" y="617"/>
      <point x="-159" y="637" type="curve"/>
      <point x="-109" y="858" type="line"/>
      <point x="-22" y="858" type="line"/>
      <point x="-75" y="626" type="line" smooth="yes"/>
      <point x="-81" y="604"/>
      <point x="-72" y="595"/>
      <point x="-59" y="595" type="curve" smooth="yes"/>
      <point x="-52" y="595"/>
      <point x="-44" y="597"/>
      <point x="-4" y="617" type="curve"/>
    </contour>
  </outline>
</glyph>
<glyph name="uni036C" format="1">
  <advance width="0"/>
  <unicode hex="036C"/>
  <outline>
    <contour>
      <point x="-17" y="823" type="curve" smooth="yes"/>
      <point x="-17" y="795"/>
      <point x="-34" y="782"/>
      <point x="-78" y="782" type="curve"/>
      <point x="-94" y="814" type="line"/>
      <point x="-135" y="795"/>
      <point x="-169" y="761"/>
      <point x="-177" y="725" type="curve" smooth="yes"/>
      <point x="-213" y="566" type="line"/>
      <point x="-300" y="566" type="line"/>
      <point x="-242" y="820" type="line"/>
      <point x="-297" y="825" type="line"/>
      <point x="-297" y="846" type="line"/>
      <point x="-190" y="866" type="line"/>
      <point x="-145" y="866" type="line"/>
      <point x="-153" y="826" type="line"/>
      <point x="-130" y="848"/>
      <point x="-97" y="866"/>
      <point x="-65" y="866" type="curve" smooth="yes"/>
      <point x="-31" y="866"/>
      <point x="-17" y="841"/>
    </contour>
  </outline>
</glyph>
<glyph name="chi" format="1">
  <advance width="668"/>
  <unicode hex="03C7"/>
  <outline>
    <contour>
      <point x="693" y="482" type="line"/>
      <point x="381" y="105" type="line"/>
      <point x="403" y="-77" type="line" smooth="yes"/>
      <point x="412" y="-151"/>
      <point x="427" y="-171"/>
      <point x="466" y="-171" type="curve"/>
      <point x="532" y="-70" type="line"/>
      <point x="593" y="-70"/>
      <point x="613" y="-104"/>
      <point x="613" y="-134" type="curve" smooth="yes"/>
      <point x="613" y="-198"/>
      <point x="538" y="-229"/>
      <point x="432" y="-229" type="curve" smooth="yes"/>
      <point x="360" y="-229"/>
      <point x="322" y="-180"/>
      <point x="313" y="-100" type="curve" smooth="yes"/>
      <point x="301" y="4" type="line"/>
      <point x="116" y="-218" type="line"/>
      <point x="-30" y="-218" type="line"/>
      <point x="282" y="159" type="line"/>
      <point x="261" y="341" type="line" smooth="yes"/>
      <point x="253" y="415"/>
      <point x="235" y="436"/>
      <point x="198" y="436" type="curve"/>
      <point x="132" y="334" type="line"/>
      <point x="71" y="334"/>
      <point x="52" y="369"/>
      <point x="52" y="398" type="curve" smooth="yes"/>
      <point x="52" y="462"/>
      <point x="126" y="494"/>
      <point x="232" y="494" type="curve" smooth="yes"/>
      <point x="304" y="494"/>
      <point x="342" y="444"/>
      <point x="351" y="364" type="curve" smooth="yes"/>
      <point x="363" y="260" type="line"/>
      <point x="548" y="482" type="line"/>
    </contour>
  </outline>
</glyph>
<glyph name="uni0413" format="1">
  <advance width="566"/>
  <unicode hex="0413"/>
  <outline>
    <contour>
      <point x="625" y="671" type="line"/>
      <point x="587" y="479" type="line"/>
      <point x="514" y="479" type="line"/>
      <point x="519" y="591" type="line" smooth="yes"/>
      <point x="520" y="607"/>
      <point x="516" y="611"/>
      <point x="503" y="611" type="curve" smooth="yes"/>
      <point x="316" y="611" type="line"/>
      <point x="210" y="78" type="line" smooth="yes"/>
      <point x="208" y="65"/>
      <point x="217" y="57"/>
      <point x="228" y="56" type="curve" smooth="yes"/>
      <point x="283" y="51" type="line"/>
      <point x="283" y="0" type="line"/>
      <point x="-21" y="0" type="line"/>
      <point x="-21" y="51" type="line"/>
      <point x="41" y="56" type="line" smooth="yes"/>
      <point x="53" y="57"/>
      <point x="65" y="65"/>
      <point x="67" y="78" type="curve" smooth="yes"/>
      <point x="169" y="593" type="line" smooth="yes"/>
      <point x="172" y="606"/>
      <point x="163" y="614"/>
      <point x="151" y="615" type="curve" smooth="yes"/>
      <point x="96" y="620" type="line"/>
      <point x="96" y="671" type="line"/>
    </contour>
  </outline>
</glyph>
<glyph name="uni0418" format="1">
  <advance width="750"/>
  <unicode hex="0418"/>
  <outline>
    <contour>
      <point x="795" y="620" type="line"/>
      <point x="738" y="615" type="line" smooth="yes"/>
      <point x="726" y="614"/>
      <point x="714" y="606"/>
      <point x="711" y="593" type="curve" smooth="yes"/>
      <point x="610" y="78" type="line" smooth="yes"/>
      <point x="607" y="65"/>
      <point x="616" y="57"/>
      <point x="627" y="56" type="curve" smooth="yes"/>
      <point x="672" y="51" type="line"/>
      <point x="672" y="0" type="line"/>
      <point x="383" y="0" type="line"/>
      <point x="383" y="51" type="line"/>
      <point x="440" y="56" type="line" smooth="yes"/>
      <point x="452" y="57"/>
      <point x="464" y="65"/>
      <point x="467" y="78" type="curve" smooth="yes"/>
      <point x="537" y="432" type="line"/>
      <point x="220" y="125" type="line"/>
      <point x="210" y="78" type="line" smooth="yes"/>
      <point x="208" y="65"/>
      <point x="217" y="57"/>
      <point x="228" y="56" type="curve" smooth="yes"/>
      <point x="273" y="51" type="line"/>
      <point x="273" y="0" type="line"/>
      <point x="-17" y="0" type="line"/>
      <point x="-17" y="51" type="line"/>
      <point x="41" y="56" type="line" smooth="yes"/>
      <point x="53" y="57"/>
      <point x="65" y="65"/>
      <point x="67" y="78" type="curve" smooth="yes"/>
      <point x="169" y="593" type="line" smooth="yes"/>
      <point x="172" y="606"/>
      <point x="163" y="613"/>
      <point x="151" y="615" type="curve" smooth="yes"/>
      <point x="106" y="620" type="line"/>
      <point x="106" y="671" type="line"/>
      <point x="396" y="671" type="line"/>
      <point x="396" y="620" type="line"/>
      <point x="338" y="615" type="line" smooth="yes"/>
      <point x="327" y="614"/>
      <point x="315" y="606"/>
      <point x="312" y="593" type="curve" smooth="yes"/>
      <point x="246" y="256" type="line"/>
      <point x="562" y="563" type="line"/>
      <point x="568" y="593" type="line" smooth="yes"/>
      <point x="571" y="606"/>
      <point x="562" y="613"/>
      <point x="551" y="615" type="curve" smooth="yes"/>
      <point x="505" y="620" type="line"/>
      <point x="505" y="671" type="line"/>
      <point x="795" y="671" type="line"/>
    </contour>
  </outline>
</glyph>
<glyph name="uni042B" format="1">
  <advance width="914"/>
  <unicode hex="042B"/>
  <outline>
    <contour>
      <point x="574" y="250" type="curve" smooth="yes"/>
      <point x="574" y="235"/>
      <point x="573" y="220"/>
      <point x="569" y="204" type="curve" smooth="yes"/>
      <point x="542" y="68"/>
      <point x="458" y="0"/>
      <point x="230" y="0" type="curve" smooth="yes"/>
      <point x="-17" y="0" type="line"/>
      <point x="-17" y="51" type="line"/>
      <point x="41" y="56" type="line" smooth="yes"/>
      <point x="53" y="57"/>
      <point x="65" y="65"/>
      <point x="67" y="78" type="curve" smooth="yes"/>
      <point x="169" y="593" type="line" smooth="yes"/>
      <point x="172" y="606"/>
      <point x="163" y="614"/>
      <point x="151" y="615" type="curve" smooth="yes"/>
      <point x="101" y="620" type="line"/>
      <point x="101" y="671" type="line"/>
      <point x="396" y="671" type="line"/>
      <point x="396" y="620" type="line"/>
      <point x="338" y="615" type="line" smooth="yes"/>
      <point x="327" y="614"/>
      <point x="315" y="606"/>
      <point x="312" y="593" type="curve" smooth="yes"/>
      <point x="278" y="420" type="line"/>
      <point x="294" y="421"/>
      <point x="315" y="423"/>
      <point x="330" y="423" type="curve" smooth="yes"/>
      <point x="484" y="423"/>
      <point x="574" y="359"/>
    </contour>
    <contour>
      <point x="970" y="620" type="line"/>
      <point x="902" y="615" type="line" smooth="yes"/>
      <point x="890" y="614"/>
      <point x="877" y="606"/>
      <point x="875" y="593" type="curve" smooth="yes"/>
      <point x="773" y="78" type="line" smooth="yes"/>
      <point x="770" y="65"/>
      <point x="780" y="57"/>
      <point x="792" y="56" type="curve" smooth="yes"/>
      <point x="852" y="51" type="line"/>
      <point x="852" y="0" type="line"/>
      <point x="535" y="0" type="line"/>
      <point x="535" y="51" type="line"/>
      <point x="604" y="56" type="line" smooth="yes"/>
      <point x="615" y="57"/>
      <point x="627" y="65"/>
      <point x="630" y="78" type="curve" smooth="yes"/>
      <point x="731" y="593" type="line" smooth="yes"/>
      <point x="734" y="606"/>
      <point x="725" y="614"/>
      <point x="714" y="615" type="curve" smooth="yes"/>
      <point x="653" y="620" type="line"/>
      <point x="653" y="671" type="line"/>
      <point x="970" y="671" type="line"/>
    </contour>
    <contour>
      <point x="421" y="256" type="curve" smooth="yes"/>
      <point x="421" y="336"/>
      <point x="379" y="366"/>
      <point x="310" y="366" type="curve" smooth="yes"/>
      <point x="300" y="366"/>
      <point x="280" y="364"/>
      <point x="267" y="362" type="curve"/>
      <point x="206" y="58" type="line"/>
      <point x="214" y="58"/>
      <point x="225" y="57"/>
      <point x="236" y="57" type="curve" smooth="yes"/>
      <point x="350" y="57"/>
      <point x="395" y="104"/>
      <point x="415" y="204" type="curve" smooth="yes"/>
      <point x="419" y="223"/>
      <point x="421" y="240"/>
    </contour>
  </outline>
</glyph>
<glyph name="uni0433" format="1">
  <advance width="465"/>
  <unicode hex="0433"/>
  <outline>
    <contour>
      <point x="459" y="399" type="curve" smooth="yes"/>
      <point x="459" y="330"/>
      <point x="376" y="286"/>
      <point x="242" y="232" type="curve" smooth="yes"/>
      <point x="187" y="210"/>
      <point x="142" y="159"/>
      <point x="142" y="114" type="curve" smooth="yes"/>
      <point x="142" y="82"/>
      <point x="149" y="45"/>
      <point x="186" y="45" type="curve" smooth="yes"/>
      <point x="235" y="45"/>
      <point x="274" y="66"/>
      <point x="334" y="129" type="curve"/>
      <point x="396" y="101" type="line"/>
      <point x="339" y="36"/>
      <point x="276" y="-12"/>
      <point x="168" y="-12" type="curve" smooth="yes"/>
      <point x="68" y="-12"/>
      <point x="7" y="35"/>
      <point x="7" y="114" type="curve" smooth="yes"/>
      <point x="7" y="176"/>
      <point x="87" y="238"/>
      <point x="171" y="271" type="curve" smooth="yes"/>
      <point x="267" y="308"/>
      <point x="325" y="355"/>
      <point x="325" y="399" type="curve" smooth="yes"/>
      <point x="325" y="420"/>
      <point x="329" y="442"/>
      <point x="292" y="442" type="curve" smooth="yes"/>
      <point x="257" y="442"/>
      <point x="238" y="431"/>
      <point x="183" y="376" type="curve"/>
      <point x="132" y="420" type="line"/>
      <point x="175" y="475"/>
      <point x="232" y="500"/>
      <point x="318" y="500" type="curve" smooth="yes"/>
      <point x="397" y="500"/>
      <point x="459" y="452"/>
    </contour>
  </outline>
</glyph>
<glyph name="uni0434" format="1">
  <advance width="601"/>
  <unicode hex="0434"/>
  <outline>
    <contour>
      <point x="574" y="500" type="line"/>
      <point x="475" y="7" type="line" smooth="yes"/>
      <point x="448" y="-125"/>
      <point x="346" y="-229"/>
      <point x="175" y="-229" type="curve" smooth="yes"/>
      <point x="109" y="-229"/>
      <point x="-14" y="-209"/>
      <point x="-14" y="-131" type="curve" smooth="yes"/>
      <point x="-14" y="-91"/>
      <point x="20" y="-54"/>
      <point x="63" y="-54" type="curve" smooth="yes"/>
      <point x="82" y="-54"/>
      <point x="96" y="-57"/>
      <point x="107" y="-62" type="curve"/>
      <point x="125" y="-152" type="line"/>
      <point x="136" y="-161"/>
      <point x="163" y="-173"/>
      <point x="181" y="-173" type="curve" smooth="yes"/>
      <point x="290" y="-173"/>
      <point x="323" y="-86"/>
      <point x="346" y="30" type="curve"/>
      <point x="302" y="6"/>
      <point x="252" y="-12"/>
      <point x="204" y="-12" type="curve" smooth="yes"/>
      <point x="72" y="-12"/>
      <point x="32" y="77"/>
      <point x="32" y="170" type="curve" smooth="yes"/>
      <point x="32" y="340"/>
      <point x="159" y="500"/>
      <point x="364" y="500" type="curve" smooth="yes"/>
      <point x="394" y="500"/>
      <point x="431" y="488"/>
      <point x="457" y="470" type="curve"/>
      <point x="510" y="500" type="line"/>
    </contour>
    <contour>
      <point x="421" y="403" type="line"/>
      <point x="406" y="422"/>
      <point x="386" y="441"/>
      <point x="361" y="441" type="curve" smooth="yes"/>
      <point x="255" y="441"/>
      <point x="175" y="314"/>
      <point x="175" y="193" type="curve" smooth="yes"/>
      <point x="175" y="124"/>
      <point x="194" y="68"/>
      <point x="269" y="68" type="curve" smooth="yes"/>
      <point x="302" y="68"/>
      <point x="330" y="82"/>
      <point x="359" y="98" type="curve"/>
    </contour>
  </outline>
</glyph>
<glyph name="uni0438" format="1">
  <advance width="574"/>
  <unicode hex="0438"/>
  <outline>
    <contour>
      <point x="572" y="28" type="line"/>
      <point x="545" y="13"/>
      <point x="471" y="-12"/>
      <point x="414" y="-12" type="curve" smooth="yes"/>
      <point x="345" y="-12"/>
      <point x="332" y="21"/>
      <point x="329" y="35" type="curve"/>
      <point x="285" y="5"/>
      <point x="235" y="-12"/>
      <point x="170" y="-12" type="curve" smooth="yes"/>
      <point x="71" y="-12"/>
      <point x="35" y="63"/>
      <point x="47" y="117" type="curve" smooth="yes"/>
      <point x="112" y="424" type="line"/>
      <point x="28" y="433" type="line"/>
      <point x="28" y="467" type="line"/>
      <point x="193" y="500" type="line"/>
      <point x="262" y="500" type="line"/>
      <point x="180" y="117" type="line" smooth="yes"/>
      <point x="174" y="86"/>
      <point x="188" y="58"/>
      <point x="213" y="58" type="curve" smooth="yes"/>
      <point x="258" y="58"/>
      <point x="297" y="85"/>
      <point x="333" y="118" type="curve"/>
      <point x="411" y="488" type="line"/>
      <point x="544" y="488" type="line"/>
      <point x="462" y="100" type="line" smooth="yes"/>
      <point x="454" y="63"/>
      <point x="467" y="48"/>
      <point x="488" y="48" type="curve" smooth="yes"/>
      <point x="498" y="48"/>
      <point x="511" y="52"/>
      <point x="572" y="84" type="curve"/>
    </contour>
  </outline>
</glyph>
<glyph name="uni044E" format="1">
  <advance width="780"/>
  <unicode hex="044E"/>
  <outline>
    <contour>
      <point x="749" y="303" type="curve" smooth="yes"/>
      <point x="749" y="146"/>
      <point x="645" y="-12"/>
      <point x="463" y="-12" type="curve" smooth="yes"/>
      <point x="326" y="-12"/>
      <point x="268" y="70"/>
      <point x="268" y="181" type="curve" smooth="yes"/>
      <point x="268" y="193"/>
      <point x="268" y="204"/>
      <point x="270" y="216" type="curve"/>
      <point x="212" y="216" type="line"/>
      <point x="202" y="165"/>
      <point x="184" y="73"/>
      <point x="184" y="73" type="curve" smooth="yes"/>
      <point x="181" y="59"/>
      <point x="191" y="51"/>
      <point x="205" y="50" type="curve" smooth="yes"/>
      <point x="205" y="50"/>
      <point x="225" y="48"/>
      <point x="241" y="47" type="curve"/>
      <point x="241" y="0" type="line"/>
      <point x="-29" y="0" type="line"/>
      <point x="-29" y="47" type="line"/>
      <point x="-4" y="48"/>
      <point x="24" y="50"/>
      <point x="24" y="50" type="curve" smooth="yes"/>
      <point x="41" y="51"/>
      <point x="48" y="58"/>
      <point x="51" y="73" type="curve" smooth="yes"/>
      <point x="120" y="419" type="line"/>
      <point x="51" y="419" type="line"/>
      <point x="51" y="459" type="line"/>
      <point x="200" y="500" type="line"/>
      <point x="270" y="500" type="line"/>
      <point x="225" y="277" type="line"/>
      <point x="280" y="277" type="line"/>
      <point x="312" y="397"/>
      <point x="404" y="500"/>
      <point x="551" y="500" type="curve" smooth="yes"/>
      <point x="674" y="500"/>
      <point x="749" y="433"/>
    </contour>
    <contour>
      <point x="604" y="307" type="curve" smooth="yes"/>
      <point x="604" y="405"/>
      <point x="565" y="447"/>
      <point x="540" y="447" type="curve" smooth="yes"/>
      <point x="479" y="447"/>
      <point x="411" y="320"/>
      <point x="411" y="185" type="curve" smooth="yes"/>
      <point x="411" y="82"/>
      <point x="452" y="43"/>
      <point x="475" y="43" type="curve" smooth="yes"/>
      <point x="545" y="43"/>
      <point x="604" y="184"/>
    </contour>
  </outline>
</glyph>
<glyph name="uni0463" format="1">
  <advance width="716"/>
  <unicode hex="0463"/>
  <outline>
    <contour>
      <point x="686" y="175" type="curve" smooth="yes"/>
      <point x="686" y="48"/>
      <point x="581" y="-12"/>
      <point x="457" y="-12" type="curve" smooth="yes"/>
      <point x="369" y="-12"/>
      <point x="288" y="30"/>
      <point x="288" y="106" type="curve" smooth="yes"/>
      <point x="288" y="115"/>
      <point x="288" y="123"/>
      <point x="290" y="133" type="curve" smooth="yes"/>
      <point x="347" y="419" type="line"/>
      <point x="238" y="419" type="line"/>
      <point x="159" y="0" type="line"/>
      <point x="25" y="0" type="line"/>
      <point x="104" y="424" type="line"/>
      <point x="20" y="432" type="line"/>
      <point x="20" y="467" type="line"/>
      <point x="184" y="500" type="line"/>
      <point x="252" y="500" type="line"/>
      <point x="247" y="467" type="line"/>
      <point x="490" y="467" type="line"/>
      <point x="456" y="303" type="line"/>
      <point x="470" y="306"/>
      <point x="483" y="308"/>
      <point x="493" y="308" type="curve" smooth="yes"/>
      <point x="619" y="308"/>
      <point x="686" y="257"/>
    </contour>
    <contour>
      <point x="549" y="176" type="curve" smooth="yes"/>
      <point x="549" y="230"/>
      <point x="543" y="256"/>
      <point x="479" y="256" type="curve" smooth="yes"/>
      <point x="470" y="256"/>
      <point x="453" y="248"/>
      <point x="444" y="242" type="curve"/>
      <point x="441" y="226"/>
      <point x="422" y="132"/>
      <point x="422" y="132" type="curve" smooth="yes"/>
      <point x="420" y="122"/>
      <point x="420" y="112"/>
      <point x="420" y="104" type="curve" smooth="yes"/>
      <point x="420" y="45"/>
      <point x="475" y="38"/>
      <point x="478" y="38" type="curve" smooth="yes"/>
      <point x="526" y="38"/>
      <point x="549" y="100"/>
    </contour>
  </outline>
</glyph>
<glyph name="uni0475" format="1">
  <advance width="601"/>
  <unicode hex="0475"/>
  <outline>
    <contour>
      <point x="561" y="500" type="curve" smooth="yes"/>
      <point x="630" y="500"/>
      <point x="651" y="460"/>
      <point x="651" y="431" type="curve" smooth="yes"/>
      <point x="651" y="383"/>
      <point x="604" y="369"/>
      <point x="573" y="366" type="curve"/>
      <point x="511" y="426" type="line"/>
      <point x="463" y="416"/>
      <point x="407" y="365"/>
      <point x="233" y="-12" type="curve"/>
      <point x="114" y="-12" type="line"/>
      <point x="131" y="22"/>
      <point x="138" y="47"/>
      <point x="137" y="68" type="curve" smooth="yes"/>
      <point x="137" y="76"/>
      <point x="115" y="357"/>
      <point x="95" y="409" type="curve" smooth="yes"/>
      <point x="89" y="425"/>
      <point x="84" y="426"/>
      <point x="67" y="427" type="curve" smooth="yes"/>
      <point x="67" y="427"/>
      <point x="33" y="428"/>
      <point x="2" y="429" type="curve"/>
      <point x="2" y="464" type="line"/>
      <point x="119" y="500" type="line"/>
      <point x="188" y="499"/>
      <point x="225" y="475"/>
      <point x="230" y="425" type="curve" smooth="yes"/>
      <point x="254" y="199" type="line"/>
      <point x="361" y="425"/>
      <point x="437" y="500"/>
    </contour>
  </outline>
</glyph>
<glyph name="uni048D" format="1">
  <advance width="474"/>
  <unicode hex="048D"/>
  <outline>
    <contour>
      <point x="18" y="439" type="line"/>
      <point x="18" y="500" type="line"/>
      <point x="121" y="500" type="line"/>
      <point x="135" y="569" type="line"/>
      <point x="268" y="569" type="line"/>
      <point x="253" y="500" type="line"/>
      <point x="352" y="500" type="line"/>
      <point x="352" y="439" type="line"/>
      <point x="241" y="439" type="line"/>
      <point x="213" y="303" type="line"/>
      <point x="227" y="306"/>
      <point x="240" y="308"/>
      <point x="250" y="308" type="curve" smooth="yes"/>
      <point x="376" y="308"/>
      <point x="443" y="257"/>
      <point x="443" y="175" type="curve" smooth="yes"/>
      <point x="443" y="48"/>
      <point x="339" y="-12"/>
      <point x="214" y="-12" type="curve" smooth="yes"/>
      <point x="126" y="-12"/>
      <point x="45" y="30"/>
      <point x="45" y="106" type="curve" smooth="yes"/>
      <point x="45" y="115"/>
      <point x="46" y="123"/>
      <point x="47" y="133" type="curve" smooth="yes"/>
      <point x="108" y="439" type="line"/>
    </contour>
    <contour>
      <point x="306" y="176" type="curve" smooth="yes"/>
      <point x="306" y="230"/>
      <point x="300" y="256"/>
      <point x="237" y="256" type="curve" smooth="yes"/>
      <point x="227" y="256"/>
      <point x="211" y="248"/>
      <point x="202" y="242" type="curve"/>
      <point x="199" y="227"/>
      <point x="181" y="140"/>
      <point x="181" y="140" type="curve" smooth="yes"/>
      <point x="178" y="127"/>
      <point x="178" y="115"/>
      <point x="178" y="104" type="curve" smooth="yes"/>
      <point x="178" y="45"/>
      <point x="232" y="38"/>
      <point x="235" y="38" type="curve" smooth="yes"/>
      <point x="284" y="38"/>
      <point x="306" y="100"/>
    </contour>
  </outline>
</glyph>
<glyph name="uni0494" format="1">
  <advance width="643"/>
  <unicode hex="0494"/>
  <outline>
    <contour>
      <point x="67" y="78" type="curve" smooth="yes"/>
      <point x="169" y="593" type="line" smooth="yes"/>
      <point x="172" y="606"/>
      <point x="163" y="614"/>
      <point x="151" y="615" type="curve" smooth="yes"/>
      <point x="91" y="620" type="line"/>
      <point x="91" y="671" type="line"/>
      <point x="602" y="671" type="line"/>
      <point x="570" y="507" type="line"/>
      <point x="498" y="507" type="line"/>
      <point x="500" y="592" type="line" smooth="yes"/>
      <point x="501" y="608"/>
      <point x="497" y="614"/>
      <point x="483" y="614" type="curve" smooth="yes"/>
      <point x="316" y="614" type="line" smooth="yes"/>
      <point x="306" y="614"/>
      <point x="315" y="605"/>
      <point x="313" y="599" type="curve" smooth="yes"/>
      <point x="278" y="420" type="line"/>
      <point x="294" y="421"/>
      <point x="333" y="423"/>
      <point x="348" y="423" type="curve" smooth="yes"/>
      <point x="514" y="423"/>
      <point x="605" y="308"/>
      <point x="575" y="118" type="curve" smooth="yes"/>
      <point x="530" y="-171"/>
      <point x="280" y="-247"/>
      <point x="70" y="-172" type="curve"/>
      <point x="70" y="-172"/>
      <point x="72" y="-129"/>
      <point x="75" y="-122" type="curve"/>
      <point x="253" y="-168"/>
      <point x="390" y="-126"/>
      <point x="429" y="92" type="curve" smooth="yes"/>
      <point x="463" y="280"/>
      <point x="404" y="366"/>
      <point x="328" y="366" type="curve" smooth="yes"/>
      <point x="318" y="366"/>
      <point x="280" y="364"/>
      <point x="267" y="362" type="curve"/>
      <point x="210" y="78" type="line" smooth="yes"/>
      <point x="208" y="65"/>
      <point x="217" y="57"/>
      <point x="228" y="56" type="curve" smooth="yes"/>
      <point x="278" y="51" type="line"/>
      <point x="278" y="0" type="line"/>
      <point x="-21" y="0" type="line"/>
      <point x="-21" y="51" type="line"/>
      <point x="41" y="56" type="line" smooth="yes"/>
      <point x="53" y="57"/>
      <point x="65" y="65"/>
    </contour>
  </outline>
</glyph>
<glyph name="uni049C" format="1">
  <advance width="726"/>
  <unicode hex="049C"/>
  <outline>
    <contour>
      <point x="788" y="616" type="curve" smooth="yes"/>
      <point x="788" y="569"/>
      <point x="763" y="560"/>
      <point x="719" y="529" type="curve"/>
      <point x="620" y="590" type="line"/>
      <point x="569" y="540"/>
      <point x="552" y="471"/>
      <point x="514" y="415" type="curve" smooth="yes"/>
      <point x="488" y="375"/>
      <point x="439" y="340"/>
      <point x="405" y="323" type="curve"/>
      <point x="440" y="317"/>
      <point x="477" y="304"/>
      <point x="488" y="283" type="curve" smooth="yes"/>
      <point x="604" y="56" type="line"/>
      <point x="673" y="51" type="line"/>
      <point x="673" y="0" type="line"/>
      <point x="468" y="0" type="line"/>
      <point x="468" y="36" type="line"/>
      <point x="382" y="203" type="line" smooth="yes"/>
      <point x="379" y="209"/>
      <point x="367" y="211"/>
      <point x="367" y="211" type="curve"/>
      <point x="343" y="91" type="line"/>
      <point x="270" y="91" type="line"/>
      <point x="307" y="281" type="line"/>
      <point x="289" y="286"/>
      <point x="263" y="289"/>
      <point x="252" y="291" type="curve"/>
      <point x="210" y="78" type="line" smooth="yes"/>
      <point x="208" y="65"/>
      <point x="217" y="57"/>
      <point x="228" y="56" type="curve" smooth="yes"/>
      <point x="273" y="51" type="line"/>
      <point x="273" y="0" type="line"/>
      <point x="-21" y="0" type="line"/>
      <point x="-21" y="51" type="line"/>
      <point x="41" y="56" type="line" smooth="yes"/>
      <point x="53" y="57"/>
      <point x="65" y="65"/>
      <point x="67" y="78" type="curve" smooth="yes"/>
      <point x="169" y="593" type="line" smooth="yes"/>
      <point x="172" y="606"/>
      <point x="163" y="614"/>
      <point x="151" y="615" type="curve" smooth="yes"/>
      <point x="101" y="620" type="line"/>
      <point x="101" y="671" type="line"/>
      <point x="396" y="671" type="line"/>
      <point x="396" y="620" type="line"/>
      <point x="338" y="615" type="line" smooth="yes"/>
      <point x="327" y="614"/>
      <point x="315" y="606"/>
      <point x="312" y="593" type="curve" smooth="yes"/>
      <point x="265" y="355" type="line"/>
      <point x="282" y="357"/>
      <point x="305" y="362"/>
      <point x="324" y="369" type="curve"/>
      <point x="365" y="572" type="line"/>
      <point x="438" y="572" type="line"/>
      <point x="404" y="401" type="line"/>
      <point x="418" y="410"/>
      <point x="433" y="423"/>
      <point x="437" y="429" type="curve" smooth="yes"/>
      <point x="497" y="504"/>
      <point x="500" y="581"/>
      <point x="583" y="650" type="curve" smooth="yes"/>
      <point x="611" y="673"/>
      <point x="646" y="687"/>
      <point x="698" y="687" type="curve" smooth="yes"/>
      <point x="766" y="687"/>
      <point x="788" y="648"/>
    </contour>
  </outline>
</glyph>
